<svg id="Layer_1" data-name="Layer 1" xmlns="http://www.w3.org/2000/svg" xmlns:xlink="http://www.w3.org/1999/xlink" viewBox="0 0 56.51 45.96"><defs><style>.cls-1{fill:url(#linear-gradient);}.cls-2{fill:url(#linear-gradient-2);}.cls-3{fill:url(#linear-gradient-3);}.cls-4{fill:url(#linear-gradient-4);}.cls-5{fill:url(#linear-gradient-5);}.cls-6{fill:url(#linear-gradient-6);}</style><linearGradient id="linear-gradient" x1="35.32" y1="437.87" x2="82.39" y2="437.87" gradientUnits="userSpaceOnUse"><stop offset="0.02" stop-color="#ffff99"/><stop offset="0.24" stop-color="#ffe159"/><stop offset="1" stop-color="#ffff99"/></linearGradient><linearGradient id="linear-gradient-2" x1="33.61" y1="411.1" x2="90.12" y2="411.1" xlink:href="#linear-gradient"/><linearGradient id="linear-gradient-3" x1="46.78" y1="415.64" x2="73.72" y2="415.64" xlink:href="#linear-gradient"/><linearGradient id="linear-gradient-4" x1="35.36" y1="431.75" x2="82.02" y2="431.75" xlink:href="#linear-gradient"/><linearGradient id="linear-gradient-5" x1="35.15" y1="426.08" x2="82.23" y2="426.08" xlink:href="#linear-gradient"/><linearGradient id="linear-gradient-6" x1="37.52" y1="421.12" x2="75.9" y2="421.12" xlink:href="#linear-gradient"/></defs><title>01</title><path class="cls-1" d="M64.63,445.09c-1-.33-2-0.68-3-1l-9.29-2.9L40,437.34c-1.23-.38-2.45-0.78-3.68-1.15a0.84,0.84,0,0,1-.64-0.61,7.06,7.06,0,0,1,0-4.14,1.63,1.63,0,0,1,.11-0.26c0.32-.63.33-0.62,1-0.41l8.3,2.51,8,2.44,7.53,2.32,3.73,1.13c-0.2.31-.4,0.56-0.55,0.84a1.84,1.84,0,0,0-.26.74c0,0.76,0,1.51,0,2.27,0,0.34.16,0.42,0.44,0.31,0.56-.22,1.12-0.45,1.67-0.7l8.84-3.91,6.62-2.93a0.57,0.57,0,0,1,.78,0,1.16,1.16,0,0,1,.4,1.21,0.56,0.56,0,0,1-.28.26l-9.42,4.22L65,444.92c-0.11,0-.22.12-0.32,0.18H64.63Z" transform="translate(-33.61 -399.14)"/><path class="cls-2" d="M59.68,406l17,2.71,0.07,0.49c-0.46.09-.91,0.18-1.36,0.26l-9,1.49-8.28,1.33c-1.09.18-2.18,0.38-3.28,0.55a1.19,1.19,0,0,1-.67-0.09c-2.59-1.28-5.18-2.56-7.75-3.88s-5.42-2.83-8.13-4.25l-4.66-2.43a0.59,0.59,0,0,1,.68-0.55c2.66-.21,5.31-0.44,8-0.66l6.32-.52,6.32-.56,5.42-.44,4.06-.36a3.06,3.06,0,0,1,1.28.12c1.34,0.44,2.7.81,4.05,1.2l6,1.72,7.22,2.08,7.09,2a0.38,0.38,0,0,1,.1.07,0.51,0.51,0,0,1-.54.59c-2.39.45-4.77,1-7.16,1.42-0.83.16-1.67,0.31-2.51,0.44a0.56,0.56,0,0,0-.58.68c0.05,1.07,0,2.14,0,3.22a0.89,0.89,0,0,0,.3.8,1.15,1.15,0,0,1,.16.6,0.31,0.31,0,0,1-.32.41,0.3,0.3,0,0,0-.13.25,7.44,7.44,0,0,0,.11,1.1c0.36,1.71.73,3.42,1.1,5.14,0.1,0.47.21,0.94,0.28,1.41a0.46,0.46,0,0,1-.17.38,1.65,1.65,0,0,1-.7.21c-0.87,0-1.73,0-2.6,0H77.25c-0.69-.08-0.85-0.31-0.7-1q0.72-3.45,1.42-6.91a5.86,5.86,0,0,0,.06-0.64l-0.48-.07a0.87,0.87,0,0,1,.34-1,0.42,0.42,0,0,0,.13-0.32c0-1.55,0-3.11,0-4.66,0-.4-0.3-0.42-0.56-0.47L71,406.88l-8.88-1.5q-1-.16-1.93-0.38c-0.36-.08-0.48.06-0.47,0.39S59.68,405.78,59.68,406Z" transform="translate(-33.61 -399.14)"/><path class="cls-3" d="M46.78,410.51a3.26,3.26,0,0,1,.73.12c2.11,0.92,4.23,1.82,6.3,2.82a2.63,2.63,0,0,0,1.74.07c2.82-.47,5.63-1,8.45-1.46l7.08-1.21c0.85-.14,1.7-0.27,2.59-0.41a2.87,2.87,0,0,1,.06.43c0,2,0,4,0,6.06a1.9,1.9,0,0,1-1,1.72,9.63,9.63,0,0,1-3.28,1.26,40,40,0,0,1-9.77.9c-1.55,0-3.11-.09-4.65-0.25a20.55,20.55,0,0,1-6.23-1.4,9.63,9.63,0,0,1-1.61-1,0.65,0.65,0,0,1-.26-0.44C46.88,415.33,46.83,413,46.78,410.51Z" transform="translate(-33.61 -399.14)"/><path class="cls-4" d="M64.06,433.44a0.61,0.61,0,0,1-.05.15,4.43,4.43,0,0,0-.62,2.92c0,0.15,0,.3,0,0.45,0,0.42.12,0.53,0.51,0.37L67.24,436l8.11-3.39c1.83-.77,3.66-1.55,5.49-2.31a0.83,0.83,0,0,1,.63-0.06,3.86,3.86,0,0,1,.55,1,0.64,0.64,0,0,1-.31.28l-3.17,1.38-6.73,2.88-6.88,2.94a0.61,0.61,0,0,1-.38,0l-7-2.09c-3.06-.93-6.12-1.85-9.18-2.8-2.41-.74-4.81-1.52-7.21-2.27-1.56-.49-3.11-1-4.68-1.43a1.24,1.24,0,0,1-.92-0.94,6.64,6.64,0,0,1,0-3.46,2.12,2.12,0,0,1,.29-0.59,0.54,0.54,0,0,1,.7-0.24l9.68,3,10.63,3.29,7,2.21Z" transform="translate(-33.61 -399.14)"/><path class="cls-5" d="M64.26,427.89a5.88,5.88,0,0,1-.48.68,1.1,1.1,0,0,0-.28.89c0,0.62,0,1.24.06,1.85,0,0.42.13,0.51,0.53,0.35,0.58-.22,1.14-0.47,1.71-0.71l6.93-3,7.87-3.45c0.26-.12.51-0.26,0.78-0.37s0.62,0,.8.45a0.5,0.5,0,0,1-.29.72L71.26,430c-2.07.92-4.13,1.83-6.19,2.76a1.69,1.69,0,0,1-1.27,0l-11.2-3.51-9-2.82c-2.41-.75-4.82-1.53-7.25-2.23a1.31,1.31,0,0,1-1.07-1.2,7.77,7.77,0,0,1,.06-2.9,0.85,0.85,0,0,1,.43-0.55,2.19,2.19,0,0,1,2.06,0l6.53,2c1.42,0.45,2.83.93,4.26,1.37,1.23,0.38,2.47.73,3.69,1.11,1.38,0.43,2.76.88,4.14,1.31l4.42,1.39,3,0.93A2.86,2.86,0,0,1,64.26,427.89Z" transform="translate(-33.61 -399.14)"/><path class="cls-6" d="M75.9,418.3c-0.16.81-.33,1.62-0.47,2.42s-0.21,1.4-.33,2.09a0.42,0.42,0,0,1-.24.22L71,424.71c-1.82.79-3.65,1.56-5.46,2.38a2.12,2.12,0,0,1-1.69.05c-1.4-.48-2.82-0.9-4.24-1.34l-4.32-1.35-5.7-1.76-4.28-1.35-5.5-1.71L38,419.05a3.1,3.1,0,0,1-.47-0.27l1.63-.77,6.49-3A1.58,1.58,0,0,1,46,415a1.3,1.3,0,0,1,0,.42,4.52,4.52,0,0,0,2.38,5.13,16.69,16.69,0,0,0,4.29,1.22,45.54,45.54,0,0,0,9.48.56,36.14,36.14,0,0,0,7.57-1,8.47,8.47,0,0,0,3-1.24,16.6,16.6,0,0,0,1.67-1.4A1.53,1.53,0,0,1,75.9,418.3Z" transform="translate(-33.61 -399.14)"/></svg>