<svg id="Layer_1" data-name="Layer 1" xmlns="http://www.w3.org/2000/svg" xmlns:xlink="http://www.w3.org/1999/xlink" viewBox="0 0 55.97 42.55"><defs><style>.cls-1{fill:url(#linear-gradient);}.cls-2{fill:url(#linear-gradient-2);}.cls-3{fill:url(#linear-gradient-3);}</style><linearGradient id="linear-gradient" x1="200.57" y1="413.98" x2="245.07" y2="449.3" gradientUnits="userSpaceOnUse"><stop offset="0.02" stop-color="#fbc2eb"/><stop offset="0.24" stop-color="#8a29ea"/><stop offset="1" stop-color="#a18cd1"/></linearGradient><linearGradient id="linear-gradient-2" x1="210.1" y1="401.98" x2="254.6" y2="437.3" xlink:href="#linear-gradient"/><linearGradient id="linear-gradient-3" x1="195.87" y1="419.9" x2="240.37" y2="455.22" xlink:href="#linear-gradient"/></defs><title>02</title><path class="cls-1" d="M222.57,401.78a16,16,0,0,1,.65,1.6,0.8,0.8,0,0,0,.89.6,5.33,5.33,0,0,1,4,2.16,8.73,8.73,0,0,1,1.67,4.39,9.67,9.67,0,0,1-.38,4.48c-0.11.32-.28,0.62-0.43,0.93a2.29,2.29,0,0,1,.75,2.29,4.9,4.9,0,0,1-.91,2.48,1.49,1.49,0,0,1-1,.59,11.21,11.21,0,0,1-1.51,4.24,8.16,8.16,0,0,1-.74.88,0.46,0.46,0,0,0-.14.25c0,1,0,2.09.08,3.13a5.72,5.72,0,0,1,0,.59,2.46,2.46,0,0,0,.91,1.91,8.34,8.34,0,0,0,2.8,1.77c2,0.87,4,1.69,6,2.59a10,10,0,0,1,3,2.19,8,8,0,0,1,2.15,4.33,0.92,0.92,0,0,1-1,1.17H201.61a1.16,1.16,0,0,1-1.21-1.54,8.59,8.59,0,0,1,4.22-5.64,35.52,35.52,0,0,1,5.38-2.45,15.46,15.46,0,0,0,3.55-1.77,7.84,7.84,0,0,0,1.18-1.1,2.22,2.22,0,0,0,.52-1.52c0-1.21.05-2.42,0.08-3.63a0.29,0.29,0,0,0-.06-0.21,6.53,6.53,0,0,1-1.9-3.12c-0.21-.61-0.33-1.25-0.5-1.88a0.31,0.31,0,0,0-.13-0.2,2.6,2.6,0,0,1-1.6-2,3.57,3.57,0,0,1,.16-2.72,0.75,0.75,0,0,1,.18-0.25,0.51,0.51,0,0,0,.13-0.72,9.78,9.78,0,0,1-.74-4.6,9.09,9.09,0,0,1,4.73-7.46,12.16,12.16,0,0,1,5.16-1.56c0.33,0,.66-0.08,1-0.12h0.81Z" transform="translate(-192.43 -401.78)"/><path class="cls-2" d="M248.39,440.14a1.18,1.18,0,0,1-.71.76,1.87,1.87,0,0,1-.36.06h-4.86a0.34,0.34,0,0,1-.38-0.26,9.88,9.88,0,0,0-2.37-3.61,12.75,12.75,0,0,0-3.56-2.5c-1.69-.78-3.43-1.46-5.13-2.22-0.85-.38-1.67-0.82-2.49-1.26a1.38,1.38,0,0,1-.77-1.37c0-.62,0-1.25-0.06-1.87a0.89,0.89,0,0,1,.19-0.63,11.11,11.11,0,0,0,1.75-3.68,2.4,2.4,0,0,1,.63-1.13,5.89,5.89,0,0,0,1.51-3,5.62,5.62,0,0,0,.18-2.13c-0.07-.48-0.22-0.95-0.32-1.42a0.79,0.79,0,0,1,0-.38,11.25,11.25,0,0,0,.41-4.74c-0.12-1-.34-2-0.52-3.06,0.38-.05.82-0.14,1.27-0.17,0.65,0,1.31-.06,2-0.07a0.35,0.35,0,0,1,.26.16c0.2,0.41.38,0.83,0.55,1.25a0.34,0.34,0,0,0,.34.25,4.29,4.29,0,0,1,3.17,1.49,5.76,5.76,0,0,1,1.33,2.87,15,15,0,0,1,.19,2.48,5,5,0,0,1-.7,2.6,1.85,1.85,0,0,1,.54,1.9A9.51,9.51,0,0,1,240,422a1.13,1.13,0,0,1-.76.69,0.42,0.42,0,0,0-.2.3,7.56,7.56,0,0,1-1,2.78c-0.18.3-.42,0.56-0.62,0.85a0.7,0.7,0,0,0-.15.37c0,0.73,0,1.46.12,2.18a2,2,0,0,0,.8,1.26,8.82,8.82,0,0,0,2.77,1.44c1.23,0.48,2.48.92,3.68,1.49a6.17,6.17,0,0,1,3.24,3.38,6.89,6.89,0,0,1,.48,2.2,0.37,0.37,0,0,0,.06.13v1Z" transform="translate(-192.43 -401.78)"/><path class="cls-3" d="M192.43,439.13c0.06-.28.12-0.55,0.17-0.83a6.35,6.35,0,0,1,2.56-3.85,20.54,20.54,0,0,1,4.32-2.29c1-.43,1.92-0.91,2.88-1.38a3.22,3.22,0,0,0,.48-0.35,1.87,1.87,0,0,0,.74-1.57c0-.61,0-1.22,0-1.83a0.39,0.39,0,0,0-.1-0.25,7.5,7.5,0,0,1-1.61-3.22,2.43,2.43,0,0,1-.07-0.33,0.56,0.56,0,0,0-.45-0.61,0.86,0.86,0,0,1-.48-0.42,3.61,3.61,0,0,1-.44-3.06,4.2,4.2,0,0,1,.41-0.69,7.8,7.8,0,0,1-.65-3.64,7.24,7.24,0,0,1,1.74-4.3,8.68,8.68,0,0,1,5.41-2.92c0.65-.11,1.31-0.17,2-0.25-0.15.54-.3,1-0.41,1.45a11.16,11.16,0,0,0-.23,4.29c0.11,0.78.31,1.54,0.46,2.31a0.51,0.51,0,0,1,0,.3,5.32,5.32,0,0,0-.39,3.19,6.35,6.35,0,0,0,1.18,3,1.86,1.86,0,0,0,.37.42,2.15,2.15,0,0,1,.76,1.3,10.91,10.91,0,0,0,1.92,3.81,0.41,0.41,0,0,1,.09.25c0,0.87,0,1.75-.14,2.61a1.42,1.42,0,0,1-.57.73,10.09,10.09,0,0,1-2.47,1.3c-1.8.77-3.61,1.51-5.38,2.34a12.24,12.24,0,0,0-3.51,2.5,9.9,9.9,0,0,0-2.33,3.6,0.25,0.25,0,0,1-.29.2h-5a1,1,0,0,1-.91-0.72,1.56,1.56,0,0,0-.06-0.15v-0.94Z" transform="translate(-192.43 -401.78)"/></svg>