<svg id="Layer_1" data-name="Layer 1" xmlns="http://www.w3.org/2000/svg" xmlns:xlink="http://www.w3.org/1999/xlink" viewBox="0 0 57.12 50.94"><defs><style>.cls-1{fill:url(#linear-gradient);}.cls-2{fill:url(#linear-gradient-2);}.cls-3{fill:url(#linear-gradient-3);}.cls-4{fill:url(#linear-gradient-4);}.cls-5{fill:url(#linear-gradient-5);}.cls-6{fill:url(#linear-gradient-6);}.cls-7{fill:url(#linear-gradient-7);}.cls-8{fill:url(#linear-gradient-8);}</style><linearGradient id="linear-gradient" x1="383.95" y1="426.97" x2="407.37" y2="426.97" gradientUnits="userSpaceOnUse"><stop offset="0.02" stop-color="#fbc2eb"/><stop offset="0.24" stop-color="#8a29ea"/><stop offset="1" stop-color="#a18cd1"/></linearGradient><linearGradient id="linear-gradient-2" x1="350.25" y1="426.88" x2="373.75" y2="426.88" xlink:href="#linear-gradient"/><linearGradient id="linear-gradient-3" x1="364.06" y1="410.94" x2="393.52" y2="410.94" xlink:href="#linear-gradient"/><linearGradient id="linear-gradient-4" x1="399.72" y1="414.3" x2="401.91" y2="414.3" xlink:href="#linear-gradient"/><linearGradient id="linear-gradient-5" x1="355.76" y1="414.3" x2="357.87" y2="414.3" xlink:href="#linear-gradient"/><linearGradient id="linear-gradient-6" x1="358.58" y1="414.96" x2="360.56" y2="414.96" xlink:href="#linear-gradient"/><linearGradient id="linear-gradient-7" x1="396.98" y1="414.98" x2="399.05" y2="414.98" xlink:href="#linear-gradient"/><linearGradient id="linear-gradient-8" x1="369.07" y1="411.18" x2="388.54" y2="411.18" xlink:href="#linear-gradient"/></defs><title>03</title><path class="cls-1" d="M387.54,445.14c-0.37,0-.73-0.11-1.1-0.12-0.65,0-1.29,0-2,0-0.07-.77-0.14-1.55-0.21-2.33,0-.53-0.1-1.05-0.13-1.58,0-.28,0-0.56,0-0.83-0.05-.6-0.18-1.21-0.18-1.81a9.34,9.34,0,0,1,.21-1.71,8.21,8.21,0,0,1,.38-1.3c0.24-.65.49-1.31,0.79-1.94a12.31,12.31,0,0,1,2.74-3.5c0.79-.75,1.72-1.35,2.53-2.08a11.93,11.93,0,0,0,1.25-1.46q1-1.22,1.94-2.46c0.56-.73,1.1-1.49,1.67-2.22a11,11,0,0,1,1.54-1.85c1-.84,1.63-0.83,2.68,0a2,2,0,0,1,.67,1.87,2.22,2.22,0,0,1-.35.78q-1.09,1.83-2.22,3.63c-0.56.9-1.16,1.79-1.72,2.69-0.39.63-.77,1.28-1.14,1.92-0.24.42,0.17,0.57,0.38,0.75a0.53,0.53,0,0,0,.52,0,17.92,17.92,0,0,0,1.17-1.46c0.51-.7,1-1.41,1.48-2.13s0.9-1.42,1.33-2.15q0.92-1.56,1.8-3.14a7,7,0,0,0,1-3.62,12.48,12.48,0,0,1,.1-1.78c0.07-.56.2-1.12,0.3-1.68a1.29,1.29,0,0,0,0-.19,2.38,2.38,0,0,1,.13-1.16,3.4,3.4,0,0,0,.15-1.14,13.48,13.48,0,0,1,.27-2.15,3.75,3.75,0,0,1,.81-1.83,1.13,1.13,0,0,1,.83-0.39,1.61,1.61,0,0,1,1.59.55c0.11,0.17.2,0.35,0.32,0.51a0.85,0.85,0,0,0,.22.16v1.52a6.11,6.11,0,0,0-.2.83c0,0.33,0,.66,0,1-0.14,1-.34,2-0.46,3.06-0.08.73-.07,1.47-0.1,2.2a1.86,1.86,0,0,1,0,.27,7,7,0,0,0-.15.77c0,0.4,0,.8,0,1.19-0.06.68-.16,1.35-0.23,2s-0.09,1.06-.14,1.6a11.68,11.68,0,0,1-.66,2.93,5.11,5.11,0,0,1-.66,1.41c-1,1.35-2.13,2.66-3.21,4q-1.14,1.39-2.29,2.78c-1.33,1.59-2.67,3.16-4,4.76a1.38,1.38,0,0,0-.37.84,25.85,25.85,0,0,1-.21,3.71,0.64,0.64,0,0,1-.09.15,7.54,7.54,0,0,0-1-.08c-0.88,0-1.77.12-2.65,0.18h-3.32Z" transform="translate(-350.25 -394.2)"/><path class="cls-2" d="M350.25,410.22a0.93,0.93,0,0,0,.21-0.26,1.58,1.58,0,0,1,1.32-1.12l0.33,0a1.38,1.38,0,0,1,1.47.9,6.09,6.09,0,0,1,.53,2c0.15,0.78.12,1.6,0.33,2.35a15.71,15.71,0,0,1,.25,2.22c0.16,1.15.25,2.3,0.37,3.45,0,0.26.07,0.51,0.1,0.77a6.18,6.18,0,0,0,.9,2.19c0.41,0.74.76,1.52,1.18,2.25s0.93,1.49,1.39,2.24,0.77,1.25,1.18,1.85c0.58,0.83,1.18,1.65,1.79,2.46a0.62,0.62,0,0,0,.91.09,0.61,0.61,0,0,0,.11-0.91c-0.47-.73-1-1.45-1.4-2.19-0.65-1.07-1.27-2.16-1.91-3.23s-1.17-1.93-1.75-2.9a1.91,1.91,0,0,1-.3-0.77,2.07,2.07,0,0,1,1.61-2,1.54,1.54,0,0,1,.52-0.19,3.74,3.74,0,0,1,1.29.61,10.61,10.61,0,0,1,1.17,1.44c1.12,1.42,2.23,2.84,3.35,4.25,0.55,0.69,1.1,1.4,1.7,2,0.44,0.48,1,.87,1.47,1.31a21.49,21.49,0,0,1,2.41,2.23,22.21,22.21,0,0,1,1.92,3.05,15.33,15.33,0,0,1,.8,2.52,4.85,4.85,0,0,1,.12,2.62c-0.2,1,0,2-.13,3-0.07.62-.07,1.24-0.1,1.87a0.58,0.58,0,0,1-.72.68c-2.18,0-4.37-.11-6.54,0-1.05.07-2-.33-3.16-0.1,0-.54,0-1,0-1.5a14,14,0,0,0-.21-2.42,3.6,3.6,0,0,0-.84-1.27c-1-1.21-2-2.4-3-3.6l-2-2.42c-1-1.26-2-2.56-3.14-3.77a8.3,8.3,0,0,1-1.64-2.93,13.94,13.94,0,0,1-.51-3c-0.08-.73,0-1.48-0.1-2.22s-0.22-1.31-.3-2c0-.32,0-0.66,0-1-0.08-.6-0.22-1.19-0.31-1.78,0-.21,0-0.43,0-0.63,0-.45-0.14-0.89-0.2-1.34s-0.12-1-.18-1.53c-0.09-.74-0.19-1.48-0.29-2.21v-1Z" transform="translate(-350.25 -394.2)"/><path class="cls-3" d="M393.51,406.76c0,1.55,0,3.1,0,4.65,0,0.55-.13,1.09-0.19,1.64a1.18,1.18,0,0,0,0,.42,4.46,4.46,0,0,1-.31,2.14,10.58,10.58,0,0,1-.92,2.21,14.1,14.1,0,0,1-2.09,3.05,20,20,0,0,1-2.4,2.29,21.47,21.47,0,0,1-2.47,1.81,27.6,27.6,0,0,1-2.6,1.35c-1,.46-1.92.89-2.89,1.32a1.2,1.2,0,0,1-.52,0,3.58,3.58,0,0,1-1.2-.11c-1.4-.61-2.77-1.28-4.14-2a11.77,11.77,0,0,1-2.09-1.18c-1.22-1-2.41-2-3.53-3.06a12,12,0,0,1-2.77-4,10.72,10.72,0,0,1-.77-1.88c-0.19-.91-0.18-1.85-0.3-2.78-0.45-3.54-.13-7.1-0.17-10.65a2.84,2.84,0,0,1,.85-2.51,2.33,2.33,0,0,1,1.33-.55c0.63,0,1.26-.15,1.89-0.23a7.67,7.67,0,0,0,1.13-.17c0.62-.18,1.21-0.42,1.82-0.63s1.17-.33,1.72-0.57a14.86,14.86,0,0,0,1.58-.85c0.86-.5,1.71-1,2.57-1.52,0.23-.14.45-0.3,0.67-0.46a2.78,2.78,0,0,1,1.59-.31,0.61,0.61,0,0,1,.32.12c1.19,0.75,2.36,1.55,3.59,2.24a23.52,23.52,0,0,0,2.47,1.06c0.62,0.26,1.22.56,1.86,0.76a14.18,14.18,0,0,0,1.63.28c0.43,0.08.85,0.19,1.27,0.27a2.19,2.19,0,0,0,.56.07,2.39,2.39,0,0,1,2.28,1.3,3.15,3.15,0,0,1,.22,1.16c0,1.77,0,3.54,0,5.31h0ZM367.6,402.2c0,0.75,0,1.38,0,2,0,2.27-.07,4.54-0.08,6.81a11.06,11.06,0,0,0,.34,3.43,7.89,7.89,0,0,0,.85,2,16.38,16.38,0,0,0,1.46,2,33.8,33.8,0,0,0,2.44,2.4,7.5,7.5,0,0,0,1.34.92c0.85,0.49,1.73.94,2.6,1.4,0.48,0.25.95,0.52,1.44,0.73a1.67,1.67,0,0,0,1,.24,18.55,18.55,0,0,0,2.6-1.1,24.92,24.92,0,0,0,2.47-1.49,19.57,19.57,0,0,0,1.81-1.41,15.75,15.75,0,0,0,1.11-1.13,12.13,12.13,0,0,0,1.18-1.29,12.27,12.27,0,0,0,1.19-2,9.28,9.28,0,0,0,.73-2.27,14,14,0,0,0,0-2.25q0-4.2,0-8.4a0.67,0.67,0,0,0-.67-0.82,7.23,7.23,0,0,1-1.82-.29c-0.45-.18-1-0.16-1.44-0.31a20,20,0,0,1-1.87-.75c-0.77-.34-1.53-0.67-2.27-1.06a27.08,27.08,0,0,1-2.47-1.41,1.19,1.19,0,0,0-1.46,0c-1.07.66-2.13,1.35-3.25,1.9a23.88,23.88,0,0,1-3,1.16,27.13,27.13,0,0,1-2.63.73A14.13,14.13,0,0,1,367.6,402.2Z" transform="translate(-350.25 -394.2)"/><path class="cls-4" d="M401.91,410.63c-0.14.51-.28,1-0.39,1.42a5.61,5.61,0,0,0-.14.82c-0.1,1-.17,2.08-0.28,3.12-0.07.65-.19,1.29-0.29,2a4.58,4.58,0,0,1-1-.43,0.89,0.89,0,0,1-.12-0.64,4.23,4.23,0,0,1,.16-0.75c0.06-.26.14-0.51,0.19-0.77,0.13-.79.24-1.57,0.37-2.36,0.08-.45.2-0.89,0.29-1.33A1.57,1.57,0,0,1,401.91,410.63Z" transform="translate(-350.25 -394.2)"/><path class="cls-5" d="M355.76,410.58a0.88,0.88,0,0,1,.89.69c0.24,0.79.4,1.61,0.6,2.42,0.07,0.28.18,0.54,0.23,0.82s0,0.54.06,0.8,0.12,0.75.18,1.12,0.1,0.73.15,1.08l-1.19.49a5.38,5.38,0,0,1,0-.6,11.69,11.69,0,0,0-.26-3c-0.11-.83-0.17-1.66-0.3-2.49a8.23,8.23,0,0,0-.33-1.07A2.12,2.12,0,0,1,355.76,410.58Z" transform="translate(-350.25 -394.2)"/><path class="cls-6" d="M360.54,417.41l-0.86-.12-1.11-4.78a1.68,1.68,0,0,1,1.11,1.25,8.48,8.48,0,0,0,.37,1.19c0.16,0.52.35,1,.47,1.57A4.18,4.18,0,0,1,360.54,417.41Z" transform="translate(-350.25 -394.2)"/><path class="cls-7" d="M397,417.21c0.07-.34.11-0.63,0.2-0.9,0.25-.79.52-1.58,0.79-2.37a5.11,5.11,0,0,1,.41-1,1.36,1.36,0,0,1,.54-0.3l0.12,0.12-0.51,2c-0.09.37-.19,0.74-0.27,1.11a7.2,7.2,0,0,1-.22,1c-0.08.21-.14,0.6-0.57,0.36A1.5,1.5,0,0,0,397,417.21Z" transform="translate(-350.25 -394.2)"/><path class="cls-8" d="M388.47,403.46a5.42,5.42,0,0,1,.08.68c0,2.84,0,5.69,0,8.53a10.69,10.69,0,0,1-.27,1.61,7.06,7.06,0,0,1-.79,1.85,6.11,6.11,0,0,1-1.1,1.39c-0.36.42-.72,0.85-1.11,1.23a10,10,0,0,1-1.16,1c-0.65.46-1.32,0.9-2,1.34a8.85,8.85,0,0,1-.89.53c-0.72.36-1.44,0.71-2.18,1a0.58,0.58,0,0,1-.43,0c-0.87-.42-1.71-0.88-2.59-1.27a11.8,11.8,0,0,1-2.73-1.8c-0.41-.34-0.86-0.63-1.23-1a13.42,13.42,0,0,1-1-1.17c-0.36-.44-0.73-0.86-1.05-1.32a4,4,0,0,1-.33-0.77,7.67,7.67,0,0,0-.31-0.71,4.09,4.09,0,0,1-.34-2.06c0-.92,0-1.83,0-2.75,0-1.9,0-3.79,0-5.69,0-.6.05-0.63,0.63-0.59a1.57,1.57,0,0,0,.56-0.13l1.34-.45c0.39-.12.78-0.22,1.17-0.33a3,3,0,0,0,.4-0.1c1-.45,2.08-0.87,3.09-1.36a15.7,15.7,0,0,0,2.14-1.24,0.55,0.55,0,0,1,.7,0c1.21,0.62,2.41,1.26,3.62,1.88a11.09,11.09,0,0,0,1.35.58c0.56,0.2,1.14.33,1.7,0.52s0.85,0.33,1.29.47a2.76,2.76,0,0,0,.41,0C387.82,403.32,388.11,403.39,388.47,403.46Zm-10.46,12a1.12,1.12,0,0,0,.47-0.1,14.32,14.32,0,0,0,1.31-1.18c0.34-.35.59-0.78,0.91-1.15,0.69-.78,1.4-1.54,2.09-2.33,0.31-.36.58-0.76,0.89-1.11a13.46,13.46,0,0,0,1.24-1.34,1.52,1.52,0,0,0,.09-1.61,2.1,2.1,0,0,0-.67-0.6,1.15,1.15,0,0,0-1.6.15c-0.63.67-1.23,1.37-1.84,2.07-0.41.48-.8,1-1.21,1.45s-0.89.93-1.28,1.44-0.59.52-.9,0.11a6.47,6.47,0,0,0-1.57-1.55,1.36,1.36,0,0,0-2,.79,1.42,1.42,0,0,0-.09.93,22,22,0,0,0,1.53,2c0.3,0.37.67,0.68,0.94,1.07A2.25,2.25,0,0,0,378,415.47Z" transform="translate(-350.25 -394.2)"/></svg>