<svg id="Layer_1" data-name="Layer 1" xmlns="http://www.w3.org/2000/svg" xmlns:xlink="http://www.w3.org/1999/xlink" viewBox="0 0 55.44 55.44"><defs><style>.cls-1{fill:url(#linear-gradient);}</style><linearGradient id="linear-gradient" x1="505.98" y1="420.64" x2="561.42" y2="420.64" gradientUnits="userSpaceOnUse"><stop offset="0.02" stop-color="#ffff99"/><stop offset="0.24" stop-color="#ffe159"/><stop offset="1" stop-color="#ffff99"/></linearGradient></defs><title>04</title><path class="cls-1" d="M506,400.29V400a4.88,4.88,0,0,1,.64-0.36c1.32-.5,2.65-1,4-1.46a0.92,0.92,0,0,0,.63-0.64q0.66-1.9,1.37-3.79a7,7,0,0,1,.42-0.8h0.32q4.41,4.42,8.81,8.86a0.6,0.6,0,0,0,.9.11,25.15,25.15,0,1,1-7.39,35.61,24.67,24.67,0,0,1-3.85-19.81A23.11,23.11,0,0,1,515,410a0.59,0.59,0,0,0-.12-0.9c-1.37-1.34-2.71-2.7-4.06-4.05Zm15.52,10.14a0.45,0.45,0,0,0-.68-0.29c-1.09.42-2.17,0.87-3.29,1.19a1.41,1.41,0,0,0-.93.81,22.18,22.18,0,0,0-2.49,15.34,22,22,0,0,0,9.59,14.47,22.5,22.5,0,1,0,10-41.13,22.4,22.4,0,0,0-8.47,2.7,1.61,1.61,0,0,0-.94,1.09,29.59,29.59,0,0,1-1.15,3.19c-0.13.34-.13,0.58,0.26,0.71a19.48,19.48,0,1,1,.38,29.7,18.85,18.85,0,0,1-6.91-12.85A19.2,19.2,0,0,1,521.5,410.43Zm3.83,3.72a14.31,14.31,0,1,0,1.83-1.8l3.6,3.47a9.3,9.3,0,0,1,12.82,1.78A9.21,9.21,0,0,1,531,430.75a9.34,9.34,0,0,1-2.17-13Zm7.57,7.52a3.7,3.7,0,0,0,1.29,4.69,3.75,3.75,0,0,0,5-5.46,3.61,3.61,0,0,0-4.45-1l0.3,0.31c0.67,0.68,1.36,1.34,2,2a1.28,1.28,0,1,1-1.8,1.8C534.48,423.26,533.71,422.48,532.9,421.67Z" transform="translate(-505.98 -392.92)"/></svg>