<svg width="3000" height="2000" viewBox="0 0 3000 2000" fill="none" xmlns="http://www.w3.org/2000/svg">
<g clip-path="url(#clip0_2_2720)">
<rect width="3000" height="2000" fill="white"/>
<g clip-path="url(#clip1_2_2720)">
<path d="M2836 121H-164V1879.8H2836V121Z" fill="white"/>
<path d="M1853.3 1218.5V1575.6H446.3V1437.6L680 1401.2L1837.2 1221.1L1853.3 1218.5Z" fill="#E9E6FF"/>
<path d="M2011.7 1193.9V1575.6H1957.2L1938.3 1453.9L1900.5 1211.2L2011.7 1193.9Z" fill="#DDD6FF"/>
<path d="M1157.1 1575.6L1853.3 1467.2V1575.6H1157.1Z" fill="#F2F0FF"/>
<path d="M2183.7 1415.7V1575.6H1957.2L1938.3 1453.9L2011.7 1442.5L2183.7 1415.7Z" fill="#E9E6FF"/>
<path d="M1852.8 1431.1H664.3V1575.6H1852.8V1431.1Z" fill="#D6CEFF"/>
<path d="M1852.87 1431L1852.87 442.895L664.268 442.895L664.268 1431L1852.87 1431Z" fill="white"/>
<path d="M2479.1 1594.5H124.2V1614.1H2479.1V1594.5Z" fill="#B3A4F5"/>
<path d="M2352.1 1635.2H1923.6V1654.8H2352.1V1635.2Z" fill="#DDD6FF"/>
<path d="M1906.4 1635.2H1862.3V1654.8H1906.4V1635.2Z" fill="#CCC2FF"/>
<path d="M927.601 1674.5H366.101V1684.3H927.601V1674.5Z" fill="#E9E6FF"/>
<path d="M953.1 1674.5H942.9V1684.3H953.1V1674.5Z" fill="#CCC2FF"/>
<path d="M1507.4 1674.5H973.3V1684.3H1507.4V1674.5Z" fill="#E9E6FF"/>
<path d="M1729.5 1674.5H1533.5V1684.3H1729.5V1674.5Z" fill="#DDD6FF"/>
<path d="M2077.6 1674.5H1742.7V1684.3H2077.6V1674.5Z" fill="#DDD6FF"/>
<path d="M2113.6 1674.5H2102.1V1684.3H2113.6V1674.5Z" fill="#E9E6FF"/>
<path d="M1850.6 1635.2H1672.2V1654.8H1850.6V1635.2Z" fill="#DDD6FF"/>
<path d="M1652 1635.2H1180.1V1654.8H1652V1635.2Z" fill="#CCC2FF"/>
<path d="M1163.2 1635.2H833.3V1654.8H1163.2V1635.2Z" fill="#DDD6FF"/>
<path d="M822.2 1635.2H805.4V1654.8H822.2V1635.2Z" fill="#CCC2FF"/>
<path d="M792.9 1635.2H226V1654.8H792.9V1635.2Z" fill="#DDD6FF"/>
<path d="M1855.2 878.3H1851.3V1152.9H1855.2V878.3Z" fill="#624AC9"/>
<path d="M1208.3 1431.1L664.3 1515.7V1431.1H1208.3Z" fill="#B3A4F5"/>
<path d="M1938.3 1453.9L1853.3 1467.2V1218.5L1900.5 1211.2L1938.3 1453.9Z" fill="#B3A4F5"/>
<path d="M1957.2 1575.6H1853.3V1467.2L1938.3 1453.9L1957.2 1575.6Z" fill="#DDD6FF"/>
<path d="M1161.8 1575.6L1852.9 1468V1575.6H1161.8Z" fill="white"/>
<path d="M666.3 685.8H662.3V440.9H1011.8V444.9H666.3V685.8Z" fill="#624AC9"/>
<path d="M666.2 1215.4H662.3V1480.1H666.2V1215.4Z" fill="#624AC9"/>
<path d="M1133.9 440.9H1086.3V444.8H1133.9V440.9Z" fill="#624AC9"/>
<path d="M1853.2 440.9H1153V444.8H1853.2V440.9Z" fill="#624AC9"/>
<path d="M2388.9 1594.5H1909.2V1598.4H2388.9V1594.5Z" fill="#4F37B3"/>
<path d="M1854.8 442.9H1850.9V677.5H1854.8V442.9Z" fill="#624AC9"/>
<path d="M666.2 1011H662.3V1047H666.2V1011Z" fill="#624AC9"/>
<path d="M1855.2 1194.8H1851.3V1237.9H1855.2V1194.8Z" fill="#624AC9"/>
<path d="M1854.8 1365.7H1850.9V1575.6H1854.8V1365.7Z" fill="#624AC9"/>
<path d="M1837.2 1221.1V1415.4H680V1401.2L1837.2 1221.1Z" fill="#E9E6FF"/>
<path d="M1558.8 458.6L680 595.4V458.6H1558.8Z" fill="#F2F0FF"/>
<path d="M1341 637.8H1176.2V736.8H1341V637.8Z" fill="#E9E6FF"/>
<path d="M1150.2 637.8H985.399V736.8H1150.2V637.8Z" fill="#E9E6FF"/>
<path d="M1531.8 637.8H1367V736.8H1531.8V637.8Z" fill="#E9E6FF"/>
<path d="M1722.6 637.8H1557.8V736.8H1722.6V637.8Z" fill="#FFCEE4"/>
<path d="M959.4 762.6H794.6V861.6H959.4V762.6Z" fill="#E9E6FF"/>
<path d="M1150.2 762.6H985.399V861.6H1150.2V762.6Z" fill="#E9E6FF"/>
<path d="M1341 762.6H1176.2V861.6H1341V762.6Z" fill="#E9E6FF"/>
<path d="M1531.8 762.6H1367V861.6H1531.8V762.6Z" fill="#E9E6FF"/>
<path d="M1722.6 762.6H1557.8V861.6H1722.6V762.6Z" fill="#FFCEE4"/>
<path d="M959.4 887.5H794.6V986.5H959.4V887.5Z" fill="#E9E6FF"/>
<path d="M1150.2 887.5H985.399V986.5H1150.2V887.5Z" fill="#E9E6FF"/>
<path d="M1341 887.5H1176.2V986.5H1341V887.5Z" fill="#E9E6FF"/>
<path d="M1531.8 887.5H1367V986.5H1531.8V887.5Z" fill="#E9E6FF"/>
<path d="M1722.6 887.5H1557.8V986.5H1722.6V887.5Z" fill="#FFCEE4"/>
<path d="M959.4 1012.3H794.6V1111.3H959.4V1012.3Z" fill="#E9E6FF"/>
<path d="M1150.2 1012.3H985.399V1111.3H1150.2V1012.3Z" fill="#E9E6FF"/>
<path d="M1341 1012.3H1176.2V1111.3H1341V1012.3Z" fill="#E9E6FF"/>
<path d="M1531.8 1012.3H1367V1111.3H1531.8V1012.3Z" fill="#E9E6FF"/>
<path d="M1722.6 1012.3H1557.8V1111.3H1722.6V1012.3Z" fill="#FFCEE4"/>
<path d="M959.4 1137.2H794.6V1236.2H959.4V1137.2Z" fill="#E9E6FF"/>
<path d="M1150.2 1137.2H985.399V1236.2H1150.2V1137.2Z" fill="#E9E6FF"/>
<path d="M1341 1137.2H1176.2V1236.2H1341V1137.2Z" fill="#E9E6FF"/>
<path d="M609.3 1490.5L589.3 1594.5H417.6L407.7 1543.4L397.5 1490.5H609.3Z" fill="white"/>
<path d="M605.3 1490.5L600.9 1513.4L585.3 1594.5H417.6L407.7 1543.4L397.5 1490.5H605.3Z" fill="#FFE159"/>
<path d="M605.3 1490.5L600.9 1513.4L407.7 1543.4L397.5 1490.5H605.3Z" fill="#FFC359"/>
<path d="M175.801 770.2L225.301 756.9C264.701 746.3 305.901 752.8 339.601 773.3L347.901 829.8C348.501 833.8 352.201 836.6 356.301 836C360.301 835.4 363.101 831.7 362.501 827.6L356.201 785C362.701 790.4 368.901 796.4 374.501 802.9L378.001 806.9L392.501 905.1C393.101 909.1 396.801 911.9 400.901 911.3C404.901 910.7 407.701 907 407.101 902.9L396.101 827.9L481.101 927.1L431.601 940.4C377.401 954.9 319.701 937.2 283.001 894.9L306.801 888C310.701 886.9 312.901 882.9 311.901 879V878.9C310.801 875 306.701 872.7 302.801 873.9L272.501 882.7L175.801 770.2Z" fill="#A292ED"/>
<path d="M401.3 702.5L384.4 700.5L383.7 703.8C382.1 711.3 381.5 718.6 381.6 725.7L426.6 731C429.9 731.4 432.301 734.4 431.901 737.8C431.601 740 430.2 741.8 428.3 742.6C427.3 743 426.3 743.2 425.1 743.1L382.7 738.1C383.8 744.7 385.5 751 387.9 756.9L454.8 764.8C458.1 765.2 460.5 768.2 460.1 771.6C459.8 773.8 458.4 775.6 456.5 776.4C455.5 776.8 454.5 777 453.3 776.9L394.3 769.9C416.7 807.3 464.9 827.3 510.7 807.1L410.2 579.1L386.9 688.5L402.7 690.4C406 690.8 408.4 693.8 408 697.2C407.7 699.4 406.3 701.2 404.4 702C403.5 702.5 402.4 702.7 401.3 702.5ZM406.1 661.6C406.5 658.3 409.5 655.9 412.9 656.3L422.901 657.5C426.201 657.9 428.6 660.9 428.2 664.3C427.9 666.5 426.5 668.3 424.6 669.1C423.6 669.5 422.601 669.7 421.401 669.6L411.4 668.4C408.1 668 405.7 664.9 406.1 661.6Z" fill="#CCC2FF"/>
<path d="M773.5 685.8L590.6 789L631.8 852.7L633.9 856C635.7 858.8 634.9 862.6 632.1 864.4C630 865.8 627.4 865.7 625.5 864.4C624.8 863.9 624.2 863.3 623.7 862.6L615.6 850.1L579.9 795L552.8 810.3C552.6 810.4 552.5 810.5 552.3 810.6L580.3 853.9C582.1 856.7 581.3 860.5 578.5 862.3C576.4 863.7 573.8 863.6 571.9 862.3C571.2 861.9 570.6 861.2 570.1 860.5L542.3 817.5C538.1 821 534.4 824.9 531.2 829.1L602.4 948.6L577.2 987.2L630.4 995.7L666.6 1001.5C702.9 1007.3 736.8 984.6 746.5 950.5L648.7 934.9C647.8 934.8 647 934.4 646.3 934C644.3 932.7 643.2 930.4 643.6 927.9C644.1 924.6 647.2 922.3 650.6 922.8L748.7 938.4C748.7 938.2 748.7 938 748.8 937.8L750.2 923.1L631.1 904.1L661.6 857.3L755.2 872.2L758.8 835.4L686.4 823.9C685.5 823.8 684.7 823.5 684 823C682 821.7 680.9 819.4 681.3 816.9C681.8 813.6 685 811.3 688.3 811.8L760 823.2L765.3 768.4L723.8 761.8L773.5 685.8ZM742.4 782C745.7 782.5 748 785.6 747.5 789C747 792.3 743.8 794.6 740.5 794.1L714.5 790C713.6 789.9 712.8 789.5 712.1 789.1C710.5 788.1 709.5 786.4 709.3 784.5C709.3 784 709.3 783.6 709.3 783.1C709.7 780.8 711.3 779 713.3 778.3C714.2 778 715.3 777.9 716.3 778L742.4 782Z" fill="#B3A4F5"/>
<path d="M602.401 948.6L577.201 987.2L528.001 911.2C511.101 885.1 513.501 852.3 531.201 829.1L602.401 948.6Z" fill="#8B77E8"/>
<path d="M755.3 872.4L750.3 923.2L631.2 904.3L661.7 857.5L755.3 872.4Z" fill="#CCC2FF"/>
<path d="M468.5 1042.4L434.2 953.1L344.9 918.9C308.6 905 268.6 921 251.2 954.2L301.7 973.5C302.6 973.8 303.3 974.3 303.9 975C305.7 976.7 306.3 979.4 305.4 981.9C304.1 985.2 300.4 986.9 297.1 985.6L246.2 966.1C246.1 966.3 246.1 966.5 246 966.7L236.1 998L315.5 1028.4C316.4 1028.7 317.1 1029.2 317.7 1029.9C319.4 1031.6 320.1 1034.3 319.2 1036.8C317.9 1040.1 314.2 1041.8 310.9 1040.5L232.2 1010.4L225.9 1030.4L320.8 1066.7L357.2 1161.5L420.8 1141.4C421 1141.3 421.2 1141.3 421.4 1141.2L383.8 1043.2C382.5 1039.9 384.2 1036.1 387.5 1034.9C390 1034 392.6 1034.6 394.4 1036.4C395 1037 395.5 1037.8 395.9 1038.6L433.4 1136.2C466.4 1118.7 482.4 1078.7 468.5 1042.4Z" fill="#CCC2FF"/>
<path d="M281.1 1098C283.6 1097 286.2 1097.7 288 1099.5C288.6 1100.1 289.1 1100.9 289.5 1101.7L317.3 1174L357.3 1161.4L320.9 1066.6L226 1030.3L192.2 1137.6L233.9 1153.6L249.9 1195.3L304.9 1177.9L277.4 1106.3C276.1 1103 277.8 1099.3 281.1 1098ZM266.5 1172.5C263.2 1173.8 259.4 1172.1 258.2 1168.8L248.2 1142.8C246.9 1139.5 248.6 1135.8 251.9 1134.5C254.4 1133.6 257 1134.2 258.8 1136C259.4 1136.6 259.9 1137.4 260.3 1138.2L270.3 1164.2C271.5 1167.5 269.9 1171.2 266.5 1172.5Z" fill="#B3A4F5"/>
<path d="M249.901 1195.3L165.601 1222L192.201 1137.6L233.901 1153.6L249.901 1195.3Z" fill="#DDD6FF"/>
<path d="M402.907 1051.73L399.266 1053.13L425.07 1120.35L428.711 1118.95L402.907 1051.73Z" fill="#8B77E8"/>
<path d="M333.069 1093.23L329.428 1094.63L347.921 1142.8L351.562 1141.4L333.069 1093.23Z" fill="#8B77E8"/>
<path d="M238.182 1146.6L164.159 1220.64L166.917 1223.4L240.94 1149.35L238.182 1146.6Z" fill="#8B77E8"/>
<path d="M432.801 951.806L296.633 1088.01L299.391 1090.77L435.559 954.564L432.801 951.806Z" fill="#8B77E8"/>
<path d="M322.722 951.171L321.328 954.813L402.577 985.916L403.972 982.274L322.722 951.171Z" fill="#8B77E8"/>
<path d="M257.103 1017.79L255.709 1021.44L290.076 1034.59L291.471 1030.95L257.103 1017.79Z" fill="#8B77E8"/>
<path d="M708.787 825.594L708.174 829.445L746.493 835.545L747.106 831.693L708.787 825.594Z" fill="#8B77E8"/>
<path d="M722.673 759.895L722.063 763.747L723.545 763.981L724.155 760.129L722.673 759.895Z" fill="#B3A4F5"/>
<path d="M635.917 806.609L632.566 808.605L661.176 856.629L664.527 854.633L635.917 806.609Z" fill="#8B77E8"/>
<path d="M773.5 685.8L765.4 768.7L723.9 762L773.5 685.8Z" fill="#8B77E8"/>
<path d="M510.8 1452.6H506.9V1091.6L672.9 836.6L676.2 838.8L510.8 1092.8V1452.6Z" fill="#8B77E8"/>
<path d="M455.219 676.332L451.651 677.906L509.003 807.913L512.571 806.339L455.219 676.332Z" fill="#8B77E8"/>
<path d="M488.9 1394.5H485V1003.1L418.5 925.5L421.5 922.9L488.9 1001.7V1394.5Z" fill="#8B77E8"/>
<path d="M510.8 928.9H506.9V1047H510.8V928.9Z" fill="#8B77E8"/>
<path d="M343.724 787.964L339.866 788.532L344.511 820.091L348.369 819.523L343.724 787.964Z" fill="#8B77E8"/>
<path d="M771.817 684.694L717.247 768.494L720.515 770.622L775.085 686.822L771.817 684.694Z" fill="#8B77E8"/>
<path d="M618.601 1488.6H384.301V1492.5H618.601V1488.6Z" fill="#624AC9"/>
<path d="M750.7 1126.3C754.7 1125.3 758.7 1127.7 759.7 1131.7L765.7 1155.2H841.4L542.7 1011C536 1067 566.1 1118.1 612.9 1141.6L594 1067.6C593 1063.6 595.4 1059.6 599.4 1058.6C603.4 1057.6 607.4 1060 608.4 1064L630 1148.7C642.7 1152.9 656.4 1155.2 670.6 1155.2H750.4L745.3 1135.3C744.3 1131.3 746.7 1127.3 750.7 1126.3ZM664.2 1139.8C662.4 1140.2 660.7 1140 659.1 1139.3C657.2 1138.4 655.7 1136.7 655.1 1134.5L647.5 1104.7C646.5 1100.7 648.9 1096.7 652.9 1095.7C656.9 1094.7 660.9 1097.1 661.9 1101.1L669.5 1130.9C670.6 1134.7 668.2 1138.7 664.2 1139.8Z" fill="#B3A4F5"/>
<path d="M527.769 1001.73L526.073 1005.25L791.09 1133.21L792.786 1129.69L527.769 1001.73Z" fill="#8B77E8"/>
<path d="M1258.6 1310.7C1052.5 1310.7 884.9 1143.1 884.9 937C884.9 730.9 1052.5 563.3 1258.6 563.3C1344.5 563.3 1428.5 593.3 1495 647.8L1507.8 658.3L1496.7 670.5C1487.2 680.9 1477.6 691.6 1468.1 702.5L1458.2 713.9L1446.5 704.4C1393.5 661.5 1326.8 637.9 1258.7 637.9C1093.7 637.9 959.5 772.1 959.5 937.1C959.5 1102.1 1093.7 1236.3 1258.7 1236.3C1423.7 1236.3 1557.9 1102.1 1557.9 937.1C1557.9 884.5 1544 832.8 1517.7 787.5L1512.1 777.9L1519.4 769.4C1528.8 758.4 1538.7 747.2 1549.5 735.2L1563.3 719.8L1574.4 737.2C1612.4 797 1632.5 866.1 1632.5 937.1C1632.3 1143 1464.6 1310.7 1258.6 1310.7Z" fill="white"/>
<path d="M1561 745.5C1550.9 756.7 1541 768 1531.1 779.4C1558 825.8 1573.4 879.6 1573.4 936.9C1573.4 1110.5 1432.2 1251.8 1258.5 1251.8C1084.8 1251.8 943.7 1110.6 943.7 937C943.7 763.4 1084.9 622.1 1258.6 622.1C1333.4 622.1 1402.2 648.3 1456.3 692.1C1465.7 681.3 1475.3 670.6 1485.1 659.9C1423.4 609.3 1344.5 579 1258.6 579C1061.2 579 900.6 739.6 900.6 937C900.6 1134.4 1061.2 1295 1258.6 1295C1456 1295 1616.6 1134.4 1616.6 937C1616.6 866.6 1596.2 800.9 1561 745.5Z" fill="white"/>
<path d="M1148.5 1202.5L1135.4 1180.2C1134.8 1179.2 1077.9 1082.1 991 954.3L982.2 941.3L1056.8 890.6L1065.6 903.6C1117.9 980.5 1159.7 1046.7 1185.5 1088.6C1239.8 997 1379.8 775.5 1563.5 595.5L1574.7 584.5L1637.8 648.9L1626.6 659.9C1464.2 819.1 1319 1032.6 1237.4 1179.4L1224.5 1202.6H1148.5V1202.5Z" fill="white"/>
<path d="M1215.2 1186.8H1157.5L1149 1172.2C1148.4 1171.2 1091.1 1073.4 1004 945.4L1052.6 912.3C1115.6 1005 1163.4 1082.2 1185.7 1119.1C1272 969.2 1415 763 1574.4 606.7L1615.6 648.7C1452 809.1 1305.8 1024.1 1223.6 1171.8L1215.2 1186.8Z" fill="white"/>
<path d="M1561 745.5C1550.9 756.7 1541 768 1531.1 779.4C1558 825.8 1573.4 879.6 1573.4 936.9C1573.4 1110.5 1432.2 1251.8 1258.5 1251.8C1084.8 1251.8 943.7 1110.6 943.7 937C943.7 763.4 1084.9 622.1 1258.6 622.1C1333.4 622.1 1402.2 648.3 1456.3 692.1C1465.7 681.3 1475.3 670.6 1485.1 659.9C1423.4 609.3 1344.5 579 1258.6 579C1061.2 579 900.6 739.6 900.6 937C900.6 1134.4 1061.2 1295 1258.6 1295C1456 1295 1616.6 1134.4 1616.6 937C1616.6 866.6 1596.2 800.9 1561 745.5Z" fill="#FFA6CE"/>
<path d="M1215.2 1186.8H1157.5L1149 1172.2C1148.4 1171.2 1091.1 1073.4 1004 945.4L1052.6 912.3C1115.6 1005 1163.4 1082.2 1185.7 1119.1C1272 969.2 1415 763 1574.4 606.7L1615.6 648.7C1452 809.1 1305.8 1024.1 1223.6 1171.8L1215.2 1186.8Z" fill="#FFA6CE"/>
<path d="M1258.6 1296.9C1165.1 1296.9 1076.5 1261.1 1009.1 1196.1L1011.8 1193.3C1078.5 1257.6 1166.2 1293 1258.6 1293C1342.7 1293 1424.4 1263 1488.6 1208.5L1491.1 1211.5C1426.2 1266.6 1343.6 1296.9 1258.6 1296.9ZM1505 1199.2L1502.3 1196.3C1573.7 1129.2 1614.6 1034.6 1614.6 937C1614.6 870.2 1596 805.2 1560.7 748.8C1550.7 760 1541.5 770.4 1532.6 780.8L1529.6 778.2C1539 767.2 1548.8 756.1 1559.5 744.2L1561.2 742.3L1562.6 744.5C1599.2 802.1 1618.5 868.6 1618.5 937C1618.5 987.5 1608.2 1036.3 1587.9 1082.2C1568.4 1126.5 1540.4 1165.8 1505 1199.2ZM968.4 820L964.8 818.5C988.2 760.6 1027.9 711.3 1079.5 675.7C1132.4 639.3 1194.3 620.1 1258.6 620.1C1268.4 620.1 1278.2 620.6 1287.9 621.4L1287.5 625.3C1277.9 624.4 1268.2 624 1258.6 624C1130.4 624.1 1016.5 701 968.4 820ZM1395.3 655.6C1374.3 645.4 1352.2 637.5 1329.5 632.2L1330.4 628.4C1353.4 633.7 1375.8 641.7 1397 652.1L1395.3 655.6ZM1313 628.8C1308.4 628 1303.7 627.3 1299.1 626.7L1299.6 622.8C1304.3 623.4 1309 624.1 1313.7 625L1313 628.8Z" fill="#E5659B"/>
<path d="M1216.4 1188.8H1157.6V1184.9H1214.1L1221.9 1170.8C1304 1023.3 1419.3 860.6 1530.4 735.6L1533.3 738.2C1422.4 863 1307.3 1025.5 1225.3 1172.7L1216.4 1188.8Z" fill="#E5659B"/>
<path d="M1563.4 705.2L1560.5 702.5C1578 683.7 1595.6 665.6 1612.8 648.7L1573 608.1L1575.8 605.4L1618.4 648.8L1617 650.2C1599.3 667.4 1581.3 685.9 1563.4 705.2Z" fill="#E5659B"/>
<path d="M1184.1 1120.2C1165.9 1090.1 1127.7 1028.2 1077.2 952.4L1080.5 950.2C1131 1026.1 1169.2 1088 1187.5 1118.1L1184.1 1120.2Z" fill="#E5659B"/>
<path d="M1067.6 938.1C1062.2 930 1056.6 921.8 1051 913.5L1054.2 911.3C1059.9 919.6 1065.4 927.8 1070.8 935.9L1067.6 938.1Z" fill="#E5659B"/>
<path d="M2028.8 861.7L1994.6 857L2028.8 861.8V861.7Z" fill="#FFC7BD"/>
<path d="M2084.8 757.3C2085.1 756 2085.5 754.8 2085.9 753.5L2069.2 751.2C2069.2 752.5 2068.9 753.8 2068.5 755.1L2084.8 757.3Z" fill="#624AC9"/>
<path d="M1984.8 739.5L1984.3 743.4L2024.7 749C2023.9 747.7 2023.3 746.3 2023.1 744.8L1984.8 739.5Z" fill="#624AC9"/>
<path d="M2398.34 796.859L2397.8 800.722L2638.2 834.142L2638.73 830.279L2398.34 796.859Z" fill="#624AC9"/>
<path d="M2373.59 793.408L2373.05 797.271L2385.93 799.062L2386.47 795.198L2373.59 793.408Z" fill="#624AC9"/>
<path d="M2591.3 891.3L2600 829.2L2601.9 829.5L2490.7 814L2489 826.3L2482 876.1L2591.3 891.3Z" fill="#FF809F"/>
<path d="M2232.4 802.6C2230.9 807 2229 811.2 2226.7 815.2C2226 818.2 2225.7 821.7 2226 825.5C2226.4 831.9 2227.7 836.9 2229.5 841L2445.3 871L2453.9 808.9L2236.6 778.7C2236.5 786.2 2235.3 793.4 2233.1 800.3C2232.9 801 2232.6 801.8 2232.4 802.6Z" fill="#FFC359"/>
<path d="M2078.2 791.2L2076.6 802.9L1797.9 764.1L1795.6 780.6L2094.5 822.2C2094.3 820.6 2094 819.1 2093.7 817.6C2091.3 813.7 2089.2 809.5 2087.5 805.2C2087.2 804.4 2086.9 803.7 2086.7 803C2084 795.3 2082.4 787.1 2082.3 778.6C2082.2 771.3 2083.1 764.3 2084.8 757.6L2068.5 755.3C2068.3 755.8 2068.1 756.4 2067.8 756.9C2064.4 763.7 2056.1 766.4 2049.3 762.9L2028.3 752.2C2026.8 751.5 2025.7 750.4 2024.8 749.1L1804.2 718.4L1799.5 752.3L2078.2 791.2Z" fill="#FFC359"/>
<path d="M1703.3 767.8L1707.5 737.7L1709.5 738L1682.2 734.2L1678 764.3L1703.3 767.8Z" fill="#8B77E8"/>
<path d="M1707.2 768.4L1791.7 780.2L1794 763.7L1771.3 760.5L1772.9 748.8L1795.6 752L1800.2 718.8L1709.4 738.1L1711.3 738.4L1707.2 768.4ZM1750.3 745.6L1762.1 747.2L1760.5 758.9L1748.7 757.3L1750.3 745.6Z" fill="#8B77E8"/>
<path d="M1625.4 728.9L1625.1 726.3L1625 726L1621.1 726.6L1628.6 777.4L1658.2 781.5L1658.7 777.6L1632 773.9L1625.4 728.9Z" fill="white"/>
<path d="M1625.4 728.9L1629.3 728.3L1633.7 758.1L1674.1 763.8L1678.3 733.7L1625.1 726.3L1625.4 728.9Z" fill="#E5659B"/>
<path d="M2299.4 899.525L2298.86 903.388L2536.39 936.408L2536.92 932.545L2299.4 899.525Z" fill="#624AC9"/>
<path d="M2591.3 891.3L2482 876.1L2476.8 914.1L2475.4 923.8L2586.6 939.3L2584.7 939L2591.3 891.3Z" fill="#E5659B"/>
<path d="M2229.5 841C2236.3 856.2 2250.3 860.3 2251.7 883.9C2251.9 887.2 2251.9 890.1 2251.8 892.8L2438.7 918.8L2445.3 871.1L2229.5 841Z" fill="#FFAA45"/>
<path d="M2031.9 862.1L2054 863.4L2064.3 864L2077.6 864.8C2084.4 854.1 2094.3 847.7 2094.7 827.8C2094.7 825.8 2094.6 823.9 2094.4 822.1L1795.5 780.5L1788.9 828.2L1994.5 856.8L2028.7 861.6L2031.9 862.1Z" fill="#FFAA45"/>
<path d="M1678.05 764.323L1675.87 779.973L1701.23 783.5L1703.41 767.85L1678.05 764.323Z" fill="#624AC9"/>
<path d="M1707.2 768.4L1705 784L1703.1 783.8L1785.2 827.1L1791.7 780.1L1707.2 768.4Z" fill="#624AC9"/>
<path d="M1633.7 758.1L1635.5 770.4L1672.4 775.5L1671.9 779.4L1668.5 779L1671.9 779.4L1674.1 763.8L1633.7 758.1Z" fill="#BF307B"/>
<path d="M2595.2 891.8L2630 896.7L2623.4 944.4L2638.7 834.6L2603.8 829.7L2595.2 891.8Z" fill="#8B77E8"/>
<path d="M2445.3 871L2438.6 918.7L2475.4 923.8L2482 876.1L2445.3 871Z" fill="#DDD6FF"/>
<path d="M2454.11 808.831L2445.47 870.935L2482.21 876.051L2490.86 813.947L2454.11 808.831Z" fill="white"/>
<path d="M2489 826.3L2490.7 814L2482 876.1L2475.4 923.8L2476.8 914.1L2482 876.1L2489 826.3Z" fill="#8B77E8"/>
<path d="M2595.2 891.8L2603.8 829.7L2601.9 829.5L2600 829.2L2591.3 891.3L2584.7 939L2586.6 939.3L2587.4 939.4L2623.4 944.4L2630 896.7L2595.2 891.8Z" fill="#624AC9"/>
<path d="M1682.2 734.2L1678.3 733.7L1674.1 763.8L1671.9 779.4L1675.8 780L1678 764.3L1682.2 734.2Z" fill="#4F37B3"/>
<path d="M1707.2 768.4L1711.4 738.3L1709.5 738L1707.5 737.7L1703.3 767.8L1701.1 783.5L1703.1 783.8L1705 784L1707.2 768.4Z" fill="#4F37B3"/>
<path d="M1750.35 745.576L1748.72 757.264L1760.51 758.903L1762.14 747.215L1750.35 745.576Z" fill="white"/>
<path d="M1797.9 764.1L2076.6 802.9L2078.2 791.2L1799.5 752.5L1804.3 718.6V718.5L1802.3 718.3L1800.4 718L1800.3 718.7L1795.7 751.9L1773 748.8L1771.4 760.4L1794 763.6L1791.7 780.1L1785.2 827.1L1785.1 827.8L1787 828.1L1789 828.4L1795.6 780.6L1797.9 764.1Z" fill="white"/>
<path d="M1796.06 829.298L1795.52 833.161L1813.65 835.681L1814.19 831.818L1796.06 829.298Z" fill="#624AC9"/>
<path d="M1672.4 775.5L1635.5 770.4L1633.7 758.1L1629.3 728.3L1625.4 728.9L1632 773.9L1658.7 777.6L1668.5 779L1671.9 779.4L1672.4 775.5Z" fill="#4F37B3"/>
<path d="M2075.2 1118.1C2075.2 1118 2075.2 1118 2075.2 1117.9L2125 1576.8H2125.1H2150.6C2150.6 1576.6 2150.6 1576.4 2150.6 1576.2L2137.5 1282.4H2093L2075.2 1118.1Z" fill="#FF95A9"/>
<path d="M2125 1576.9L2112.1 1584.3C2110.4 1585.3 2109.4 1587.1 2109.4 1589C2109.4 1592 2111.8 1594.5 2114.9 1594.5H2150.6V1576.9H2125V1576.9Z" fill="#40327A"/>
<path d="M2074.7 910.8C2075 911.7 2075.3 912.5 2075.7 913.4L2076.7 911.2L2074.7 910.8Z" fill="#40327A"/>
<path d="M2227.7 1062L2222.2 1067.8C2241.4 1060.6 2256.3 1044.9 2262.5 1025.3L2227.7 1062Z" fill="#40327A"/>
<path d="M2198.1 1058.4L2203.2 1058.6L2210.9 1048.1L2258.9 982.2C2257.1 979.3 2255.1 976.6 2253.2 973.9C2248.1 967 2243.1 960.3 2241.3 951.3L2213.1 932.4L2178.7 1038.6L2182.9 1041.9C2188.9 1046.5 2194 1052.1 2198.1 1058.4Z" fill="#40327A"/>
<path d="M2086.8 1037.9C2086.8 1036.9 2086.8 1035.9 2086.9 1034.8L2088.3 968.7C2085.4 968.2 2082.7 967.2 2080.1 965.9C2078.1 969.8 2075.6 973.4 2073.1 977.1C2067.3 985.6 2061.5 994.4 2061.7 1007.4C2062 1025.2 2069.2 1041.2 2080.7 1053C2082.3 1047.9 2084.4 1042.8 2086.8 1037.9Z" fill="#40327A"/>
<path d="M2251.7 883.8C2250.3 860.2 2236.3 856.2 2229.5 840.9C2227.6 836.8 2226.3 831.8 2226 825.4C2225.8 821.5 2226.1 818.1 2226.7 815.1C2229 811.1 2230.9 806.9 2232.4 802.5C2232.7 801.7 2232.9 801 2233.2 800.2C2235.4 793.3 2236.6 786.1 2236.7 778.6C2236.7 777.6 2236.7 776.6 2236.7 775.6C2235.9 733 2200.7 699 2158.1 699.8C2124.2 700.4 2095.8 722.8 2086 753.4C2085.6 754.7 2085.2 755.9 2084.9 757.2C2084.9 757.3 2084.9 757.3 2084.8 757.4C2083 764.1 2082.1 771.2 2082.3 778.4C2082.5 786.9 2084 795.2 2086.7 802.8C2087 803.6 2087.2 804.3 2087.5 805C2089.2 809.3 2091.3 813.5 2093.7 817.4C2094.1 818.8 2094.3 820.4 2094.5 822C2094.7 823.8 2094.8 825.7 2094.8 827.7C2094.4 847.6 2084.5 853.9 2077.7 864.7L2116.9 867C2117 867 2117 867 2117.1 867H2117.5C2117.6 867 2117.6 867 2117.7 867L2128.3 867.7C2128.3 867.2 2128.4 866.7 2128.4 866.3L2132.8 833.2L2130.2 832.9C2112 830.5 2099.7 813.2 2103.3 795.2L2113.3 744.8C2126.8 748.1 2139.2 755 2149.2 764.8C2158.5 774 2170.5 779.9 2183.4 781.6L2185.3 781.9C2190.7 782.6 2194.4 787.6 2193.7 792.9C2193 798.3 2188 802 2182.7 801.3L2180.8 801L2175.7 838.9H2175.6L2171.3 870.5L2179.4 871L2190.8 871.8L2211.7 873.2C2212.5 873.3 2213.2 873.4 2214 873.5C2217.3 874.1 2220.5 875.4 2223.4 877.4C2224.3 878 2225.2 878.7 2226 879.4L2250.8 901.1C2251.3 898.5 2251.7 895.6 2251.9 892.3C2251.9 890 2251.9 887.1 2251.7 883.8Z" fill="#40327A"/>
<path d="M2179.3 871.4L2171.2 870.9L2179.3 871.4Z" fill="#FFC7BD"/>
<path d="M2188.4 1084.7C2187 1085.1 2185.5 1085.3 2183.9 1085.3C2176.3 1085 2170.4 1078.7 2170.7 1071.1C2171 1063.5 2177.3 1057.6 2184.9 1057.9L2198.1 1058.4C2194 1052.1 2188.9 1046.5 2182.9 1041.8L2178.7 1038.5L2178 1038H2127.1H2086.8C2084.4 1042.9 2082.4 1047.9 2080.7 1053.1C2077 1064.4 2075.1 1076.2 2075.1 1088.2V1115C2075.1 1115.7 2075.2 1116.4 2075.2 1117.1L2075.3 1117.6C2075.3 1117.7 2075.3 1117.9 2075.3 1118C2075.3 1118.1 2075.3 1118.1 2075.3 1118.2L2093.1 1282.6H2137.5H2203.3H2247L2216 1133L2218.2 1132.5L2207.8 1081.8C2207.6 1080.9 2207.4 1080 2207.2 1079.1L2188.4 1084.7Z" fill="#8B77E8"/>
<path d="M2225.9 879.8C2225.1 879.1 2224.2 878.4 2223.3 877.8C2220.4 875.8 2217.2 874.6 2213.9 873.9C2213.2 873.7 2212.4 873.6 2211.6 873.6L2190.7 872.2L2118.7 912.8L2121.7 867.5L2128.1 867.9L2117.5 867.2C2117.4 867.2 2117.4 867.2 2117.3 867.2H2116.9C2116.8 867.2 2116.8 867.2 2116.7 867.2L2077.5 864.9L2064.2 864.1L2064 868L2031 866L1993.6 860.8L1990.2 874.9C1987.8 884.8 1993.9 894.8 2003.9 897.2C2004.2 897.3 2004.5 897.3 2004.7 897.4L2074.6 910.8L2076.6 911.2L2078.6 906.9L2082.2 908.5L2071.6 931.9C2070.4 934.5 2069.7 937.3 2069.5 940.1C2068.6 953 2078.5 964.3 2091.4 965.1C2095.2 965.4 2098.8 964.7 2102.2 963.2L2103.8 966.8C2100.4 968.3 2096.7 969 2093 969C2092.4 969 2091.7 969 2091.1 968.9C2090.1 968.8 2089.2 968.7 2088.3 968.6L2086.9 1034.7C2086.8 1035.7 2086.8 1036.8 2086.8 1037.8H2127.1H2178L2178.7 1038.3L2213.1 932.1L2241.3 951L2268.3 969.1L2258.9 981.9L2210.9 1047.8L2227.7 1061.8L2262.5 1025.2L2308 977.2C2308.5 976.6 2309.1 976 2309.6 975.4C2315.3 967.6 2314 956.8 2306.9 950.6L2250.8 901.4L2225.9 879.8ZM2081.8 900L2085.1 892.7L2088.7 894.3L2085.4 901.6L2081.8 900Z" fill="#FFC7BD"/>
<path d="M2210.9 1048L2203.2 1058.5L2198.1 1058.3L2184.9 1057.8C2177.3 1057.5 2171 1063.5 2170.7 1071C2170.4 1078.6 2176.4 1084.9 2183.9 1085.2C2185.5 1085.3 2187 1085 2188.4 1084.6L2207.1 1078.9L2210.9 1077.8C2212.5 1077.3 2214 1076.4 2215.1 1075.2L2222.1 1067.8L2227.6 1062L2210.9 1048Z" fill="#FF95A9"/>
<path d="M2126.4 816C2132.3 816.9 2137.8 812.9 2138.7 807L2117.4 803.7C2116.4 809.5 2120.5 815.1 2126.4 816Z" fill="white"/>
<path d="M2028.4 752.3L2049.4 763C2056.2 766.4 2064.4 763.7 2067.9 757C2068.2 756.5 2068.4 755.9 2068.6 755.4C2068.6 755.3 2068.6 755.3 2068.7 755.2C2069.1 753.9 2069.4 752.6 2069.4 751.3C2069.6 746.1 2066.8 741.1 2061.9 738.6C2060.5 737.9 2059.1 737.5 2057.6 737.3L2034.3 734C2030.3 733.4 2026.2 735.4 2024.2 739.2C2023.3 741 2023 743 2023.2 744.9C2023.4 746.4 2024 747.8 2024.8 749.1C2024.9 749.2 2024.9 749.3 2025 749.4C2025.7 750.5 2026.9 751.5 2028.4 752.3Z" fill="#FF95A9"/>
<path d="M2121.7 867.6L2118.7 912.9L2190.7 872.3L2179.3 871.5L2171.2 871L2175.5 839.4H2175.6L2180.7 801.5L2182.6 801.8C2188 802.5 2192.9 798.8 2193.6 793.4C2194.3 788 2190.6 783.1 2185.2 782.4L2183.3 782.1C2170.4 780.4 2158.4 774.5 2149.1 765.3C2139.2 755.4 2126.7 748.6 2113.2 745.3L2103.2 795.7C2099.6 813.7 2112 830.9 2130.1 833.4L2132.7 833.7L2128.3 866.8C2128.2 867.3 2128.2 867.8 2128.2 868.2L2121.7 867.6ZM2126.4 816C2120.5 815.1 2116.5 809.6 2117.4 803.7L2138.7 807C2137.8 812.9 2132.2 816.9 2126.4 816Z" fill="#FF95A9"/>
<path d="M2031.4 862.1H2031.5L2054 863.5L2031.9 862.1H2031.4Z" fill="#FFC7BD"/>
<path d="M2085.18 892.663L2081.82 900.03L2085.36 901.652L2088.73 894.285L2085.18 892.663Z" fill="#FF95A9"/>
<path d="M2091.1 969.1C2091.7 969.1 2092.4 969.2 2093 969.2C2096.7 969.2 2100.3 968.5 2103.8 967L2102.2 963.4C2098.8 964.9 2095.1 965.5 2091.4 965.3C2078.5 964.4 2068.6 953.2 2069.5 940.3C2069.7 937.5 2070.4 934.7 2071.6 932.1L2082.2 908.7L2078.6 907.1L2076.6 911.4L2075.6 913.6L2067.9 930.5L2067.1 932.3H2067.2C2066.3 934.8 2065.7 937.4 2065.5 940C2064.8 951.1 2070.8 961.2 2080.1 966.1C2082.6 967.4 2085.3 968.4 2088.3 968.9C2089.2 968.9 2090.1 969.1 2091.1 969.1Z" fill="#FF95A9"/>
<path d="M2246.9 1282.5H2203.2L2283.9 1578.6V1576.9H2309.4C2309.4 1576 2309.3 1575.2 2309.1 1574.3L2292.1 1491.6L2290.2 1492L2286.2 1472.5L2288.1 1472.1L2285.9 1461.2L2284 1461.6L2246.9 1282.5Z" fill="#FF95A9"/>
<path d="M2218.2 1132.4L2207.7 1081.7L2218.2 1132.4Z" fill="#FF95A9"/>
<path d="M2283.9 1576.9V1578.6V1594.5H2319.6C2322.6 1594.5 2325.1 1592.1 2325.1 1589C2325.1 1587 2324.1 1585.2 2322.4 1584.3L2309.5 1576.9H2283.9Z" fill="#40327A"/>
<path d="M2215.9 1132.9L2246.9 1282.5L2283.9 1461.6L2285.8 1461.2L2287.8 1460.8L2219.8 1132.1L2218.2 1132.4L2215.9 1132.9Z" fill="#7760DB"/>
<path d="M2290.2 1492L2292.1 1491.6L2294 1491.2L2290 1471.7L2288.1 1472.1L2286.2 1472.5L2290.2 1492Z" fill="#7760DB"/>
<path d="M2031.1 866L2064.1 868L2064.3 864.1L2054 863.5L2031.5 862.1H2031.4L2028.8 861.8L1994.6 857L1843.3 835.9L1842.7 839.8L1993.7 860.8L2031.1 866Z" fill="#624AC9"/>
</g>
</g>
<defs>
<clipPath id="clip0_2_2720">
<rect width="3000" height="2000" fill="white"/>
</clipPath>
<clipPath id="clip1_2_2720">
<rect width="3000" height="1758.8" fill="white" transform="translate(-164 121)"/>
</clipPath>
</defs>
</svg>
