<svg width="3000" height="2000" viewBox="0 0 3000 2000" fill="none" xmlns="http://www.w3.org/2000/svg">
<rect width="3000" height="2000" fill="white"/>
<path d="M3000 117H0V1883.4H3000V117Z" fill="white"/>
<path d="M654.6 1191.1L651.8 1186.2C655.1 1184.3 658.5 1182.3 661.7 1180.2L664.7 1184.9C661.5 1187.1 658.1 1189.2 654.6 1191.1Z" fill="#8B77E8"/>
<path d="M683.1 1171.6L679.5 1167.3C725.1 1130 751.2 1074.9 751.2 1016.1C751.2 908.4 663.6 820.8 555.9 820.8C449.6 820.8 361.9 907.3 360.6 1013.6L355 1013.5C355.7 960.4 376.9 910.5 414.7 873.2C452.6 835.8 502.7 815.2 555.9 815.2C666.7 815.2 756.8 905.3 756.8 1016.1C756.8 1076.6 729.9 1133.3 683.1 1171.6Z" fill="#8B77E8"/>
<path d="M555.9 1217C478.3 1217 406.9 1171.6 373.9 1101.3L379 1098.9C411 1167.2 480.5 1211.4 555.9 1211.4C569.1 1211.4 582.3 1210.1 595.2 1207.4L596.3 1212.9C583.1 1215.6 569.5 1217 555.9 1217Z" fill="#8B77E8"/>
<path d="M686 828.4C680.1 824.3 673.9 820.4 667.6 816.8L692.5 772.5C700.2 776.8 707.8 781.6 715 786.6L686 828.4Z" fill="#E9E6FF"/>
<path d="M653.2 809.5C623.3 795.4 591.2 788.1 557.8 787.8L558.2 737C599 737.3 638.2 746.3 674.9 763.5L653.2 809.5Z" fill="#E9E6FF"/>
<path d="M527.2 789.5L520.9 739.1C523.8 738.7 526.7 738.4 529.6 738.1L534.3 788.7C532 789 529.6 789.2 527.2 789.5Z" fill="#E9E6FF"/>
<path d="M308.7 1145.9C287.8 1106.2 276.7 1061.3 276.7 1016.1C276.7 962.4 292 910.3 320.9 865.3C349 821.5 388.7 786.6 435.5 764.2L457.4 810C378.5 847.8 327.5 928.7 327.5 1016.1C327.5 1053.1 336.5 1089.8 353.6 1122.3L308.7 1145.9Z" fill="#E9E6FF"/>
<path d="M369.7 1224C357.5 1213.1 346.2 1201 336.1 1188.1L376.1 1156.8C384.4 1167.3 393.6 1177.2 403.6 1186.2L369.7 1224Z" fill="#E9E6FF"/>
<path d="M401.2 1248.4C397.1 1245.6 392.9 1242.7 388.9 1239.7L419.3 1199C422.6 1201.5 426 1203.9 429.4 1206.1L401.2 1248.4Z" fill="#E9E6FF"/>
<path d="M665.219 1125.41C725.594 1065.03 725.594 967.148 665.219 906.774C604.845 846.399 506.959 846.399 446.584 906.774C386.21 967.148 386.21 1065.03 446.584 1125.41C506.958 1185.78 604.845 1185.78 665.219 1125.41Z" fill="#FFD2CA"/>
<path d="M615.4 942.1C613 940.2 610.5 938.4 608 936.7C592.5 926.5 574.5 921.1 556 921.1V915.5C575.6 915.5 594.7 921.2 611.1 932C613.8 933.8 616.4 935.7 619 937.7L615.4 942.1Z" fill="white"/>
<path d="M635.6 1077.3L631.2 1073.9C642.2 1059.6 648.9 1042.5 650.5 1024.6C650.8 1021.9 650.9 1019 650.9 1016.1C650.9 992.1 641.9 969.1 625.5 951.5L629.6 947.7C646.9 966.4 656.5 990.7 656.5 1016.1C656.5 1019.2 656.4 1022.3 656.1 1025.2C654.3 1044.1 647.3 1062.1 635.6 1077.3Z" fill="white"/>
<path d="M625.5 1013.5C624.1 975.9 593.6 946.4 555.9 946.4V940.8C596.6 940.8 629.6 972.6 631.1 1013.3L625.5 1013.5Z" fill="white"/>
<path d="M615.6 1061.9L611.2 1058.5C618.3 1049.3 623 1038.4 624.8 1027L630.3 1027.9C628.3 1040.2 623.2 1052 615.6 1061.9Z" fill="white"/>
<path d="M549.8 1112C554.2 1116.7 559.6 1120.4 565.5 1122.9C578.8 1128.6 594 1127.8 606.6 1120.8L620.7 1113.1L591.2 1059.5L575.5 1065.1C569.1 1067.4 562 1067.2 555.8 1064.4C550.4 1062 545.9 1057.9 543 1052.7L518.7 1008.4C515.8 1003.2 514.8 997.2 515.7 991.3C516.8 984.6 520.3 978.5 525.7 974.3L538.9 964L509.4 910.4L495.3 918.1C482.6 925.1 473.9 937.5 471.5 951.7C470.5 958.1 470.7 964.6 472.3 970.8C485.5 1023.9 512.3 1072.5 549.8 1112Z" fill="white"/>
<path d="M1978 1091.1C1979.3 1079.2 1985.2 1068.9 1993.7 1061.7L1990.4 1057.8C1980.5 1066.1 1974.3 1077.8 1972.9 1090.6C1971.8 1100.7 1973.8 1110.7 1978.6 1119.6L1983.2 1117.1C1979 1109.4 1977 1100.5 1978 1091.1Z" fill="white"/>
<path d="M2046.4 1107.9C2043.5 1108.5 2040.5 1108.8 2037.4 1108.5C2020.4 1107.2 2007.6 1092.3 2009 1075.2L2010.8 1052.4C2012 1037.4 2023.7 1025.7 2038.1 1024.1L2041 987.8C2041.9 976.7 2045.7 966.6 2051.6 958C2023.7 972.8 2003.5 1000.8 1999.9 1034.5C1999.1 1042.2 1999.2 1049.8 2000.1 1057.2C1997.9 1058.5 1995.8 1059.9 1993.9 1061.6C1985.4 1068.8 1979.5 1079.1 1978.2 1091C1977.2 1100.3 1979.2 1109.3 1983.3 1117C1990.1 1129.5 2002.6 1138.6 2017.8 1140.2C2026.9 1141.2 2035.7 1139.3 2043.2 1135.4C2043.3 1135.3 2043.4 1135.3 2043.5 1135.2L2046.4 1107.9Z" fill="#40327A"/>
<path d="M2195.8 1055.7C2194.4 1069 2187.7 1080.4 2178.1 1088.2L2181.3 1092.2C2192.4 1083.2 2199.4 1070.5 2200.9 1056.3C2204 1027.3 2194.8 998.2 2175.5 976.4L2171.6 979.9C2189.3 999.9 2198.9 1027 2195.8 1055.7Z" fill="white"/>
<path d="M2108.3 947.2C2098.4 946.1 2088.7 946.6 2079.4 948.3C2064.4 955.9 2053.5 970.8 2052.1 988.7L2049.3 1024.9C2063.6 1028.5 2073.7 1042 2072.5 1057.3L2070.7 1080.1C2070.2 1087 2067.4 1093.1 2063.2 1097.9L2066.2 1102.1C2071.6 1096.3 2075 1088.8 2075.7 1080.5L2076.5 1070.4L2077.4 1059.3C2087.3 1057.4 2096.9 1053.8 2105.7 1048.5C2123.2 1038 2143.1 1032.6 2163.3 1032.6L2160.4 1097.1C2166.9 1095.3 2173 1092.3 2178.2 1088.1C2187.8 1080.3 2194.5 1068.9 2195.9 1055.6C2199 1026.9 2189.4 999.8 2171.7 979.7C2167.1 974.5 2161.9 969.8 2156.2 965.6C2148.4 959.8 2139.6 955.2 2130.2 951.9C2123.2 949.7 2115.9 948 2108.3 947.2Z" fill="#40327A"/>
<path d="M2140 1110.6L2107.1 1107C2108.4 1114.3 2114.4 1120.3 2122.2 1121.1C2130 1121.9 2137.2 1117.5 2140 1110.6Z" fill="white"/>
<path d="M2046.7 1107.9L2047.8 1112.7C2052.2 1111.7 2056.2 1109.9 2059.7 1107.6L2056.8 1103.5C2053.8 1105.5 2050.4 1107 2046.7 1107.9Z" fill="#40327A"/>
<path d="M2053.5 1084.4C2056.1 1081.3 2057.7 1077.4 2058.1 1073L2059.3 1057.9C2060.2 1046.6 2051.7 1036.7 2040.4 1035.8C2029.1 1034.9 2019.2 1043.4 2018.3 1054.7L2017.1 1069.8C2016.2 1081.1 2024.7 1091 2036 1091.9C2039.9 1092.2 2043.7 1091.4 2047 1089.7L2056.9 1103.5L2059.8 1107.6L2063.7 1113.1C2069.9 1121.8 2079.6 1127.7 2090.1 1129.3L2107.1 1131.9L2108.4 1123.6L2091.4 1121C2083.1 1119.7 2075.4 1115.1 2070.5 1108.2L2066.1 1102.1L2063.1 1097.9L2053.5 1084.4Z" fill="white"/>
<path d="M2038.1 1024.2C2023.7 1025.8 2012 1037.5 2010.8 1052.5L2009 1075.3C2007.7 1092.3 2020.4 1107.2 2037.4 1108.6C2040.5 1108.8 2043.5 1108.6 2046.4 1108C2046.5 1108 2046.6 1108 2046.7 1107.9C2050.4 1107.1 2053.8 1105.6 2056.8 1103.5L2046.9 1089.7C2043.6 1091.4 2039.9 1092.2 2035.9 1091.9C2024.6 1091 2016.1 1081.1 2017 1069.8L2018.2 1054.7C2019.1 1043.4 2029 1034.9 2040.3 1035.8C2051.6 1036.7 2060.1 1046.6 2059.2 1057.9L2058 1073C2057.7 1077.3 2056 1081.2 2053.4 1084.4L2063.1 1097.9C2067.3 1093.1 2070.1 1086.9 2070.6 1080.1L2072.4 1057.3C2073.6 1042.1 2063.5 1028.6 2049.2 1024.9L2052 988.7C2053.4 970.7 2064.3 955.8 2079.3 948.3C2087.1 944.4 2096 942.4 2105.4 943.1C2114.4 943.8 2122.9 946.9 2130.1 952C2139.5 955.3 2148.3 959.9 2156.1 965.7C2153.9 961.2 2151.2 957 2147.8 953.1C2137.2 940.7 2122.5 933.2 2106.3 932C2083.9 930.2 2063.4 940.9 2051.5 958.1C2045.6 966.6 2041.8 976.8 2040.9 987.9L2038.1 1024.2Z" fill="#B3A4F5"/>
<path d="M2152.7 1210C2152.5 1209.6 2152.3 1209.2 2152.1 1208.8C2152.3 1209.1 2152.4 1209.4 2152.6 1209.7C2152.5 1209.8 2152.6 1209.9 2152.7 1210Z" fill="#FF95A9"/>
<path d="M2154.1 1213.3C2153.9 1212.8 2153.7 1212.4 2153.5 1211.9C2153.6 1212.2 2153.8 1212.5 2153.9 1212.9C2154 1213 2154.1 1213.1 2154.1 1213.3Z" fill="#FF95A9"/>
<path d="M2141 1196.6C2140.7 1196.4 2140.4 1196.2 2140 1196C2140.2 1196.1 2140.3 1196.2 2140.5 1196.3C2140.6 1196.4 2140.8 1196.5 2141 1196.6Z" fill="#FF95A9"/>
<path d="M2148.8 1204C2148.6 1203.7 2148.3 1203.4 2148.1 1203.1C2148.3 1203.3 2148.5 1203.6 2148.7 1203.8C2148.7 1203.9 2148.8 1203.9 2148.8 1204Z" fill="#FF95A9"/>
<path d="M2137.9 1194.7C2137.5 1194.5 2137.1 1194.3 2136.7 1194.1C2136.8 1194.2 2136.9 1194.2 2137.1 1194.3C2137.4 1194.5 2137.7 1194.6 2137.9 1194.7Z" fill="#FF95A9"/>
<path d="M2146.4 1201.3C2146.2 1201.1 2145.9 1200.8 2145.7 1200.6C2145.9 1200.8 2146.1 1201 2146.3 1201.2C2146.3 1201.2 2146.4 1201.2 2146.4 1201.3Z" fill="#FF95A9"/>
<path d="M2150.9 1206.9C2150.7 1206.6 2150.5 1206.2 2150.2 1205.9C2150.4 1206.2 2150.5 1206.4 2150.7 1206.7C2150.8 1206.7 2150.8 1206.8 2150.9 1206.9Z" fill="#FF95A9"/>
<path d="M2127.7 1190.9C2127.4 1190.8 2127 1190.8 2126.7 1190.7C2126.8 1190.7 2126.8 1190.7 2126.9 1190.7C2127.2 1190.8 2127.5 1190.9 2127.7 1190.9Z" fill="#FF95A9"/>
<path d="M2143.8 1198.8C2143.5 1198.6 2143.3 1198.3 2143 1198.1C2143.2 1198.2 2143.4 1198.4 2143.5 1198.6C2143.6 1198.7 2143.7 1198.8 2143.8 1198.8Z" fill="#FF95A9"/>
<path d="M2131.3 1191.9C2130.9 1191.8 2130.5 1191.7 2130.1 1191.6C2130.2 1191.6 2130.3 1191.7 2130.4 1191.7C2130.7 1191.7 2131 1191.8 2131.3 1191.9Z" fill="#FF95A9"/>
<path d="M2121 1190.2C2120.7 1190.2 2120.5 1190.2 2120.2 1190.2C2120.5 1190.1 2120.7 1190.2 2121 1190.2Z" fill="#FF95A9"/>
<path d="M2134.7 1193.1C2134.3 1192.9 2133.9 1192.8 2133.4 1192.6C2133.5 1192.6 2133.6 1192.7 2133.7 1192.7C2134.1 1192.9 2134.4 1193 2134.7 1193.1Z" fill="#FF95A9"/>
<path d="M2156.6 1223.8C2156.6 1223.3 2156.5 1222.8 2156.5 1222.3C2156.5 1222.8 2156.5 1223.3 2156.6 1223.8Z" fill="#FF95A9"/>
<path d="M2155.2 1216.2C2155.2 1216.3 2155.3 1216.5 2155.3 1216.6C2155.2 1216.4 2155.2 1216.1 2155.1 1215.9C2155 1215.6 2154.9 1215.3 2154.8 1215.1C2154.9 1215.5 2155 1215.9 2155.2 1216.2Z" fill="#FF95A9"/>
<path d="M2155.8 1218.6C2155.9 1219.1 2156 1219.6 2156.1 1220.1C2156.1 1220.2 2156.1 1220.2 2156.1 1220.3C2156 1219.7 2155.9 1219.1 2155.8 1218.6Z" fill="#FF95A9"/>
<path d="M1958.9 1549.5C1959 1548 1959.2 1546.6 1959.4 1545.1C1959.5 1544 1959.7 1542.9 1959.8 1541.8C1962.2 1524 1967.2 1506.7 1974.7 1490.5L1969.6 1488.2C1958.5 1512.7 1952.5 1539.4 1952.5 1566.3H1958.1C1958.1 1563.4 1958.2 1560.6 1958.3 1557.8C1958.4 1556.7 1958.4 1555.6 1958.5 1554.5C1958.6 1552.8 1958.8 1551.1 1958.9 1549.5Z" fill="white"/>
<path d="M2073.9 1550.2H2163.2C2163.7 1547.7 2164 1545.1 2164 1542.4V1504C2164 1479.1 2158.2 1454.5 2147.2 1432.2H2089.5H2016.8C2011.2 1437.4 2006 1442.9 2001.1 1448.7L2086.5 1504.9L2105.7 1517.5L2132.7 1511.5C2134.8 1511 2136.9 1510.9 2139.1 1511.1C2149.9 1512.3 2157.6 1522 2156.4 1532.8C2155.2 1543.6 2145.5 1551.3 2134.7 1550.1L2101.3 1546.4C2099.8 1546.2 2098.5 1545.8 2097.2 1545.2V1545.3L2068.4 1532.4L1974.6 1490.5C1967.2 1506.7 1962.2 1524 1959.7 1541.8C1959.6 1542.9 1959.4 1544 1959.3 1545.1C1959.1 1546.6 1959 1548 1958.8 1549.5C1958.6 1551.1 1958.5 1552.8 1958.4 1554.4C1958.3 1555.5 1958.2 1556.6 1958.2 1557.7C1958.1 1560.5 1958 1563.4 1958 1566.2V1581.5C1958 1581.5 1989.7 1581.5 2011.4 1581.5H2124.6C2137.9 1581.5 2149.7 1574.8 2156.8 1564.7H2073.7V1550.2H2073.9Z" fill="#7760DB"/>
<path d="M2163.2 1550.2H2073.9V1564.8H2156.9H2233.8L2236.9 1550.2H2163.2Z" fill="#40327A"/>
<path d="M2292.8 1344.4H2279.2L2256.1 1456.6L2246.2 1505L2236.9 1550.2L2233.8 1564.8H2247.4L2292.8 1344.4Z" fill="white"/>
<path d="M2568.9 1489.4L2598.2 1347.3H2292.8V1344.5L2247.4 1564.8L2563.5 1515.5L2564.9 1508.7L2567.6 1509.3L2571.6 1490L2568.9 1489.4ZM2447.1 1454.6C2444.5 1467 2432.4 1477.1 2419.9 1477.1C2407.4 1477.1 2399.5 1467 2402 1454.6C2404.6 1442.2 2416.7 1432.1 2429.2 1432.1C2441.6 1432.1 2449.6 1442.2 2447.1 1454.6Z" fill="#B3A4F5"/>
<path d="M2563.5 1515.5L2247.4 1564.8H2528.6H2545.3H2556.3L2562.8 1533.2L2560 1532.6L2563.5 1515.5Z" fill="#DDD6FF"/>
<path d="M2429.2 1432.1C2416.8 1432.1 2404.6 1442.2 2402 1454.6C2399.4 1467 2407.4 1477.1 2419.9 1477.1C2432.4 1477.1 2444.5 1467 2447.1 1454.6C2449.6 1442.2 2441.6 1432.1 2429.2 1432.1Z" fill="white"/>
<path d="M2598.2 1347.2L2568.9 1489.4L2571.7 1489.9L2574.4 1490.5L2605.1 1341.6H2292.8V1344.4V1347.2H2598.2Z" fill="#8B77E8"/>
<path d="M2563.5 1515.5L2560 1532.6L2562.8 1533.2L2565.5 1533.7L2570.4 1509.8L2567.7 1509.2L2564.9 1508.7L2563.5 1515.5Z" fill="#8B77E8"/>
<path d="M2113 1255V1190.1H2099.6L2103.7 1150.6L2108.8 1151.2C2135.3 1154.1 2158.7 1134 2159.9 1107.3L2160.4 1097.1L2163.3 1032.6C2143.1 1032.6 2123.1 1038 2105.7 1048.5C2096.9 1053.8 2087.3 1057.3 2077.4 1059.3L2076.5 1070.4L2075.7 1080.5C2075 1088.8 2071.6 1096.3 2066.2 1102.1L2070.6 1108.2C2075.5 1115.1 2083.1 1119.7 2091.5 1121L2108.5 1123.6L2107.2 1131.9L2090.2 1129.3C2079.6 1127.7 2070 1121.8 2063.8 1113.1L2059.9 1107.6C2056.3 1110 2052.3 1111.7 2048 1112.7L2046.9 1107.9C2046.8 1107.9 2046.7 1107.9 2046.6 1108L2043.6 1135.4C2043.5 1135.5 2043.4 1135.5 2043.3 1135.6L2038 1187.3C2037.9 1188.3 2037.8 1189.3 2037.8 1190.3H2014.2L2113 1255ZM2107.1 1107L2140 1110.6C2137.1 1117.5 2130 1122 2122.2 1121.1C2114.4 1120.2 2108.4 1114.3 2107.1 1107Z" fill="#FF95A9"/>
<path d="M2068.5 1532.3L2086.6 1504.8L2001.2 1448.6L1959.1 1420.9L1990.9 1352.6L2016.9 1432.1H2147.3L2149.2 1391.1L2168 1436.4C2169.7 1440.4 2172.3 1444 2175.6 1446.7L2246.2 1504.9L2256.2 1456.5L2216 1412.7L2155.2 1215.8C2155.3 1216 2155.3 1216.3 2155.4 1216.5C2155.4 1216.4 2155.3 1216.2 2155.3 1216.1C2155.2 1215.7 2155.1 1215.3 2155 1215C2154.9 1214.6 2154.7 1214.3 2154.6 1213.9C2154.5 1213.6 2154.4 1213.4 2154.3 1213.2C2154.2 1213.1 2154.2 1212.9 2154.1 1212.8C2154 1212.5 2153.9 1212.1 2153.7 1211.8C2153.5 1211.4 2153.3 1211 2153.1 1210.6C2153 1210.4 2152.9 1210.1 2152.8 1209.9C2152.7 1209.8 2152.7 1209.7 2152.6 1209.6C2152.4 1209.3 2152.3 1209 2152.1 1208.7C2151.9 1208.3 2151.6 1207.8 2151.3 1207.4C2151.2 1207.2 2151.1 1207 2150.9 1206.8C2150.8 1206.7 2150.8 1206.6 2150.7 1206.6C2150.5 1206.3 2150.4 1206.1 2150.2 1205.8C2149.9 1205.3 2149.5 1204.9 2149.2 1204.4C2149.1 1204.2 2149 1204.1 2148.8 1203.9C2148.8 1203.8 2148.7 1203.8 2148.7 1203.7C2148.5 1203.5 2148.3 1203.2 2148.1 1203C2147.7 1202.5 2147.3 1202 2146.8 1201.6C2146.7 1201.5 2146.5 1201.3 2146.4 1201.2C2146.3 1201.1 2146.3 1201.1 2146.2 1201.1C2146 1200.9 2145.8 1200.7 2145.6 1200.5C2145.1 1200.1 2144.7 1199.6 2144.2 1199.2C2144 1199.1 2143.9 1198.9 2143.7 1198.8C2143.6 1198.7 2143.5 1198.7 2143.4 1198.6C2143.2 1198.4 2143 1198.3 2142.9 1198.1C2142.4 1197.7 2142 1197.4 2141.5 1197C2141.3 1196.8 2141.1 1196.7 2140.9 1196.5C2140.7 1196.4 2140.6 1196.3 2140.4 1196.2C2140.2 1196.1 2140.1 1196 2139.9 1195.9C2139.5 1195.6 2139 1195.4 2138.6 1195.1C2138.3 1194.9 2138.1 1194.8 2137.8 1194.6C2137.5 1194.5 2137.3 1194.3 2137 1194.2C2136.9 1194.1 2136.8 1194.1 2136.6 1194C2136.4 1193.9 2136.2 1193.8 2136.1 1193.7C2135.9 1193.6 2135.7 1193.5 2135.4 1193.4C2135.1 1193.3 2134.8 1193.1 2134.5 1193C2134.2 1192.9 2133.9 1192.8 2133.5 1192.6C2133.4 1192.6 2133.3 1192.5 2133.2 1192.5C2132.8 1192.3 2132.3 1192.2 2131.9 1192C2131.6 1191.9 2131.4 1191.8 2131.1 1191.7C2130.8 1191.6 2130.5 1191.5 2130.2 1191.5C2130.1 1191.5 2130 1191.4 2129.9 1191.4C2129.4 1191.2 2128.8 1191.1 2128.3 1191C2128 1190.9 2127.8 1190.9 2127.6 1190.8C2127.3 1190.7 2127.1 1190.7 2126.8 1190.7C2126.7 1190.7 2126.7 1190.7 2126.6 1190.7C2125.9 1190.6 2125.3 1190.5 2124.6 1190.4C2124.4 1190.4 2124.1 1190.3 2123.9 1190.3C2123.7 1190.3 2123.5 1190.3 2123.2 1190.3H2123.1C2122.3 1190.2 2121.6 1190.2 2120.8 1190.2C2120.6 1190.2 2120.3 1190.2 2120.1 1190.2H2112.8V1255.1L2013.9 1190.2H2009.2C2009.1 1190.2 2009.1 1190.2 2009 1190.2C2001.4 1190.2 1993.8 1192.6 1987.3 1197.4C1981.8 1201.5 1977.9 1206.9 1975.5 1212.8L1891.1 1420.4C1889.6 1424 1888.8 1427.9 1888.8 1432C1888.8 1444.6 1896.3 1455.4 1907.1 1460.2L1969.5 1488.1L1974.6 1490.4L2068.5 1532.3ZM2155.8 1218.6C2155.9 1219.2 2156 1219.7 2156.1 1220.3C2156.1 1220.2 2156.1 1220.2 2156.1 1220.1C2156 1219.6 2155.9 1219.1 2155.8 1218.6ZM2156.4 1222.2C2156.5 1222.7 2156.5 1223.2 2156.5 1223.7C2156.5 1223.3 2156.5 1222.8 2156.4 1222.2ZM2156.7 1227.3C2156.7 1226.8 2156.7 1226.4 2156.7 1225.9C2156.7 1226.1 2156.7 1226.3 2156.7 1226.5C2156.7 1226.9 2156.7 1227.1 2156.7 1227.3Z" fill="#FFD259"/>
<path d="M2097.3 1545.2C2098.6 1545.7 2100 1546.2 2101.5 1546.3L2134.9 1550C2145.7 1551.2 2155.4 1543.4 2156.6 1532.7C2157.8 1521.9 2150 1512.2 2139.3 1511C2137.1 1510.8 2134.9 1510.9 2132.9 1511.4L2105.9 1517.4L2086.7 1504.8L2068.6 1532.3L2097.3 1545.2Z" fill="#FF95A9"/>
<path d="M1979.2 1564.8H383.2V1592.8H2671.3V1564.8H2220.1H1979.2Z" fill="#B3A4F5"/>
<path d="M1831.4 1590H1328V1595.6H1831.4V1590Z" fill="#40327A"/>
<path d="M1259.1 1590H1128.6V1595.6H1259.1V1590Z" fill="#40327A"/>
<path d="M1303 1590H1282.1V1595.6H1303V1590Z" fill="#40327A"/>
<path d="M2320.4 1590H1978.5V1595.6H2320.4V1590Z" fill="#40327A"/>
<path d="M2810.3 1623H1940.3V1651H2810.3V1623Z" fill="#E9E6FF"/>
<path d="M1915.8 1623H1852.7V1651H1915.8V1623Z" fill="#DDD6FF"/>
<path d="M694.2 1679.1H593.2V1693.1H694.2V1679.1Z" fill="#F2F0FF"/>
<path d="M730.8 1679.1H716.2V1693.1H730.8V1679.1Z" fill="#CCC2FF"/>
<path d="M1095.8 1679.1H759.5V1693.1H1095.8V1679.1Z" fill="#E9E6FF"/>
<path d="M1662.8 1679.1H1133.3V1693.1H1662.8V1679.1Z" fill="#DDD6FF"/>
<path d="M2395.3 1679.1H1681.6V1693.1H2395.3V1679.1Z" fill="#DDD6FF"/>
<path d="M2446.8 1679.1H2430.4V1693.1H2446.8V1679.1Z" fill="#E9E6FF"/>
<path d="M1835.9 1623H1580.8V1651H1835.9V1623Z" fill="#DDD6FF"/>
<path d="M1552 1623H992.7V1651H1552V1623Z" fill="#CCC2FF"/>
<path d="M968.5 1623H889V1651H968.5V1623Z" fill="#DDD6FF"/>
<path d="M873.2 1623H849.2V1651H873.2V1623Z" fill="#CCC2FF"/>
<path d="M838 1623H646V1651H838V1623Z" fill="#E9E6FF"/>
<path d="M618 1623H225.3V1651H618V1623Z" fill="#F2F0FF"/>
<path d="M898.4 1437.6L899 1446.1L898.4 1437.6Z" fill="#FF95A9"/>
<path d="M898.7 1484C899.7 1483.6 900.7 1483.1 901.6 1482.6L899.4 1451.3L893.8 1451.7L892.7 1436.3L849.2 1427L799.8 1463.8L811.3 1519.7L898.7 1484Z" fill="#FF95A9"/>
<path d="M892.7 1436.3L883.7 1311.3L889.3 1310.9L898.4 1437.5L889.4 1311.1H1040L1106.8 1393.9L1118.8 1408.8L1122.7 1413.6L1135.1 1406.5L1194.8 1372.5L1184.9 1355.4L1099.4 1207.3C1099.4 1207.3 1099.4 1207.2 1099.3 1207.2L1099.2 1206.9C1093.9 1197.7 1085.8 1189.8 1075.5 1184.7C1067.5 1180.7 1059 1178.9 1050.7 1178.9V1178.8H1020.5C1020.3 1194.5 1010.1 1209 994.3 1213.9C974.7 1219.9 954 1208.9 948 1189.3C947.8 1188.8 947.8 1188.3 947.6 1187.8L945.2 1178.8H940.1V1178.9C928 1178.9 915.9 1182.7 905.6 1190.7C894.2 1199.6 887.3 1211.9 884.9 1225.1H884.8L849.2 1427L892.7 1436.3Z" fill="#FFC159"/>
<path d="M1040.1 1311.2H889.5L898.5 1437.6L899.1 1446.1L899.5 1451.4L901.7 1482.7L906.3 1547H935.5C924.8 1545.9 916.2 1537.3 915.4 1526.2C914.6 1513.8 923.9 1503.1 936.3 1502.3L971.6 1499.9L999.9 1483.7L1107 1422.7V1394L1040.1 1311.2Z" fill="#FFD259"/>
<path d="M1049.8 1509.3L1085.8 1497.1L1012.7 1521.8L982 1532.2L945.4 1545.6C943.7 1546.2 941.8 1546.7 939.9 1546.9H971V1564.7H907.5V1564.8H1107V1495.8L1051.7 1514.5L1049.8 1509.3Z" fill="#FFD259"/>
<path d="M1099.6 1207.4C1099.6 1207.4 1099.6 1207.3 1099.5 1207.3C1099.5 1207.3 1099.6 1207.4 1099.6 1207.4Z" fill="#FFC359"/>
<path d="M1075.7 1184.9C1086 1190 1094 1197.8 1099.4 1207.1C1094 1197.8 1086 1190 1075.7 1184.9C1067.7 1180.9 1059.2 1179.1 1050.9 1179.1C1059.2 1179.1 1067.7 1180.9 1075.7 1184.9Z" fill="#FFC359"/>
<path d="M1213.9 1405.5L1194.9 1372.5L1135.2 1406.5L1122.8 1413.6L1106.9 1422.6L999.8 1483.6L971.5 1499.8L936.2 1502.2C923.8 1503 914.5 1513.7 915.3 1526.1C916.1 1537.2 924.7 1545.8 935.4 1546.9H939.9C941.8 1546.7 943.7 1546.3 945.4 1545.6L982 1532.2L1012.7 1521.8L1085.8 1497.1L1133.4 1481L1193.1 1460.8C1200.4 1458.3 1207.1 1453.6 1211.9 1446.9C1220.9 1434.3 1221.2 1418.1 1213.9 1405.5Z" fill="#FF95A9"/>
<path d="M1085.7 1497.1L1049.8 1509.3L1051.6 1514.6L1106.9 1495.9L1135.2 1486.3L1133.4 1481L1085.7 1497.1Z" fill="white"/>
<path d="M947.7 1188.1C947.9 1188.6 948 1189.1 948.1 1189.6C954.1 1209.2 974.8 1220.2 994.4 1214.2C1010.2 1209.3 1020.4 1194.9 1020.6 1179.1C1020.6 1175.9 1020.2 1172.6 1019.3 1169.3L1007.9 1126.1L1002.2 1104.3C998.7 1103.1 995.4 1101.5 992.4 1099.5L988 1105.6C987.3 1106.6 986.5 1107.6 985.6 1108.6L986.2 1114C987.3 1124.2 984.8 1134 979.7 1142C972.9 1152.7 961.4 1160.4 947.8 1161.9L940.9 1162.7L945.2 1179.1L947.7 1188.1Z" fill="#FF95A9"/>
<path d="M971 1546.9H939.9H935.4H906.2H816.9L820.6 1564.8H907.4H971V1546.9Z" fill="#40327A"/>
<path d="M811.3 1519.7L799.8 1463.8L778.6 1361H768.5L810.4 1564.8H820.6L816.9 1546.9L811.3 1519.7Z" fill="white"/>
<path d="M768.5 1361V1365.1L486.4 1363.8L508 1468.7L505.3 1469.3L515.5 1518.8L810.6 1564.8L768.5 1361ZM651 1483.7C639.5 1483.7 628.3 1474.4 625.9 1462.9C623.5 1451.4 630.9 1442.1 642.4 1442.1C653.9 1442.1 665.1 1451.4 667.5 1462.9C669.9 1474.4 662.5 1483.7 651 1483.7Z" fill="#B3A4F5"/>
<path d="M515.4 1518.8L515.6 1520L524.9 1564.8H535H810.4L515.4 1518.8Z" fill="#DDD6FF"/>
<path d="M642.4 1442.1C630.9 1442.1 623.5 1451.4 625.9 1462.9C628.3 1474.4 639.5 1483.7 651 1483.7C662.5 1483.7 669.9 1474.4 667.5 1462.9C665.1 1451.4 653.9 1442.1 642.4 1442.1Z" fill="white"/>
<path d="M937.7 944.4C954.1 942.7 970 947.6 982.7 958.2C986 961 989 964.1 991.6 967.5C998.9 976.8 1003.3 988 1004.2 1000.1L1005 1010.2C989.2 1013.9 978 1028.6 979.2 1045.3L981 1070C982.4 1088.5 998.5 1102.4 1017 1101C1018.9 1100.9 1020.7 1100.5 1022.5 1100.1C1038.1 1096.3 1049.2 1081.6 1048 1065L1046.2 1040.3C1045.2 1027.4 1037.1 1016.8 1026 1012C1022.9 1010.7 1019.6 1009.8 1016.2 1009.5L1015.4 999.3C1015 993.6 1013.9 988.1 1012.2 982.8C1008.1 970 1000.5 958.6 990 949.7C975 937.2 956.1 931.4 936.7 933.4L937.3 939L936.7 933.4C917.6 935.4 901 944.5 889.5 958L908.2 956C916.5 949.7 926.6 945.6 937.7 944.4ZM1038 1042.7L1039.2 1059.1C1040.1 1071.4 1030.9 1082.1 1018.6 1083C1006.3 1083.9 995.6 1074.7 994.7 1062.4L993.5 1046C992.6 1033.7 1001.8 1023 1014.1 1022.1C1026.4 1021.2 1037.1 1030.4 1038 1042.7Z" fill="#B3A4F5"/>
<path d="M983.9 1091.3L984.5 1096.4L986.2 1094C985.4 1093.1 984.6 1092.2 983.9 1091.3Z" fill="#FF95A9"/>
<path d="M948.7 1085.2C958.5 1084.1 965.6 1075.4 964.7 1065.6L957.6 1001C950.3 1010.9 939 1017.9 925.8 1019.4L876 1024.8C874.8 1030.2 874.3 1035.8 874.6 1041.5L875.4 1055.5L877.7 1093L948.7 1085.2Z" fill="#FF95A9"/>
<path d="M1015.3 999.2L1016.1 1009.4C1019.5 1009.8 1022.8 1010.6 1025.9 1011.9C1024.1 1000.8 1019.2 990.7 1012.1 982.6C1013.8 988 1014.9 993.5 1015.3 999.2Z" fill="#40327A"/>
<path d="M979.8 1142C984.9 1134 987.5 1124.2 986.3 1114L985.7 1108.6C979 1116.3 969.7 1121.5 959.6 1123L936.4 1126.5L935.2 1118.2L958.4 1114.7C967.6 1113.3 975.9 1108.3 981.3 1100.7L984.4 1096.4L983.8 1091.3C984.5 1092.2 985.3 1093.1 986.1 1094C988 1096.1 990.2 1097.9 992.5 1099.5C995.5 1101.5 998.7 1103.2 1002.3 1104.3L1008 1126.1C1015.9 1123.4 1021.5 1116.2 1021.9 1107.7L1022.3 1100.2C1020.5 1100.6 1018.7 1101 1016.8 1101.1C998.3 1102.5 982.2 1088.6 980.8 1070.1L979 1045.4C977.8 1028.7 989 1014 1004.8 1010.3L1004 1000.2C1003.1 988.1 998.7 976.9 991.4 967.6C983.2 963.9 974 962.1 964.3 962.6C960.6 954.2 951.8 948.8 942.1 949.9C935.2 950.7 929.5 954.5 926.1 960C921.8 956.7 916.4 955 910.6 955.7L907.9 956H907.8L889.1 958L881.7 958.8L880.1 959C877.6 959.3 875.2 960 873 961.1C860.6 966.2 852.3 978.6 852.8 992.5C844.7 1000.1 840.1 1011.3 841.4 1023.2C843.4 1041.1 857.9 1054.5 875.3 1055.7L874.5 1041.7C874.2 1036 874.7 1030.4 875.9 1025L925.7 1019.6C938.9 1018.2 950.1 1011.2 957.5 1001.2L964.6 1065.8C965.5 1075.6 958.4 1084.4 948.6 1085.4L877.8 1093.1L881 1146.4C881.8 1158.8 892.7 1168 905 1166.7L941 1162.8L947.9 1162C961.6 1160.4 973 1152.7 979.8 1142ZM905.8 1121.3C896.8 1122.2 888.7 1115.6 887.8 1106.6L920.5 1103.3C921.4 1112.4 914.8 1120.4 905.8 1121.3Z" fill="#40327A"/>
<path d="M887.8 1106.7C888.7 1115.7 896.8 1122.3 905.8 1121.4C914.8 1120.5 921.4 1112.4 920.5 1103.4L887.8 1106.7Z" fill="white"/>
<path d="M986.2 1094L984.5 1096.4L981.4 1100.7C976 1108.2 967.6 1113.3 958.5 1114.7L935.3 1118.2L936.5 1126.5L959.7 1123C969.8 1121.5 979.2 1116.3 985.8 1108.6C986.6 1107.6 987.4 1106.7 988.2 1105.6L992.6 1099.5C990.3 1097.9 988.1 1096 986.2 1094Z" fill="white"/>
<path d="M1014.1 1022.1C1001.8 1023 992.6 1033.7 993.5 1046L994.7 1062.4C995.6 1074.7 1006.3 1083.9 1018.6 1083C1030.9 1082.1 1040.1 1071.4 1039.2 1059.1L1038 1042.7C1037.1 1030.4 1026.4 1021.2 1014.1 1022.1Z" fill="white"/>
<path d="M899 1446.1L898.4 1437.6L889.3 1311L883.7 1311.4L892.7 1436.3L893.8 1451.8L899.4 1451.4L899 1446.1Z" fill="white"/>
<path d="M486.3 1363.8L768.5 1365.1V1361V1359.5L479.4 1358.2L502.4 1469.9L505.2 1469.3L507.9 1468.7L486.3 1363.8Z" fill="#7760DB"/>
<path d="M1449.8 1075.3C1450.6 1074.3 1451.4 1073.2 1452.2 1072.3C1454.5 1069.7 1457.1 1067.3 1460 1065.1C1461.4 1064 1462.9 1063 1464.4 1062.1C1465.9 1061.2 1467.5 1060.4 1469 1059.6C1472.1 1058.1 1475.4 1057 1478.7 1056.1C1482.9 1055.1 1487.1 1054.6 1491.3 1054.6H1517.9C1517.9 1054.5 1517.9 1054.3 1517.9 1054.2C1517.9 1052.4 1518 1050.7 1518.2 1049H1517.9V1032.8L1463.7 1014.4C1449.9 1009.7 1440.7 996.8 1440.7 982.3V976.4C1443.7 975.3 1446.5 973.8 1449.1 972.1V982.4C1449.1 993.3 1456.1 1003 1466.4 1006.6L1517.9 1024.1V1011C1531.3 1018.3 1546.4 1022.2 1562.2 1022.2V1016.6C1546.3 1016.6 1531.1 1012.4 1517.9 1004.5V1004.4C1493.6 989.9 1477.1 963.7 1476 933.5L1474.9 902.2C1510 901.3 1544 889.4 1572.1 868.2C1591.5 853.5 1615.2 845.6 1639.5 845.6H1651.4L1648.3 933.5C1647.2 963.7 1630.7 989.9 1606.4 1004.4V1049H1606.1C1606.3 1050.7 1606.4 1052.5 1606.4 1054.2C1606.4 1054.3 1606.4 1054.5 1606.4 1054.6H1633C1638.6 1054.6 1644.2 1055.5 1649.6 1057.3L1652.5 1057.4C1652.5 1057.7 1652.5 1058 1652.4 1058.4C1656.5 1060.1 1660.6 1062.2 1664.3 1065C1665.7 1066.1 1667.1 1067.2 1668.4 1068.4C1670.7 1070.5 1672.7 1072.8 1674.5 1075.2L1745.4 1168.5L1748 1168.6L1700.1 978.9C1709.8 978.5 1718.9 974.7 1726.1 968.1L1722.3 964C1722.1 964.1 1722 964.3 1721.8 964.4C1721.3 964.8 1720.8 965.3 1720.3 965.7C1720 965.9 1719.7 966.2 1719.4 966.4C1718.9 966.8 1718.3 967.2 1717.7 967.5C1717.4 967.7 1717.1 967.9 1716.8 968.1C1716 968.6 1715.1 969.1 1714.2 969.5C1713.9 969.6 1713.6 969.8 1713.3 969.9C1712.7 970.2 1712.1 970.5 1711.4 970.7C1711 970.9 1710.6 971 1710.2 971.1C1709.6 971.3 1709.1 971.5 1708.5 971.7C1708.1 971.8 1707.7 971.9 1707.3 972C1706.7 972.2 1706.1 972.3 1705.5 972.4C1705.1 972.5 1704.7 972.6 1704.3 972.6C1703.6 972.7 1702.9 972.8 1702.3 972.9C1702 972.9 1701.6 973 1701.3 973C1700.3 973.1 1699.2 973.1 1698.2 973.1C1678.5 973.1 1662.5 957.1 1662.5 937.4V877C1662.5 861.2 1672.8 847.9 1687 843.1C1684.2 818 1674 795.2 1658.7 776.8V776H1658C1634.9 748.8 1600.5 731.4 1562 731.4C1497.3 731.4 1444 780.2 1437 843C1451.2 847.7 1461.5 861.1 1461.5 876.9V937.7C1461.5 957.4 1445.5 973.4 1425.8 973.4C1424.7 973.4 1423.7 973.3 1422.6 973.2C1422.2 973.2 1421.9 973.1 1421.5 973.1C1420.8 973 1420.2 972.9 1419.5 972.8C1419.1 972.7 1418.6 972.6 1418.2 972.5C1417.6 972.4 1417.1 972.2 1416.5 972.1C1416 972 1415.6 971.9 1415.1 971.7C1414.6 971.5 1414 971.3 1413.5 971.1C1413.1 970.9 1412.6 970.8 1412.2 970.6C1411.3 970.2 1410.5 969.8 1409.6 969.4C1409.2 969.2 1408.8 969 1408.4 968.7C1407.9 968.4 1407.4 968.1 1406.9 967.8C1406.5 967.6 1406.1 967.3 1405.8 967.1C1405.3 966.7 1404.8 966.4 1404.3 966C1404 965.8 1403.7 965.5 1403.4 965.3C1402.8 964.8 1402.2 964.3 1401.6 963.7C1401.5 963.6 1401.3 963.5 1401.2 963.3L1397.3 967.3C1404.6 974.3 1414.1 978.3 1424.2 978.8L1376.3 1168.4L1378.8 1168.3L1449.8 1075.3Z" fill="#40327A"/>
<path d="M1587.9 1133.3C1585.8 1129.7 1584.2 1125.9 1583.1 1122C1584.2 1125.9 1585.8 1129.7 1587.9 1133.3Z" fill="#FFD259"/>
<path d="M1478.8 1056.1C1475.5 1056.9 1472.3 1058.1 1469.1 1059.6C1472.2 1058.1 1475.5 1057 1478.8 1056.1Z" fill="#FFD259"/>
<path d="M1452.2 1072.3C1454.5 1069.7 1457.1 1067.3 1460 1065.1C1461.4 1064 1462.9 1063 1464.4 1062.1C1462.9 1063 1461.4 1064 1460 1065.1C1457.1 1067.2 1454.5 1069.7 1452.2 1072.3Z" fill="#FFD259"/>
<path d="M1342.9 1341.2L1284.9 1292.1L1262.9 1321C1257.2 1328.5 1253.8 1337.7 1253.8 1347.8C1253.8 1359.6 1258.4 1370.3 1266 1378.3L1342.9 1459.7V1341.2V1341.2Z" fill="#FF95A9"/>
<path d="M1363.31 1179.82L1297.79 1265.94L1302.25 1269.33L1367.77 1183.21L1363.31 1179.82Z" fill="#7760DB"/>
<path d="M1342.9 1341.2V1244.9H1348.5H1530.1V1242.1H1537.4V1244.9H1566.8V1242.1H1778.8V1343.5L1839.7 1292.1L1783.9 1218.8L1745.7 1168.6L1674.8 1075.3C1673 1072.9 1671 1070.6 1668.7 1068.5C1667.4 1067.3 1666 1066.2 1664.6 1065.1C1660.9 1062.3 1656.8 1060.1 1652.7 1058.5C1651.7 1080.1 1643 1100.6 1628 1116.4C1622.2 1122.5 1615.7 1127.8 1608.5 1132C1603 1135.3 1597.3 1137.9 1591.4 1140C1582.1 1143.2 1572.3 1144.8 1562.3 1144.8C1523.9 1144.8 1489.6 1120.4 1476.9 1084L1482.2 1082.1C1494.1 1116.2 1526.3 1139.1 1562.3 1139.1C1571.7 1139.1 1580.8 1137.6 1589.6 1134.6C1595.1 1132.7 1600.5 1130.2 1605.7 1127.1C1612.4 1123.1 1618.5 1118.2 1624 1112.5C1638.2 1097.5 1646.5 1077.8 1647.2 1057.2L1649.9 1057.3C1644.5 1055.5 1638.9 1054.6 1633.3 1054.6C1633.1 1086.3 1612.1 1113.1 1583.2 1122C1584.4 1125.9 1586 1129.7 1588 1133.3C1585.9 1129.7 1584.3 1125.9 1583.2 1122C1576.6 1124 1569.6 1125.1 1562.4 1125.1C1523.4 1125.1 1491.8 1093.6 1491.5 1054.6C1487.3 1054.6 1483 1055 1478.9 1056.1C1475.6 1056.9 1472.4 1058.1 1469.2 1059.6C1467.6 1060.3 1466.1 1061.2 1464.6 1062.1C1463.1 1063 1461.6 1064 1460.2 1065.1C1457.3 1067.3 1454.7 1069.7 1452.4 1072.3C1451.5 1073.3 1450.7 1074.3 1450 1075.3L1379.1 1168.6L1340.9 1218.8L1285.1 1292.1L1342.9 1341.2Z" fill="#FFC159"/>
<path d="M1858.5 1378.3C1866 1370.4 1870.7 1359.7 1870.7 1347.8C1870.7 1337.7 1867.3 1328.4 1861.6 1321L1839.6 1292.1L1778.7 1343.5V1462.6L1858.5 1378.3Z" fill="#FF95A9"/>
<path d="M1606.5 1054.2C1606.5 1052.4 1606.4 1050.7 1606.2 1049H1606.5V1004.1C1630.8 989.6 1647.3 963.4 1648.4 933.2L1651.5 845.3H1639.6C1615.3 845.3 1591.6 853.2 1572.2 867.9C1544.1 889.1 1510.1 901 1475 901.9L1476.1 933.2C1477.2 963.4 1493.7 989.6 1518 1004.1V1004.2C1531.2 1012.1 1546.4 1016.3 1562.3 1016.3V1021.9C1546.5 1021.9 1531.4 1018 1518 1010.7V1023.8L1534.9 1029.5L1532.2 1037.5L1518 1032.7V1049H1518.3C1518.1 1050.7 1518 1052.5 1518 1054.2C1518 1054.3 1518 1054.5 1518 1054.6H1491.4C1491.6 1093.5 1523.2 1125.1 1562.3 1125.1C1569.5 1125.1 1576.5 1124 1583.1 1122C1612 1113.2 1633 1086.4 1633.2 1054.6H1606.6C1606.5 1054.5 1606.5 1054.4 1606.5 1054.2ZM1541.6 972H1582.9C1579.7 980.3 1571.7 986.2 1562.2 986.2C1552.8 986.1 1544.8 980.3 1541.6 972Z" fill="#FF95A9"/>
<path d="M1562.3 986.1C1571.7 986.1 1579.8 980.2 1583 971.9H1541.7C1544.8 980.3 1552.8 986.1 1562.3 986.1Z" fill="white"/>
<path d="M1532.2 1037.6L1534.9 1029.6L1518 1023.9L1466.5 1006.4C1456.1 1002.9 1449.2 993.2 1449.2 982.2V972C1446.6 973.8 1443.8 975.2 1440.8 976.3V982.2C1440.8 996.7 1450.1 1009.7 1463.8 1014.3L1518 1032.7L1532.2 1037.6Z" fill="white"/>
<path d="M1404.4 966.3C1404.9 966.7 1405.4 967 1405.9 967.4C1406.3 967.7 1406.7 967.9 1407 968.1C1407.5 968.4 1408 968.7 1408.5 969C1408.9 969.2 1409.3 969.5 1409.7 969.7C1410.5 970.1 1411.4 970.5 1412.3 970.9C1412.7 971.1 1413.2 971.2 1413.6 971.4C1414.1 971.6 1414.6 971.8 1415.2 972C1415.7 972.1 1416.1 972.3 1416.6 972.4C1417.2 972.6 1417.7 972.7 1418.3 972.8C1418.7 972.9 1419.2 973 1419.6 973.1C1420.3 973.2 1420.9 973.3 1421.6 973.4C1422 973.4 1422.3 973.5 1422.7 973.5C1423.7 973.6 1424.8 973.7 1425.9 973.7C1445.6 973.7 1461.6 957.7 1461.6 938V877C1461.6 861.2 1451.3 847.9 1437.1 843.1C1433.7 842 1430.2 841.4 1426.5 841.3C1434.5 773.5 1492.3 720.7 1562.2 720.7C1630.2 720.7 1686.7 770.6 1697.1 835.7C1701 835.6 1704.9 836.1 1708.6 837C1698.7 765.1 1636.8 709.5 1562.2 709.5C1485.5 709.5 1422.3 768.2 1415 843C1404.4 846.4 1395.8 854.6 1392.1 865.5C1382.8 892.7 1382.8 922.2 1392.1 949.4C1394 955.1 1397.3 960 1401.6 964C1402.2 964.6 1402.8 965.1 1403.4 965.6C1403.8 965.8 1404.1 966 1404.4 966.3ZM1406.5 875.9C1407.7 870.2 1412.8 866 1418.7 866C1425.6 866 1431.2 871.6 1431.2 878.5V928C1431.2 934.9 1425.6 940.5 1418.7 940.5C1412.8 940.5 1407.7 936.4 1406.5 930.6C1402.6 912.7 1402.6 894 1406.5 875.9Z" fill="#B3A4F5"/>
<path d="M1418.7 940.6C1425.6 940.6 1431.2 935 1431.2 928.1V878.6C1431.2 871.7 1425.6 866.1 1418.7 866.1C1412.8 866.1 1407.7 870.2 1406.5 876C1402.6 894.1 1402.6 912.7 1406.5 930.8C1407.7 936.5 1412.8 940.6 1418.7 940.6Z" fill="#F0EDFF"/>
<path d="M1732.3 949.4C1731.9 950.6 1731.4 951.7 1730.9 952.8C1730.8 952.9 1730.8 953.1 1730.7 953.2L1735.8 955.6C1736.5 954.2 1737.1 952.7 1737.6 951.2C1738.4 949 1739.1 946.7 1739.7 944.5L1734.3 943C1734.3 943.2 1734.2 943.3 1734.1 943.5C1733.6 945.4 1733 947.4 1732.3 949.4Z" fill="#40327A"/>
<path d="M1697.2 835.8C1695.8 835.8 1694.4 836 1693 836.1L1693.8 841.7C1694 841.7 1694.2 841.7 1694.4 841.7C1695.1 841.6 1695.8 841.6 1696.5 841.5C1697 841.5 1697.5 841.4 1698 841.4C1698.2 841.4 1698.5 841.4 1698.7 841.4C1704.7 841.4 1710.4 842.9 1715.4 845.6L1715.5 845.7C1716.4 846.2 1717.4 846.8 1718.2 847.3C1718.4 847.4 1718.6 847.6 1718.8 847.7C1719.7 848.3 1720.7 849 1721.5 849.8L1725.1 845.5C1720.3 841.5 1714.7 838.7 1708.7 837.2C1704.9 836.1 1701.1 835.6 1697.2 835.8Z" fill="#40327A"/>
<path d="M1718.1 847.2C1717.2 846.6 1716.3 846.1 1715.4 845.6L1715.3 845.5C1710.3 842.8 1704.6 841.3 1698.6 841.3C1698.4 841.3 1698.1 841.3 1697.9 841.3C1697.4 841.3 1696.9 841.3 1696.4 841.4C1695.7 841.4 1695 841.5 1694.3 841.6C1691.9 841.9 1689.6 842.4 1687.3 843.2C1673.1 847.9 1662.8 861.3 1662.8 877.1V937.9C1662.8 957.6 1678.8 973.6 1698.5 973.6C1699.5 973.6 1700.6 973.5 1701.6 973.5C1701.9 973.5 1702.3 973.4 1702.6 973.4C1703.3 973.3 1704 973.2 1704.6 973.1C1705 973 1705.4 972.9 1705.8 972.9C1706.4 972.8 1707 972.6 1707.6 972.5C1708 972.4 1708.4 972.3 1708.8 972.2C1709.4 972 1709.9 971.8 1710.5 971.6C1710.9 971.5 1711.3 971.3 1711.7 971.2C1712.3 970.9 1713 970.7 1713.6 970.4C1713.9 970.3 1714.2 970.1 1714.5 970C1715.4 969.6 1716.2 969.1 1717.1 968.6C1717.4 968.4 1717.7 968.2 1718 968C1718.6 967.6 1719.1 967.3 1719.7 966.9C1720 966.7 1720.3 966.4 1720.6 966.2C1721.1 965.8 1721.6 965.4 1722.1 964.9C1725.8 961.7 1728.8 957.7 1730.9 953.1C1731.4 952 1731.9 950.9 1732.3 949.7C1733 947.7 1733.6 945.8 1734.2 943.8C1741.6 918.3 1741 891.1 1732.3 865.9C1730.1 859.6 1726.3 854.2 1721.4 850.1C1720.5 849.4 1719.6 848.7 1718.7 848C1718.5 847.5 1718.3 847.4 1718.1 847.2ZM1718 930.7C1716.8 936.4 1711.7 940.6 1705.8 940.6C1698.9 940.6 1693.3 935 1693.3 928.1V878.6C1693.3 871.7 1698.9 866.1 1705.8 866.1C1711.7 866.1 1716.8 870.2 1718 876C1721.9 894 1721.9 912.7 1718 930.7Z" fill="#B3A4F5"/>
<path d="M1718 875.9C1716.8 870.2 1711.7 866 1705.8 866C1698.9 866 1693.3 871.6 1693.3 878.5V928C1693.3 934.9 1698.9 940.5 1705.8 940.5C1711.7 940.5 1716.8 936.4 1718 930.6C1721.9 912.7 1721.9 894 1718 875.9Z" fill="#F0EDFF"/>
<path d="M1649.8 1057.4L1647.1 1057.3C1646.4 1077.9 1638.1 1097.5 1623.9 1112.6C1618.5 1118.3 1612.3 1123.3 1605.6 1127.2C1600.5 1130.3 1595 1132.8 1589.5 1134.7C1580.8 1137.7 1571.6 1139.2 1562.2 1139.2C1526.2 1139.2 1494 1116.3 1482.1 1082.2L1476.8 1084.1C1489.5 1120.4 1523.8 1144.9 1562.2 1144.9C1572.2 1144.9 1582 1143.3 1591.3 1140.1C1597.2 1138.1 1602.9 1135.4 1608.4 1132.1C1615.5 1127.9 1622.1 1122.6 1627.9 1116.5C1642.8 1100.7 1651.6 1080.2 1652.6 1058.6C1652.6 1058.3 1652.6 1058 1652.7 1057.6L1649.8 1057.4Z" fill="white"/>
<path d="M1773.2 1498.7V1296.1L1348.5 1362.3V1502.2V1564.9L1773.2 1498.7ZM1562.3 1378.1C1577.1 1378.1 1589.1 1390.1 1589.1 1404.9C1589.1 1419.7 1577.1 1431.7 1562.3 1431.7C1547.5 1431.7 1535.5 1419.7 1535.5 1404.9C1535.4 1390.1 1547.4 1378.1 1562.3 1378.1Z" fill="#C4B8FF"/>
<path d="M1587.09 1415.11C1592.75 1401.44 1586.26 1385.76 1572.58 1380.1C1558.91 1374.43 1543.23 1380.93 1537.57 1394.6C1531.9 1408.28 1538.4 1423.95 1552.07 1429.62C1565.75 1435.28 1581.42 1428.79 1587.09 1415.11Z" fill="white"/>
<path d="M1773.2 1534.6V1498.7L1348.5 1564.9H1776V1534.6H1773.2Z" fill="#DDD6FF"/>
<path d="M1537.4 1247.7H1530.1V1244.9H1348.5V1362.3L1773.2 1296.1V1247.7H1566.8V1244.9H1537.4V1247.7Z" fill="#B3A4F5"/>
<path d="M1778.8 1343.6V1242.1H1566.8V1244.9V1247.7H1773.2V1296.1V1498.7V1534.6H1776H1778.8V1462.7V1343.6Z" fill="#624AC9"/>
<path d="M1537.4 1247.7V1244.9V1242.1H1530.1V1244.9V1247.7H1537.4Z" fill="#624AC9"/>
<path d="M1348.5 1362.3V1244.9H1342.9V1341.2V1459.7V1502.2H1348.5V1362.3Z" fill="#F8F7FF"/>
<path d="M2067.2 863.8H2056.8V869.4H2067.2V863.8Z" fill="#B3A4F5"/>
<path d="M2241.4 869.4H2110.4V863.8H2241.4C2311.1 863.8 2367.8 807.1 2367.8 737.4C2367.8 726.5 2366.4 715.6 2363.6 705.2L2369 703.8C2371.9 714.7 2373.4 726.1 2373.4 737.5C2373.4 810.2 2314.1 869.4 2241.4 869.4Z" fill="#B3A4F5"/>
<path d="M1796.3 852.6H1790.7V737.4C1790.7 664.6 1849.9 605.4 1922.7 605.4H2241.4C2287.9 605.4 2330.1 629.2 2354.3 669.1L2349.5 672C2326.3 633.8 2285.9 611 2241.3 611H1922.6C1852.9 611 1796.2 667.7 1796.2 737.4V852.6H1796.3Z" fill="#B3A4F5"/>
<path d="M2241.4 622.2H1922.7C1859.1 622.2 1807.5 673.8 1807.5 737.4V852.6H2241.4C2305 852.6 2356.6 801 2356.6 737.4C2356.5 673.8 2305 622.2 2241.4 622.2Z" fill="#E9E6FF"/>
<path d="M2521.3 1114.7C2554.55 1114.7 2581.5 1087.75 2581.5 1054.5C2581.5 1021.25 2554.55 994.3 2521.3 994.3C2488.05 994.3 2461.1 1021.25 2461.1 1054.5C2461.1 1087.75 2488.05 1114.7 2521.3 1114.7Z" fill="white"/>
<path d="M2521.3 1163.2C2461.4 1163.2 2412.6 1114.4 2412.6 1054.5C2412.6 994.6 2461.4 945.8 2521.3 945.8C2581.2 945.8 2630 994.6 2630 1054.5C2630 1114.5 2581.3 1163.2 2521.3 1163.2ZM2521.3 1042.9C2514.9 1042.9 2509.7 1048.1 2509.7 1054.5C2509.7 1060.9 2514.9 1066.1 2521.3 1066.1C2527.7 1066.1 2532.9 1060.9 2532.9 1054.5C2532.9 1048.1 2527.7 1042.9 2521.3 1042.9Z" fill="white"/>
<path d="M2652.4 1135.9L2647.6 1133C2675 1088.7 2676.1 1034.4 2650.8 984.2C2639.3 961.3 2620.2 942.4 2597 930.9C2557.5 911.3 2516.4 907.9 2478.1 921.1C2442 933.5 2411.7 960.3 2395.1 994.8L2390.1 992.4C2407.4 956.6 2438.9 928.7 2476.4 915.9C2516.1 902.3 2558.7 905.8 2599.6 926C2623.9 938 2643.9 957.8 2655.9 981.8C2682.1 1033.6 2680.8 1089.9 2652.4 1135.9Z" fill="#7760DB"/>
<path d="M2616.42 1148.79C2666.92 1098.3 2666.92 1016.43 2616.42 965.938C2565.93 915.444 2484.06 915.444 2433.56 965.938C2383.07 1016.43 2383.07 1098.3 2433.56 1148.79C2484.06 1199.29 2565.93 1199.29 2616.42 1148.79Z" fill="#FFCCD6"/>
<path d="M2628.87 1161.24C2686.23 1103.87 2686.23 1010.86 2628.87 953.493C2571.5 896.126 2478.49 896.126 2421.12 953.493C2363.75 1010.86 2363.75 1103.87 2421.12 1161.24C2478.49 1218.61 2571.5 1218.61 2628.87 1161.24Z" fill="white"/>
<path d="M2652.4 1135.9L2647.6 1133C2675 1088.7 2676.1 1034.4 2650.8 984.2C2639.3 961.3 2620.2 942.4 2597 930.9C2557.5 911.3 2516.4 907.9 2478.1 921.1C2442 933.5 2411.7 960.3 2395.1 994.8L2390.1 992.4C2407.4 956.6 2438.9 928.7 2476.4 915.9C2516.1 902.3 2558.7 905.8 2599.6 926C2623.9 938 2643.9 957.8 2655.9 981.8C2682.1 1033.6 2680.8 1089.9 2652.4 1135.9Z" fill="#7760DB"/>
<path d="M2525 1207.1C2442.4 1207.1 2375.3 1139.9 2375.3 1057.4H2380.9C2380.9 1136.9 2445.5 1201.5 2525 1201.5C2539.6 1201.5 2553.9 1199.3 2567.7 1195.1L2569.4 1200.5C2555 1204.8 2540.1 1207.1 2525 1207.1Z" fill="#7760DB"/>
<path d="M2630.7 1163.3L2626.7 1159.3C2634.7 1151.3 2641.7 1142.5 2647.6 1132.9L2652.4 1135.8C2646.3 1145.8 2639 1155.1 2630.7 1163.3Z" fill="#7760DB"/>
<path d="M2620.8 1103.4C2623.7 1093.4 2625.2 1082.8 2625.2 1071.9C2625.2 1008.5 2573.8 957.1 2510.4 957.1C2499.5 957.1 2489 958.6 2479 961.5C2492.9 954.8 2508.5 951.1 2525 951.1C2583.7 951.1 2631.3 998.7 2631.3 1057.4C2631.3 1073.9 2627.5 1089.5 2620.8 1103.4Z" fill="#FF95A9"/>
<path d="M2625.2 1071.9C2625.2 1082.8 2623.7 1093.4 2620.8 1103.4C2603.6 1139 2567.2 1163.6 2525 1163.6C2466.3 1163.6 2418.7 1116 2418.7 1057.3C2418.7 1015.1 2443.3 978.6 2478.9 961.5H2479C2489 958.7 2499.5 957.1 2510.4 957.1C2573.8 957.1 2625.2 1008.5 2625.2 1071.9Z" fill="#FFCCD6"/>
<path d="M2514.7 1129.7H2481.5L2445.8 1050.9L2480.6 1035.1L2501.4 1080.9C2523.1 1052.2 2571.2 996.3 2650.4 943.5L2671.6 975.3C2567.8 1044.6 2520.8 1119.7 2520.3 1120.5L2514.7 1129.7Z" fill="white"/>
<path d="M644.9 507.5C647.6 516.9 652.5 525.4 659 532.4L650.6 546.7L681.3 564.8L689.7 550.5C694.3 551.6 699.1 552.3 704 552.3C708.9 552.3 713.7 551.8 718.3 550.7L726.4 565.1L757.4 547.6L749.2 533.2C755.8 526.3 760.9 517.9 763.7 508.5L780.2 508.6L780.5 473L764 472.9C761.3 463.5 756.4 455 749.9 448L758.3 433.7L727.6 415.6L719.2 429.9C714.6 428.8 709.8 428.1 704.9 428.1C700 428.1 695.2 428.6 690.6 429.7L682.4 415.3L651.5 432.8L659.6 447.2C653 454.1 648 462.5 645.1 471.9L628.6 471.8L628.3 507.4L644.9 507.5ZM677.4 490C677.5 475 689.8 463 704.7 463.1C719.7 463.2 731.7 475.4 731.6 490.4C731.5 505.4 719.3 517.4 704.3 517.3C689.3 517.2 677.3 505 677.4 490Z" fill="#E9E6FF"/>
<path d="M819.2 683.8L799.7 703L833 736.9L852.5 717.7C863.2 724.7 875.1 729.8 887.9 732.7L887.7 760L935.1 760.4L935.3 733.1C948.2 730.4 960.2 725.5 970.9 718.7L990.1 738.2L1023.9 705L1004.7 685.5C1011.7 674.8 1016.8 662.9 1019.7 650.1L1047 650.3L1047.4 602.8L1020.1 602.6C1017.4 589.7 1012.5 577.7 1005.7 567L1025.2 547.8L992 514L972.5 533C961.9 526 949.9 520.9 937.1 518L937.3 490.7L889.8 490.3L889.6 517.6C876.7 520.3 864.7 525.2 854 532L834.8 512.5L801 545.8L820.2 565.3C813.2 576 808.1 587.9 805.2 600.7L777.9 600.5L777.5 647.9L804.8 648.2C807.5 661 812.4 673 819.2 683.8ZM864.4 624.9C864.6 598.3 886.3 577 912.9 577.2C939.5 577.4 960.8 599.1 960.6 625.7C960.4 652.3 938.7 673.6 912.1 673.4C885.6 673.2 864.2 651.5 864.4 624.9Z" fill="#DDD6FF"/>
<path d="M1298.4 442.1L1309.5 469.5L1339.1 471.6L1316.4 490.7L1323.6 519.5L1298.4 503.8L1273.3 519.5L1280.4 490.7L1257.7 471.6L1287.3 469.5L1298.4 442.1Z" fill="#FFE159"/>
<path d="M1393.8 442.1L1404.9 469.5L1434.5 471.6L1411.8 490.7L1419 519.5L1393.8 503.8L1368.7 519.5L1375.8 490.7L1353.1 471.6L1382.7 469.5L1393.8 442.1Z" fill="#FFE159"/>
<path d="M1489.2 442.1L1500.3 469.5L1529.9 471.6L1507.2 490.7L1514.4 519.5L1489.2 503.8L1464.1 519.5L1471.2 490.7L1448.5 471.6L1478.1 469.5L1489.2 442.1Z" fill="#FFE159"/>
<path d="M1584.6 442.1L1595.7 469.5L1625.3 471.6L1602.6 490.7L1609.8 519.5L1584.6 503.8L1559.5 519.5L1566.6 490.7L1543.9 471.6L1573.5 469.5L1584.6 442.1Z" fill="#FFE159"/>
<path d="M1680 442.1L1691.1 469.5L1720.7 471.6L1698 490.7L1705.2 519.5L1680 503.8L1654.9 519.5L1662 490.7L1639.3 471.6L1668.9 469.5L1680 442.1Z" fill="#FFE159"/>
<path d="M1731.1 554.4H1347V548.8H1731.1C1768.6 548.8 1799.1 518.3 1799.1 480.8C1799.1 443.3 1768.6 412.8 1731.1 412.8H1664V407.2H1731.1C1771.7 407.2 1804.7 440.2 1804.7 480.8C1804.7 521.3 1771.7 554.4 1731.1 554.4Z" fill="#B3A4F5"/>
<path d="M1303.3 554.4H1247.3C1206.7 554.4 1173.7 521.4 1173.7 480.8C1173.7 440.2 1206.7 407.2 1247.3 407.2H1651.5V412.8H1247.3C1209.8 412.8 1179.3 443.3 1179.3 480.8C1179.3 518.3 1209.8 548.8 1247.3 548.8H1303.3V554.4Z" fill="#B3A4F5"/>
<path d="M2165.3 759.5C2177.95 759.5 2188.2 749.606 2188.2 737.4C2188.2 725.195 2177.95 715.3 2165.3 715.3C2152.65 715.3 2142.4 725.195 2142.4 737.4C2142.4 749.606 2152.65 759.5 2165.3 759.5Z" fill="white"/>
<path d="M2082 759.5C2094.65 759.5 2104.9 749.606 2104.9 737.4C2104.9 725.195 2094.65 715.3 2082 715.3C2069.35 715.3 2059.1 725.195 2059.1 737.4C2059.1 749.606 2069.35 759.5 2082 759.5Z" fill="white"/>
<path d="M1998.7 759.5C2011.35 759.5 2021.6 749.606 2021.6 737.4C2021.6 725.195 2011.35 715.3 1998.7 715.3C1986.05 715.3 1975.8 725.195 1975.8 737.4C1975.8 749.606 1986.05 759.5 1998.7 759.5Z" fill="white"/>
<path d="M1171.2 834.6H1165.6V850.3H1171.2V834.6Z" fill="#CCC2FF"/>
<path d="M1171.2 928.9H1165.6V944.6H1171.2V928.9Z" fill="#CCC2FF"/>
<path d="M1143.27 840.528L1138.42 843.328L1146.27 856.924L1151.12 854.124L1143.27 840.528Z" fill="#CCC2FF"/>
<path d="M1190.37 922.305L1185.52 925.105L1193.37 938.701L1198.22 935.901L1190.37 922.305Z" fill="#CCC2FF"/>
<path d="M1122.04 859.675L1119.24 864.525L1132.84 872.375L1135.64 867.525L1122.04 859.675Z" fill="#CCC2FF"/>
<path d="M1203.77 906.901L1200.97 911.75L1214.57 919.6L1217.37 914.751L1203.77 906.901Z" fill="#CCC2FF"/>
<path d="M1129 886.8H1113.3V892.4H1129V886.8Z" fill="#CCC2FF"/>
<path d="M1223.4 886.8H1207.7V892.4H1223.4V886.8Z" fill="#CCC2FF"/>
<path d="M1132.87 906.935L1119.28 914.783L1122.08 919.633L1135.67 911.785L1132.87 906.935Z" fill="#CCC2FF"/>
<path d="M1214.66 859.666L1201.06 867.515L1203.86 872.365L1217.46 864.516L1214.66 859.666Z" fill="#CCC2FF"/>
<path d="M1146.26 922.293L1138.41 935.889L1143.26 938.689L1151.11 925.093L1146.26 922.293Z" fill="#CCC2FF"/>
<path d="M1193.37 840.5L1185.52 854.096L1190.37 856.896L1198.22 843.3L1193.37 840.5Z" fill="#CCC2FF"/>
<path d="M1995.1 443.8H1989.5C1989.5 421 1971 402.5 1948.2 402.5V396.9C1971 396.9 1989.5 378.4 1989.5 355.6H1995.1C1995.1 378.4 2013.6 396.9 2036.4 396.9V402.5C2013.6 402.6 1995.1 421.1 1995.1 443.8ZM1964.1 399.7C1977.1 404.4 1987.5 414.8 1992.2 427.8C1996.9 414.8 2007.3 404.4 2020.3 399.7C2007.3 395 1996.9 384.6 1992.2 371.6C1987.5 384.7 1977.2 395 1964.1 399.7Z" fill="#CCC2FF"/>
<path d="M777.3 1218.4H741.8V1224H777.3V1218.4Z" fill="#CCC2FF"/>
<path d="M762.3 1203.4H756.7V1238.9H762.3V1203.4Z" fill="#CCC2FF"/>
<path d="M2320.5 1246.3C2303.7 1246.3 2290 1232.6 2290 1215.8C2290 1199 2303.7 1185.3 2320.5 1185.3C2337.3 1185.3 2351 1199 2351 1215.8C2351 1232.6 2337.3 1246.3 2320.5 1246.3ZM2320.5 1190.8C2306.7 1190.8 2295.6 1202 2295.6 1215.7C2295.6 1229.4 2306.8 1240.6 2320.5 1240.6C2334.3 1240.6 2345.4 1229.4 2345.4 1215.7C2345.4 1202 2334.2 1190.8 2320.5 1190.8Z" fill="#CCC2FF"/>
<path d="M1813.3 569.8L1790.5 545.1C1793 542.8 1795.4 540.3 1797.7 537.7L1823.3 559.6C1820.1 563.1 1816.8 566.6 1813.3 569.8Z" fill="#DDD6FF"/>
<path d="M1830.7 549.9L1803.1 530.7C1813.4 516 1818.8 498.7 1818.8 480.8C1818.8 432.5 1779.5 393.2 1731.2 393.2H1435.3V359.6H1731.2C1798.1 359.6 1852.5 414 1852.5 480.9C1852.4 505.6 1844.9 529.6 1830.7 549.9Z" fill="#EDEBFF"/>
<path d="M1420.2 359.5H1323.3V393.1H1420.2V359.5Z" fill="#E9E6FF"/>
<path d="M1679 602H1247.4C1180.5 602 1126.1 547.6 1126.1 480.7C1126.1 413.8 1180.5 359.4 1247.4 359.4H1286V393H1247.4C1199.1 393 1159.8 432.3 1159.8 480.6C1159.8 528.9 1199.1 568.2 1247.4 568.2H1679V602Z" fill="#E9E6FF"/>
<path d="M1731.1 602H1688.3V568.4H1731.1C1740.3 568.4 1749.3 567 1758 564.2L1768.4 596.2C1756.4 600.1 1743.8 602 1731.1 602Z" fill="#DDD6FF"/>
</svg>
