<svg width="3000" height="2000" viewBox="0 0 3000 2000" fill="none" xmlns="http://www.w3.org/2000/svg">
<rect width="3000" height="2000" fill="#white"/>
<g clip-path="url(#clip0_2_1523)">
<path d="M3000 121H0V1879.8H3000V121Z" fill="#white"/>
<path d="M637.4 1424.4L2044.4 1205.3V1562.4H637.4V1424.4Z" fill="#E9E6FF"/>
<path d="M2202.8 1180.7V1562.4H2148.4L2129.4 1440.7L2091.7 1198L2202.8 1180.7Z" fill="#DDD6FF"/>
<path d="M1348.3 1562.4L2044.4 1454V1562.4H1348.3Z" fill="#F2F0FF"/>
<path d="M2374.8 1402.5V1562.4H2148.4L2129.4 1440.7L2202.8 1429.3L2374.8 1402.5Z" fill="#E9E6FF"/>
<path d="M2043.9 1417.9H855.4V1562.4H2043.9V1417.9Z" fill="#D6CEFF"/>
<path d="M2044 1417.76L2044 429.657L855.397 429.657L855.397 1417.76L2044 1417.76Z" fill="#white"/>
<path d="M2670.3 1581.3H315.4V1600.9H2670.3V1581.3Z" fill="#B3A4F5"/>
<path d="M2543.2 1622H2114.7V1641.6H2543.2V1622Z" fill="#DDD6FF"/>
<path d="M2097.6 1622H2053.5V1641.6H2097.6V1622Z" fill="#CCC2FF"/>
<path d="M1118.8 1661.3H557.3V1671.1H1118.8V1661.3Z" fill="#E9E6FF"/>
<path d="M1144.3 1661.3H1134.1V1671.1H1144.3V1661.3Z" fill="#CCC2FF"/>
<path d="M1698.5 1661.3H1164.4V1671.1H1698.5V1661.3Z" fill="#E9E6FF"/>
<path d="M1920.7 1661.3H1724.7V1671.1H1920.7V1661.3Z" fill="#DDD6FF"/>
<path d="M2268.7 1661.3H1933.8V1671.1H2268.7V1661.3Z" fill="#DDD6FF"/>
<path d="M2304.7 1661.3H2293.2V1671.1H2304.7V1661.3Z" fill="#E9E6FF"/>
<path d="M2041.7 1622H1863.3V1641.6H2041.7V1622Z" fill="#DDD6FF"/>
<path d="M1843.1 1622H1371.2V1641.6H1843.1V1622Z" fill="#CCC2FF"/>
<path d="M1354.3 1622H1024.4V1641.6H1354.3V1622Z" fill="#DDD6FF"/>
<path d="M1013.4 1622H996.6V1641.6H1013.4V1622Z" fill="#CCC2FF"/>
<path d="M984 1622H417.1V1641.6H984V1622Z" fill="#DDD6FF"/>
<path d="M2046.4 865.1H2042.5V1139.7H2046.4V865.1Z" fill="#624AC9"/>
<path d="M2028.3 445.4H871.1V1402.2H2028.3V445.4Z" fill="#white"/>
<path d="M2028.3 937.7V1402.2H871.1V1117.8L2028.3 937.7Z" fill="#FFE4E0"/>
<path d="M2028.3 1063.7V1402.2H871.1V1243.8L2028.3 1063.7Z" fill="#white"/>
<path d="M871.1 1402.2V1323.2L2028.3 1143.1V1402.2H871.1Z" fill="#F2F0FF"/>
<path d="M2028.3 445.4V538.4L871.1 718.5V445.4H2028.3Z" fill="#E9E6FF"/>
<path d="M1399.4 1417.9L855.4 1502.5V1417.9H1399.4Z" fill="#B3A4F5"/>
<path d="M2129.4 1440.7L2044.4 1454V1205.3L2091.7 1198L2129.4 1440.7Z" fill="#B3A4F5"/>
<path d="M2148.4 1562.4H2044.4V1454L2129.4 1440.7L2148.4 1562.4Z" fill="#DDD6FF"/>
<path d="M1352.9 1562.4L2044 1454.8V1562.4H1352.9Z" fill="#white"/>
<path d="M1028.2 549.3H1024.3V1108.5H1028.2V549.3Z" fill="#8B77E8"/>
<path d="M1134 1181.6H1130.1V1284.9H1134V1181.6Z" fill="#8B77E8"/>
<path d="M1134 549.3H1130.1V1048.4H1134V549.3Z" fill="#8B77E8"/>
<path d="M1239.9 1215.5H1236V1284.8H1239.9V1215.5Z" fill="#8B77E8"/>
<path d="M1239.9 549.3H1236V1089.4H1239.9V549.3Z" fill="#8B77E8"/>
<path d="M1345.7 1080.5H1341.8V1284.8H1345.7V1080.5Z" fill="#8B77E8"/>
<path d="M1345.7 792.4H1341.8V937.7H1345.7V792.4Z" fill="#8B77E8"/>
<path d="M1345.7 549.3H1341.8V734H1345.7V549.3Z" fill="#8B77E8"/>
<path d="M1451.5 968.2H1447.6V1284.8H1451.5V968.2Z" fill="#8B77E8"/>
<path d="M1451.5 549.3H1447.6V860.7H1451.5V549.3Z" fill="#8B77E8"/>
<path d="M1557.3 900.1H1553.4V1284.8H1557.3V900.1Z" fill="#8B77E8"/>
<path d="M1557.3 549.3H1553.4V635.2H1557.3V549.3Z" fill="#8B77E8"/>
<path d="M1663.2 1164.6H1659.3V1284.8H1663.2V1164.6Z" fill="#8B77E8"/>
<path d="M1663.2 855.8H1659.3V1080.5H1663.2V855.8Z" fill="#8B77E8"/>
<path d="M1663.2 549.3H1659.3V749.1H1663.2V549.3Z" fill="#8B77E8"/>
<path d="M1769 764.3H1765.1V1284.8H1769V764.3Z" fill="#8B77E8"/>
<path d="M1769 549.3H1765.1V638.6H1769V549.3Z" fill="#8B77E8"/>
<path d="M1874.8 840.4H1870.9V1284.8H1874.8V840.4Z" fill="#8B77E8"/>
<path d="M1816.8 597.6H976.7V601.5H1816.8V597.6Z" fill="#8B77E8"/>
<path d="M1059.9 703.4H976.7V707.3H1059.9V703.4Z" fill="#8B77E8"/>
<path d="M1727 703.4H1107V707.3H1727V703.4Z" fill="#8B77E8"/>
<path d="M1503.2 809.3H976.7V813.2H1503.2V809.3Z" fill="#8B77E8"/>
<path d="M1838.7 809.3H1745.4V813.2H1838.7V809.3Z" fill="#8B77E8"/>
<path d="M1157.2 915.1H976.7V919H1157.2V915.1Z" fill="#8B77E8"/>
<path d="M1419.5 915.1H1181.4V919H1419.5V915.1Z" fill="#8B77E8"/>
<path d="M1922.8 915.1H1497.7V919H1922.8V915.1Z" fill="#8B77E8"/>
<path d="M1290.5 1020.9H976.7V1024.8H1290.5V1020.9Z" fill="#8B77E8"/>
<path d="M1824.5 1020.9H1411.2V1024.8H1824.5V1020.9Z" fill="#8B77E8"/>
<path d="M1922.8 1020.9H1854.8V1024.8H1922.8V1020.9Z" fill="#8B77E8"/>
<path d="M1922.8 1126.7H1285.6V1130.6H1922.8V1126.7Z" fill="#8B77E8"/>
<path d="M1922.8 1232.6H1090.6V1236.5H1922.8V1232.6Z" fill="#8B77E8"/>
<path d="M978.7 1299.2L961.6 1282.2L1127.1 1116.6H1232.9L1550 799.2H1656.2L1926.5 528.8L1943.6 545.9L1666.2 823.3H1560.1L1242.9 1140.8H1137.1L978.7 1299.2Z" fill="#FF809F"/>
<path d="M857.4 672.6H853.5V427.7H1202.9V431.7H857.4V672.6Z" fill="#624AC9"/>
<path d="M857.4 1202.2H853.5V1466.9H857.4V1202.2Z" fill="#624AC9"/>
<path d="M1325 427.7H1277.4V431.6H1325V427.7Z" fill="#624AC9"/>
<path d="M1933.1 427.7H1344.2V431.6H1933.1V427.7Z" fill="#624AC9"/>
<path d="M1557 653.6H1553.1V749.1H1557V653.6Z" fill="#8B77E8"/>
<path d="M1501.9 878.886L1284.31 1096.62L1287.07 1099.38L1504.66 881.643L1501.9 878.886Z" fill="#D64B8F"/>
<path d="M1823.18 662.982L1705.84 780.96L1708.6 783.71L1825.95 665.733L1823.18 662.982Z" fill="#D64B8F"/>
<path d="M2580.1 1581.3H2100.4V1585.2H2580.1V1581.3Z" fill="#4F37B3"/>
<path d="M2045.9 429.7H2042V664.3H2045.9V429.7Z" fill="#624AC9"/>
<path d="M857.4 997.8H853.5V1033.8H857.4V997.8Z" fill="#624AC9"/>
<path d="M2046.4 1181.6H2042.5V1224.7H2046.4V1181.6Z" fill="#624AC9"/>
<path d="M2045.9 1352.5H2042V1562.4H2045.9V1352.5Z" fill="#624AC9"/>
<path d="M800.4 1481L780.4 1585H608.7L598.8 1533.9L588.7 1481H800.4Z" fill="#white"/>
<path d="M796.5 1481L792.1 1503.8L776.4 1585H608.7L598.8 1533.9L588.7 1481H796.5Z" fill="#FFE159"/>
<path d="M796.5 1481L792.1 1503.8L598.8 1533.9L588.7 1481H796.5Z" fill="#FFC359"/>
<path d="M366.9 760.6L416.4 747.3C455.8 736.7 497 743.2 530.7 763.7L539 820.2C539.6 824.2 543.3 827 547.4 826.4C551.4 825.8 554.2 822.1 553.6 818L547.3 775.4C553.8 780.8 560 786.8 565.6 793.3L569.1 797.3L583.6 895.5C584.2 899.5 587.9 902.3 592 901.7C596 901.1 598.8 897.4 598.2 893.3L587.2 818.3L672.2 917.5L622.6 931C568.4 945.5 510.7 927.8 474 885.5L497.8 878.6C501.7 877.5 503.9 873.5 502.9 869.6V869.5C501.8 865.6 497.7 863.3 493.8 864.5L463.5 873.3L366.9 760.6Z" fill="#A292ED"/>
<path d="M592.4 693L575.5 691L574.8 694.3C573.2 701.8 572.6 709.1 572.7 716.2L617.7 721.5C621 721.9 623.4 724.9 623 728.3C622.7 730.5 621.3 732.3 619.4 733.1C618.4 733.5 617.4 733.7 616.2 733.6L573.8 728.6C574.9 735.2 576.6 741.5 579 747.4L645.9 755.3C649.2 755.7 651.6 758.7 651.2 762.1C650.9 764.3 649.5 766.1 647.6 766.9C646.6 767.3 645.6 767.5 644.4 767.4L585.4 760.4C607.8 797.8 656 817.8 701.8 797.6L601.4 569.6L578 679L593.8 680.9C597.1 681.3 599.5 684.3 599.1 687.7C598.8 689.9 597.4 691.7 595.5 692.5C594.7 692.9 593.6 693.1 592.4 693ZM597.3 652C597.7 648.7 600.7 646.3 604.1 646.7L614.1 647.9C617.4 648.3 619.8 651.3 619.4 654.7C619.1 656.9 617.7 658.7 615.8 659.5C614.8 659.9 613.8 660.1 612.6 660L602.6 658.8C599.3 658.4 596.9 655.4 597.3 652Z" fill="#CCC2FF"/>
<path d="M964.6 676.2L781.7 779.4L822.9 843.1L825 846.4C826.8 849.2 826 853 823.2 854.8C821.1 856.2 818.5 856.1 816.6 854.8C815.9 854.3 815.3 853.7 814.8 853L806.7 840.5L771 785.4L744 800.7C743.8 800.8 743.7 800.9 743.5 801L771.5 844.3C773.3 847.1 772.5 850.9 769.7 852.7C767.6 854.1 765 854 763.1 852.7C762.4 852.3 761.8 851.6 761.3 850.9L733.5 807.9C729.3 811.4 725.6 815.3 722.4 819.5L793.5 939L768.3 977.6L821.5 986.1L857.7 991.9C894 997.7 927.9 975 937.6 940.9L839.8 925.3C838.9 925.2 838.1 924.8 837.4 924.4C835.4 923.1 834.3 920.8 834.7 918.3C835.2 915 838.3 912.7 841.7 913.2L939.8 928.8C939.8 928.6 939.8 928.4 939.9 928.2L941.3 913.5L822.2 894.5L852.7 847.7L946.3 862.6L950 826L877.6 814.5C876.7 814.4 875.9 814.1 875.2 813.6C873.2 812.3 872.1 810 872.5 807.5C873 804.2 876.2 801.9 879.5 802.4L951.2 813.8L956.5 759L915 752.4L964.6 676.2ZM933.5 772.4C936.8 772.9 939.1 776 938.6 779.4C938.1 782.7 934.9 785 931.6 784.5L905.6 780.4C904.7 780.3 903.9 779.9 903.2 779.5C901.6 778.5 900.6 776.8 900.4 774.9C900.4 774.4 900.4 774 900.4 773.5C900.8 771.2 902.4 769.4 904.4 768.7C905.3 768.4 906.4 768.3 907.4 768.4L933.5 772.4Z" fill="#B3A4F5"/>
<path d="M793.5 939L768.3 977.6L719.1 901.6C702.2 875.5 704.6 842.7 722.3 819.5L793.5 939Z" fill="#8B77E8"/>
<path d="M946.4 862.8L941.4 913.7L822.4 894.7L852.8 847.9L946.4 862.8Z" fill="#CCC2FF"/>
<path d="M659.6 1032.9L625.3 943.6L536 909.4C499.7 895.5 459.7 911.5 442.3 944.7L492.8 964C493.7 964.3 494.4 964.8 495 965.5C496.8 967.2 497.4 969.9 496.5 972.4C495.2 975.7 491.5 977.4 488.2 976.1L437.3 956.6C437.2 956.8 437.2 957 437.1 957.2L427.2 988.5L506.6 1018.9C507.5 1019.2 508.2 1019.7 508.8 1020.4C510.5 1022.1 511.2 1024.8 510.3 1027.3C509 1030.6 505.3 1032.3 502 1031L423.3 1000.9L417 1020.9L511.9 1057.2L548.3 1152L611.9 1131.9C612.1 1131.8 612.3 1131.8 612.5 1131.7L574.9 1033.7C573.6 1030.4 575.3 1026.6 578.6 1025.4C581.1 1024.5 583.7 1025.1 585.5 1026.9C586.1 1027.5 586.6 1028.3 587 1029.1L624.5 1126.7C657.5 1109.2 673.5 1069.1 659.6 1032.9Z" fill="#CCC2FF"/>
<path d="M472.2 1088.5C474.7 1087.5 477.3 1088.2 479.1 1090C479.7 1090.6 480.2 1091.4 480.6 1092.2L508.4 1164.5L548.4 1151.9L512 1057.1L417.1 1020.8L383.3 1128.1L425 1144.1L441 1185.8L496 1168.4L468.5 1096.8C467.3 1093.5 468.9 1089.7 472.2 1088.5ZM457.7 1162.9C454.4 1164.2 450.6 1162.5 449.4 1159.2L439.4 1133.2C438.1 1129.9 439.8 1126.2 443.1 1124.9C445.6 1124 448.2 1124.6 450 1126.4C450.6 1127 451.1 1127.8 451.5 1128.6L461.5 1154.6C462.7 1157.9 461 1161.7 457.7 1162.9Z" fill="#B3A4F5"/>
<path d="M441 1185.8L356.7 1212.4L383.3 1128.1L425 1144L441 1185.8Z" fill="#DDD6FF"/>
<path d="M594.094 1042.1L590.453 1043.5L616.257 1110.72L619.898 1109.32L594.094 1042.1Z" fill="#8B77E8"/>
<path d="M524.142 1083.66L520.501 1085.06L538.994 1133.23L542.635 1131.84L524.142 1083.66Z" fill="#8B77E8"/>
<path d="M429.412 1136.97L355.4 1211.03L358.159 1213.79L432.171 1139.72L429.412 1136.97Z" fill="#8B77E8"/>
<path d="M623.938 942.2L487.79 1078.43L490.548 1081.18L626.697 944.957L623.938 942.2Z" fill="#8B77E8"/>
<path d="M513.811 941.616L512.417 945.258L593.666 976.361L595.061 972.719L513.811 941.616Z" fill="#8B77E8"/>
<path d="M448.195 1008.26L446.801 1011.9L481.168 1025.06L482.563 1021.41L448.195 1008.26Z" fill="#8B77E8"/>
<path d="M899.982 816.071L899.369 819.922L937.688 826.022L938.301 822.17L899.982 816.071Z" fill="#8B77E8"/>
<path d="M913.801 750.226L913.19 754.078L914.672 754.313L915.283 750.461L913.801 750.226Z" fill="#B3A4F5"/>
<path d="M827.004 797.028L823.653 799.024L852.263 847.048L855.613 845.052L827.004 797.028Z" fill="#8B77E8"/>
<path d="M964.6 676.2L956.5 759.1L915 752.5L964.6 676.2Z" fill="#8B77E8"/>
<path d="M701.9 1443.1H698V1082.1L864.1 827.1L867.4 829.2L701.9 1083.2V1443.1Z" fill="#8B77E8"/>
<path d="M646.349 666.835L642.781 668.409L700.132 798.416L703.7 796.842L646.349 666.835Z" fill="#8B77E8"/>
<path d="M680 1385H676.1V993.5L609.6 915.9L612.6 913.4L680 992.1V1385Z" fill="#8B77E8"/>
<path d="M701.9 919.3H698V1037.4H701.9V919.3Z" fill="#8B77E8"/>
<path d="M534.818 778.371L530.959 778.939L535.604 810.498L539.462 809.93L534.818 778.371Z" fill="#8B77E8"/>
<path d="M963.027 675.193L908.437 758.983L911.705 761.112L966.295 677.322L963.027 675.193Z" fill="#8B77E8"/>
<path d="M809.7 1479H575.4V1482.9H809.7V1479Z" fill="#624AC9"/>
<path d="M941.8 1116.7C945.8 1115.7 949.8 1118.1 950.8 1122.1L956.8 1145.6H1032.5L733.8 1001.4C727.1 1057.4 757.2 1108.5 804 1132L785.1 1058C784.1 1054 786.5 1050 790.5 1049C794.5 1048 798.5 1050.4 799.5 1054.4L821.1 1139.1C833.8 1143.3 847.5 1145.6 861.7 1145.6H941.5L936.4 1125.7C935.4 1121.8 937.8 1117.7 941.8 1116.7ZM855.4 1130.2C853.6 1130.6 851.9 1130.4 850.3 1129.7C848.4 1128.8 846.9 1127.1 846.3 1124.9L838.7 1095.1C837.7 1091.1 840.1 1087.1 844.1 1086.1C848.1 1085.1 852.1 1087.5 853.1 1091.5L860.7 1121.3C861.7 1125.1 859.3 1129.2 855.4 1130.2Z" fill="#B3A4F5"/>
<path d="M718.994 992.137L717.298 995.649L982.315 1123.61L984.011 1120.1L718.994 992.137Z" fill="#8B77E8"/>
<path d="M2221.9 848.5L2187.7 843.7V843.8L2221.9 848.5Z" fill="#FFC7BD"/>
<path d="M2277.9 744.1C2278.2 742.8 2278.6 741.6 2279 740.3L2262.3 738C2262.3 739.3 2262 740.6 2261.6 741.9L2277.9 744.1Z" fill="#624AC9"/>
<path d="M2177.9 726.3L2177.4 730.2L2217.8 735.8C2217 734.5 2216.4 733.1 2216.2 731.6L2177.9 726.3Z" fill="#624AC9"/>
<path d="M2591.46 783.669L2590.92 787.532L2831.31 820.952L2831.85 817.089L2591.46 783.669Z" fill="#624AC9"/>
<path d="M2566.71 780.22L2566.17 784.083L2579.05 785.873L2579.59 782.01L2566.71 780.22Z" fill="#624AC9"/>
<path d="M2784.4 878.1L2793.1 816L2795 816.3L2683.8 800.8L2682 813.4L2675.2 862.9L2784.4 878.1Z" fill="#FF809F"/>
<path d="M2271.3 778L2269.7 789.7L1991 750.9L1988.7 767.4L2287.6 809C2287.4 807.4 2287.1 805.9 2286.8 804.4C2284.4 800.5 2282.3 796.3 2280.6 792C2280.3 791.2 2280 790.5 2279.8 789.8C2277.1 782.1 2275.5 773.9 2275.4 765.4C2275.3 758.1 2276.2 751.1 2277.9 744.4L2261.6 742.1C2261.4 742.6 2261.2 743.2 2260.9 743.7C2257.5 750.5 2249.2 753.2 2242.4 749.7L2221.4 739C2219.9 738.3 2218.8 737.2 2217.9 735.9L1997.3 705.2L1992.6 739.1L2271.3 778Z" fill="#FFC359"/>
<path d="M2425.5 789.4C2424 793.8 2422.1 798 2419.8 802C2419.1 805 2418.8 808.5 2419.1 812.3C2419.5 818.7 2420.8 823.7 2422.6 827.8L2638.4 857.8L2647 795.7L2429.7 765.5C2429.6 773 2428.4 780.2 2426.2 787.1C2426 787.8 2425.8 788.6 2425.5 789.4Z" fill="#FFC359"/>
<path d="M1875.3 721L1871.1 751.1L1896.4 754.6L1900.6 724.5L1873.3 720.7L1875.3 721Z" fill="#8B77E8"/>
<path d="M1900.3 755.2L1984.8 767L1987.1 750.5L1964.4 747.3L1966 735.6L1988.7 738.8L1993.3 705.6L1902.5 724.9L1904.4 725.2L1900.3 755.2ZM1943.4 732.4L1955.2 734L1953.6 745.7L1941.8 744.1L1943.4 732.4Z" fill="#8B77E8"/>
<path d="M1825.2 760.7L1818.6 715.7L1818.2 713.1L1818.1 712.8L1814.3 713.4L1821.7 764.2L1851.3 768.3L1851.9 764.4L1849.9 764.1L1825.2 760.7Z" fill="#white"/>
<path d="M1818.6 715.7L1822.4 715.1L1826.8 744.9L1867.2 750.6L1871.4 720.5L1873.3 720.7L1818.2 713.1L1818.6 715.7Z" fill="#E5659B"/>
<path d="M2492.54 886.241L2492.01 890.104L2729.53 923.124L2730.06 919.261L2492.54 886.241Z" fill="#624AC9"/>
<path d="M2779.7 926.1L2777.8 925.8L2784.4 878.1L2675.2 862.9L2669.8 901.3L2668.5 910.6L2779.7 926.1Z" fill="#E5659B"/>
<path d="M2422.6 827.8C2429.4 843 2443.4 847.1 2444.8 870.7C2445 874 2445 876.9 2444.9 879.6L2631.8 905.6L2638.4 857.9L2422.6 827.8Z" fill="#FFAA45"/>
<path d="M2225 848.9L2247.4 850.2L2257.4 850.8L2270.7 851.6C2277.5 840.9 2287.4 834.5 2287.8 814.6C2287.8 812.6 2287.7 810.7 2287.5 808.9L1988.6 767.3L1982 815L2187.6 843.6L2221.8 848.4L2225 848.9Z" fill="#FFAA45"/>
<path d="M1900.3 755.2L1898.1 770.8L1894.3 770.3L1896.4 754.6L1871.1 751.1L1868.9 766.8L1896.2 770.6L1978.3 813.9L1984.8 766.9L1900.3 755.2Z" fill="#624AC9"/>
<path d="M1826.8 744.9L1828.6 757.2L1865.6 762.3L1865 766.2L1849.9 764.1L1851.9 764.4L1865 766.2L1867.2 750.6L1826.8 744.9Z" fill="#BF307B"/>
<path d="M2788.3 878.6L2823.1 883.5L2816.5 931.2L2831.8 821.4L2797 816.5L2788.3 878.6Z" fill="#8B77E8"/>
<path d="M2638.4 857.8L2631.8 905.5L2668.5 910.6L2675.1 862.9L2638.4 857.8Z" fill="#DDD6FF"/>
<path d="M2647.13 795.624L2638.48 857.729L2675.23 862.845L2683.88 800.741L2647.13 795.624Z" fill="#white"/>
<path d="M2682 813.4L2683.8 800.8L2675.1 862.9L2668.5 910.6L2669.8 901.3L2675.2 862.9L2682 813.4Z" fill="#8B77E8"/>
<path d="M2788.3 878.6L2797 816.5L2795 816.3L2793.1 816L2784.4 878.1L2777.8 925.8L2779.7 926.1L2816.5 931.2L2823.1 883.5L2788.3 878.6Z" fill="#624AC9"/>
<path d="M1875.3 721L1873.3 720.7L1871.4 720.5L1867.2 750.6L1865 766.2L1868.9 766.8L1871.1 751.1L1875.3 721Z" fill="#4F37B3"/>
<path d="M1894.3 770.3L1898.1 770.8L1900.3 755.2L1904.5 725.1L1902.6 724.8L1900.6 724.5L1896.4 754.6L1894.3 770.3Z" fill="#4F37B3"/>
<path d="M1943.37 732.341L1941.75 744.029L1953.53 745.667L1955.16 733.979L1943.37 732.341Z" fill="#white"/>
<path d="M1991 750.9L2269.7 789.7L2271.3 778L1992.6 739.3L1997.4 705.3L1993.5 704.8L1993.4 705.5L1988.8 738.7L1966.1 735.6L1964.5 747.2L1987.1 750.4L1984.8 766.9L1978.3 813.9L1978.2 814.6L1980.2 814.9L1982.1 815.2V815.1L1988.7 767.4L1991 750.9Z" fill="#white"/>
<path d="M1989.18 816.109L1988.64 819.972L2006.77 822.492L2007.31 818.629L1989.18 816.109Z" fill="#624AC9"/>
<path d="M1818.6 715.7L1825.2 760.7L1849.9 764.1L1865 766.2L1865.6 762.3L1828.6 757.2L1826.8 744.9L1822.4 715.1L1818.6 715.7Z" fill="#4F37B3"/>
<path d="M2318.1 1563.7H2343.7C2343.7 1563.5 2343.7 1563.3 2343.7 1563.1L2330.6 1269.3H2286.2L2318.1 1563.7Z" fill="#FF95A9"/>
<path d="M2268.3 1104.8L2286 1267.8L2268.4 1105C2268.3 1104.9 2268.3 1104.8 2268.3 1104.8Z" fill="#FF95A9"/>
<path d="M2318.1 1563.7L2305.2 1571.1C2303.5 1572.1 2302.5 1573.9 2302.5 1575.8C2302.5 1578.8 2304.9 1581.3 2308 1581.3H2343.7V1563.7H2318.1V1563.7Z" fill="#40327A"/>
<path d="M2267.8 897.6C2268.1 898.5 2268.4 899.3 2268.8 900.2L2269.8 898L2267.8 897.6Z" fill="#40327A"/>
<path d="M2391.2 1045.1L2396.3 1045.3L2404 1034.8L2452 968.9C2450.2 966 2448.2 963.3 2446.2 960.6C2441.1 953.7 2436.1 947 2434.3 938L2406.1 919.1L2371.7 1025.3L2375.9 1028.6C2382 1033.3 2387.2 1038.9 2391.2 1045.1Z" fill="#40327A"/>
<path d="M2420.8 1048.8L2415.3 1054.6C2434.5 1047.4 2449.4 1031.7 2455.6 1012.1L2420.8 1048.8Z" fill="#40327A"/>
<path d="M2279.9 1024.7C2279.9 1023.7 2279.9 1022.7 2280 1021.6L2281.4 955.5C2278.5 955 2275.8 954 2273.2 952.7C2271.2 956.6 2268.7 960.2 2266.2 963.9C2260.4 972.4 2254.6 981.2 2254.8 994.2C2255.1 1012 2262.3 1028 2273.8 1039.8C2275.5 1034.7 2277.5 1029.6 2279.9 1024.7Z" fill="#40327A"/>
<path d="M2444.8 870.6C2443.4 847 2429.4 843 2422.6 827.7C2420.7 823.6 2419.4 818.6 2419.1 812.2C2418.9 808.3 2419.2 804.9 2419.8 801.9C2422.1 797.9 2424 793.7 2425.5 789.3C2425.8 788.5 2426 787.8 2426.3 787C2428.5 780.1 2429.7 772.9 2429.8 765.4C2429.8 764.4 2429.8 763.4 2429.8 762.4C2429 719.8 2393.8 685.8 2351.2 686.6C2317.3 687.2 2288.9 709.6 2279.1 740.2C2278.7 741.5 2278.3 742.7 2278 744C2278 744.1 2278 744.1 2277.9 744.2C2276.1 750.9 2275.2 758 2275.4 765.2C2275.6 773.7 2277.1 782 2279.8 789.6C2280.1 790.4 2280.3 791.1 2280.6 791.8C2282.3 796.1 2284.4 800.3 2286.8 804.2C2287.2 805.6 2287.4 807.2 2287.6 808.8C2287.8 810.6 2287.9 812.5 2287.9 814.5C2287.5 834.4 2277.6 840.7 2270.8 851.5L2310 853.8C2310.1 853.8 2310.1 853.8 2310.2 853.8H2310.6C2310.7 853.8 2310.7 853.8 2310.8 853.8L2321.4 854.5C2321.4 854 2321.5 853.5 2321.5 853.1L2325.9 820L2323.3 819.7C2305.1 817.3 2292.8 800 2296.4 782L2306.4 731.6C2319.9 734.9 2332.3 741.8 2342.3 751.6C2351.6 760.8 2363.6 766.7 2376.5 768.4L2378.4 768.7C2383.8 769.4 2387.5 774.4 2386.8 779.7C2386.1 785.1 2381.1 788.8 2375.8 788.1L2373.9 787.8L2368.8 825.7H2368.7L2364.4 857.3L2366 857.4L2383.9 858.6L2404.8 860C2405.6 860.1 2406.3 860.2 2407.1 860.3C2410.4 860.9 2413.6 862.2 2416.5 864.2C2417.4 864.8 2418.3 865.5 2419.1 866.2L2443.9 887.9C2444.4 885.3 2444.8 882.4 2445 879.1C2445 876.8 2445 873.9 2444.8 870.6Z" fill="#40327A"/>
<path d="M2365.9 857.8L2364.3 857.7L2365.9 857.8Z" fill="#FFC7BD"/>
<path d="M2381.5 1071.5C2380.1 1071.9 2378.6 1072.1 2377 1072.1C2369.4 1071.8 2363.5 1065.5 2363.8 1057.9C2364.1 1050.3 2370.4 1044.4 2378 1044.7L2391.2 1045.2C2387.1 1038.9 2382 1033.3 2376 1028.6L2371.8 1025.3L2371.1 1024.8H2320.2H2279.9C2277.5 1029.7 2275.5 1034.7 2273.8 1039.9C2270.1 1051.2 2268.2 1063 2268.2 1075V1101.9C2268.2 1102.6 2268.3 1103.3 2268.3 1104L2268.4 1104.5C2268.4 1104.6 2268.4 1104.8 2268.4 1104.9C2268.4 1105 2268.4 1105 2268.4 1105.1L2286 1267.9L2286.2 1269.5H2330.6H2396.4H2440.1L2409.1 1119.9L2411.3 1119.4L2400.9 1068.7C2400.7 1067.8 2400.5 1066.9 2400.3 1066L2381.5 1071.5Z" fill="#8B77E8"/>
<path d="M2419 866.6C2418.2 865.9 2417.3 865.2 2416.4 864.6C2413.5 862.6 2410.3 861.4 2407 860.7C2406.3 860.5 2405.5 860.4 2404.7 860.4L2383.8 859L2311.8 899.6L2314.8 854.3L2321.2 854.7L2310.6 854C2310.5 854 2310.5 854 2310.4 854H2310C2309.9 854 2309.9 854 2309.8 854L2270.6 851.7L2257.3 850.9L2257.1 854.8L2224.1 852.8L2186.7 847.6L2183.3 861.7C2180.9 871.6 2187 881.6 2197 884C2197.3 884.1 2197.6 884.1 2197.8 884.2L2267.7 897.6L2269.7 898L2271.7 893.7L2275.3 895.3L2264.7 918.7C2263.5 921.3 2262.8 924.1 2262.6 926.9C2261.7 939.8 2271.6 951.1 2284.5 951.9C2288.3 952.1 2291.9 951.5 2295.3 950L2296.9 953.6C2293.5 955.1 2289.8 955.8 2286.1 955.8C2285.5 955.8 2284.8 955.8 2284.2 955.7C2283.2 955.6 2282.3 955.5 2281.4 955.4L2280 1021.5C2279.9 1022.5 2279.9 1023.6 2279.9 1024.6H2320.2H2371.1L2371.8 1025.1L2406.2 918.9L2434.4 937.8L2461.4 955.9L2452 968.7L2404 1034.6L2420.8 1048.6L2455.6 1012L2501.1 964C2501.6 963.4 2502.2 962.8 2502.7 962.2C2508.4 954.4 2507.1 943.6 2500 937.4L2443.9 888.2L2419 866.6ZM2274.9 886.8L2278.2 879.5L2281.8 881.1L2278.5 888.4L2274.9 886.8Z" fill="#FFC7BD"/>
<path d="M2404 1034.8L2396.3 1045.3L2391.2 1045.1L2378 1044.6C2370.4 1044.3 2364.1 1050.3 2363.8 1057.8C2363.5 1065.4 2369.5 1071.7 2377 1072C2378.6 1072.1 2380.1 1071.8 2381.5 1071.4L2400.2 1065.7L2404 1064.6C2405.6 1064.1 2407.1 1063.2 2408.2 1062L2415.2 1054.6L2420.7 1048.8L2404 1034.8Z" fill="#FF95A9"/>
<path d="M2319.5 802.8C2325.4 803.7 2330.9 799.7 2331.8 793.8L2310.5 790.5C2309.6 796.3 2313.6 801.8 2319.5 802.8Z" fill="#white"/>
<path d="M2221.5 739.1L2242.5 749.8C2249.3 753.2 2257.5 750.5 2261 743.8C2261.3 743.3 2261.5 742.7 2261.7 742.2C2261.7 742.1 2261.7 742.1 2261.8 742C2262.2 740.7 2262.5 739.4 2262.5 738.1C2262.7 732.9 2259.9 727.9 2255 725.4C2253.6 724.7 2252.2 724.3 2250.7 724.1L2227.4 720.8C2223.4 720.2 2219.3 722.2 2217.3 726C2216.4 727.8 2216.1 729.8 2216.3 731.7C2216.5 733.2 2217.1 734.6 2217.9 735.9C2218 736 2218 736.1 2218.1 736.2C2218.9 737.3 2220 738.3 2221.5 739.1Z" fill="#FF95A9"/>
<path d="M2314.8 854.4L2311.8 899.7L2383.8 859.1L2365.9 857.9L2364.3 857.8L2368.6 826.2H2368.7L2373.8 788.3L2375.7 788.6C2381.1 789.3 2386 785.6 2386.7 780.2C2387.4 774.8 2383.7 769.9 2378.3 769.2L2376.4 768.9C2363.5 767.2 2351.5 761.3 2342.2 752.1C2332.3 742.2 2319.8 735.4 2306.3 732.1L2296.3 782.5C2292.7 800.5 2305.1 817.7 2323.2 820.2L2325.8 820.5L2321.4 853.6C2321.3 854.1 2321.3 854.6 2321.3 855L2314.8 854.4ZM2319.5 802.8C2313.6 801.9 2309.6 796.4 2310.5 790.5L2331.8 793.8C2330.9 799.7 2325.4 803.7 2319.5 802.8Z" fill="#FF95A9"/>
<path d="M2224.5 848.9H2224.6L2247.4 850.3L2225 848.9H2224.5Z" fill="#FFC7BD"/>
<path d="M2278.3 879.475L2274.93 886.842L2278.48 888.463L2281.84 881.096L2278.3 879.475Z" fill="#FF95A9"/>
<path d="M2284.2 955.9C2284.8 955.9 2285.5 956 2286.1 956C2289.8 956 2293.4 955.3 2296.9 953.8L2295.3 950.2C2291.9 951.7 2288.2 952.3 2284.5 952.1C2271.6 951.2 2261.7 940 2262.6 927.1C2262.8 924.3 2263.5 921.5 2264.7 918.9L2275.3 895.5L2271.7 893.9L2269.7 898.2L2268.7 900.4L2261 917.3L2260.2 919.1H2260.3C2259.4 921.6 2258.8 924.2 2258.6 926.8C2257.9 937.9 2263.9 948 2273.2 952.9C2275.7 954.2 2278.4 955.2 2281.4 955.7C2282.3 955.7 2283.2 955.8 2284.2 955.9Z" fill="#FF95A9"/>
<path d="M2440 1269.3H2396.3L2477 1565.4V1563.7H2502.5C2502.5 1562.8 2502.4 1562 2502.2 1561.1L2485.2 1478.4L2483.3 1478.8L2479.3 1459.3L2481.2 1458.9L2479 1448L2477.1 1448.4L2440 1269.3Z" fill="#FF95A9"/>
<path d="M2477 1563.7V1565.4V1581.3H2512.7C2515.7 1581.3 2518.2 1578.9 2518.2 1575.8C2518.2 1573.8 2517.2 1572 2515.5 1571.1L2502.6 1563.7H2477Z" fill="#40327A"/>
<path d="M2409 1119.7L2440 1269.3L2477 1448.4L2479 1448L2480.9 1447.6L2412.9 1118.9L2411.3 1119.2L2409 1119.7Z" fill="#7760DB"/>
<path d="M2483.3 1478.8L2485.2 1478.4L2487.1 1478L2483.1 1458.5L2481.2 1458.9L2479.3 1459.3L2483.3 1478.8Z" fill="#7760DB"/>
<path d="M2224.2 852.8L2257.2 854.8L2257.4 850.9L2247.4 850.3L2224.6 848.9H2224.5L2221.9 848.5L2187.7 843.8L2036.4 822.7L2035.9 826.6L2186.8 847.6L2224.2 852.8Z" fill="#624AC9"/>
</g>
<defs>
<clipPath id="clip0_2_1523">
<rect width="3000" height="1758.8" fill="#white" transform="translate(0 121)"/>
</clipPath>
</defs>
</svg>
