<svg width="3000" height="2000" viewBox="0 0 3000 2000" fill="none" xmlns="http://www.w3.org/2000/svg">
<path d="M3000 0H0V2000H3000V0Z" fill="white"/>
<path d="M2572.5 893.6C2572.5 1111.9 2419.7 1294.5 2215.2 1340.3C2182.9 1347.6 2149.2 1351.4 2114.7 1351.4C2056 1351.4 2000 1340.4 1948.4 1320.3C1777.8 1253.7 1656.9 1087.8 1656.9 893.6C1656.9 640.7 1861.9 435.7 2114.7 435.7C2367.5 435.7 2572.5 640.8 2572.5 893.6Z" fill="#F2F0FF"/>
<path d="M2114.7 1404.5C2108.9 1404.5 2102.9 1404.4 2097.2 1404.2L2097.5 1396.8C2103.2 1397 2109 1397.1 2114.8 1397.1C2152.2 1397.1 2189.4 1393 2225.4 1384.9C2392.2 1347.5 2527.3 1229.5 2587 1069L2593.9 1071.6C2564.5 1150.6 2515.4 1221.9 2451.7 1277.7C2387.6 1334 2309.9 1373.5 2227 1392.1C2190.3 1400.4 2152.6 1404.5 2114.7 1404.5Z" fill="#B3A4F5"/>
<path d="M2605.6 1035.7L2598.5 1033.6C2602.1 1021.1 2605.3 1008.4 2607.9 995.6L2615.2 997.1C2612.5 1010.1 2609.3 1023.1 2605.6 1035.7Z" fill="#B3A4F5"/>
<path d="M2613.9 827.2C2599.5 717.7 2550.6 618.2 2472.5 539.3L2477.8 534.1C2557 614.1 2606.6 715.1 2621.2 826.2L2613.9 827.2Z" fill="#B3A4F5"/>
<path d="M2423.7 496C2334.7 426.7 2227.8 390.1 2114.7 390.1C2078.3 390.1 2042 394 2006.8 401.7L2005.2 394.5C2041 386.7 2077.8 382.7 2114.7 382.7C2229.5 382.7 2337.9 419.9 2428.2 490.2L2423.7 496Z" fill="#B3A4F5"/>
<path d="M1928.5 425.6L1925.8 418.7C1936.1 414.6 1946.7 410.8 1957.2 407.4L1959.5 414.4C1949.2 417.8 1938.7 421.6 1928.5 425.6Z" fill="#B3A4F5"/>
<path d="M1614.6 834.4L1607.2 833.5C1607.7 828.8 1608.4 824.2 1609 819.5L1616.3 820.6C1615.8 825.2 1615.2 829.8 1614.6 834.4Z" fill="#B3A4F5"/>
<path d="M1683.3 1167.4C1631.3 1085.7 1603.8 991 1603.8 893.6C1603.8 890.7 1603.8 887.8 1603.9 885L1611.3 885.1C1611.3 887.9 1611.2 890.8 1611.2 893.6C1611.2 989.5 1638.3 1082.8 1689.5 1163.4L1683.3 1167.4Z" fill="#B3A4F5"/>
<path d="M2297.6 1519.2L2266.5 1412.5C2272.2 1410.8 2277.9 1409.1 2283.6 1407.2L2318.3 1512.8C2311.4 1515.1 2304.4 1517.2 2297.6 1519.2Z" fill="#CCC2FF"/>
<path d="M2338.3 1505.9L2300.2 1401.5C2375.7 1373.9 2445.4 1328.8 2501.8 1270.9L2581.4 1348.5C2513.4 1418.2 2429.3 1472.6 2338.3 1505.9Z" fill="#DDD6FF"/>
<path d="M2604.3 1323.7L2520.9 1250.3C2607.6 1151.7 2655.3 1025.1 2655.3 893.6C2655.3 854 2651 814.5 2642.5 776.2L2751 752.2C2761.2 798.4 2766.4 846 2766.4 893.6C2766.4 1052.1 2708.8 1204.8 2604.3 1323.7Z" fill="#F2F0FF"/>
<path d="M2598.8 652.7C2591.1 637.3 2582.5 622 2573.4 607.4L2667.6 548.5C2678.6 566.2 2689 584.6 2698.2 603.2L2598.8 652.7Z" fill="#DDD6FF"/>
<path d="M1474.9 1017.7C1467.1 977.1 1463.1 935.3 1463.1 893.6C1463.1 534.3 1755.4 241.9 2114.7 241.9C2218.4 241.9 2321.7 266.9 2413.2 314.2C2501.8 359.9 2579.9 426.6 2639.3 507L2549.9 573C2448.3 435.3 2285.6 353 2114.7 353C1816.7 353 1574.2 595.5 1574.2 893.6C1574.2 928.3 1577.5 962.9 1584 996.6L1474.9 1017.7Z" fill="#F2F0FF"/>
<path d="M1491.9 1086C1488 1073.5 1484.5 1060.7 1481.4 1047.9L1589.4 1021.7C1592 1032.3 1594.9 1042.9 1598.1 1053.3L1491.9 1086Z" fill="#DDD6FF"/>
<path d="M2114.7 1545.3C2033.1 1545.3 1953.4 1530.4 1878 1500.9C1718.2 1438.5 1586.9 1312.6 1517.8 1155.5L1619.5 1110.8C1676.8 1241.2 1785.7 1345.7 1918.3 1397.4C1980.8 1421.8 2046.9 1434.2 2114.6 1434.2C2154.7 1434.2 2194.7 1429.8 2233.3 1421.1L2257.6 1529.5C2211.1 1539.9 2163 1545.3 2114.7 1545.3Z" fill="#F2F0FF"/>
<path d="M2613.8 1698.4H414.2V1735.4H2613.8V1698.4Z" fill="#8B77E8"/>
<path d="M1636.1 1731.8H814.4V1739.2H1636.1V1731.8Z" fill="#40327A"/>
<path d="M702 1731.8H489V1739.2H702V1731.8Z" fill="#40327A"/>
<path d="M773.7 1731.8H739.5V1739.2H773.7V1731.8Z" fill="#40327A"/>
<path d="M2372.4 1731.8H1876.3V1739.2H2372.4V1731.8Z" fill="#40327A"/>
<path d="M2719.4 1775.3H2119V1812.3H2719.4V1775.3Z" fill="#F2F0FF"/>
<path d="M2079 1775.3H1965.2V1812.3H2079V1775.3Z" fill="#E9E6FF"/>
<path d="M714.1 1849.4H549.2V1867.9H714.1V1849.4Z" fill="#F2F0FF"/>
<path d="M773.7 1849.4H749.8V1867.9H773.7V1849.4Z" fill="#F2F0FF"/>
<path d="M1369.5 1849.4H820.6V1867.9H1369.5V1849.4Z" fill="#F2F0FF"/>
<path d="M1666.2 1849.4H1430.7V1867.9H1666.2V1849.4Z" fill="#F2F0FF"/>
<path d="M2189.3 1849.4H1696.8V1867.9H2189.3V1849.4Z" fill="#F2F0FF"/>
<path d="M2273.3 1849.4H2246.6V1867.9H2273.3V1849.4Z" fill="#F2F0FF"/>
<path d="M1948.6 1775.3H1201.1V1812.3H1948.6V1775.3Z" fill="#F2F0FF"/>
<path d="M1161.6 1775.3H1019.9V1812.3H1161.6V1775.3Z" fill="#E9E6FF"/>
<path d="M1006 1775.3H977V1812.3H1006V1775.3Z" fill="#DDD6FF"/>
<path d="M962.2 1775.3H635.2V1812.3H962.2V1775.3Z" fill="#F2F0FF"/>
<path d="M589.5 1775.3H312.3V1812.3H589.5V1775.3Z" fill="#F2F0FF"/>
<path d="M733.1 1192.4L729.5 1186C733.9 1183.5 738.3 1180.8 742.6 1178.1L746.6 1184.3C742.2 1187.1 737.6 1189.8 733.1 1192.4Z" fill="#B3A4F5"/>
<path d="M770.7 1166.7L766 1161C826.2 1111.7 860.7 1038.9 860.7 961.2C860.7 818.9 745 703.2 602.7 703.2C462.2 703.2 346.5 817.5 344.7 957.9L337.3 957.8C338.2 887.6 366.2 821.8 416.1 772.4C466.1 723 532.4 695.8 602.7 695.8C749.1 695.8 868.1 814.9 868.1 961.2C868.1 1041.1 832.6 1116 770.7 1166.7Z" fill="#B3A4F5"/>
<path d="M602.7 1226.6C500.2 1226.6 405.8 1166.6 362.3 1073.8L369 1070.7C411.3 1161 503.1 1219.3 602.7 1219.3C620.2 1219.3 637.6 1217.5 654.6 1214.1L656.1 1221.4C638.6 1224.8 620.6 1226.6 602.7 1226.6Z" fill="#B3A4F5"/>
<path d="M774.5 713.3C766.7 707.9 758.5 702.7 750.1 698L783 639.5C793.2 645.2 803.2 651.5 812.8 658.2L774.5 713.3Z" fill="#E9E6FF"/>
<path d="M731.2 688.2C691.6 669.5 649.2 659.9 605.2 659.5L605.7 592.4C659.6 592.8 711.4 604.6 759.8 627.5L731.2 688.2Z" fill="#E9E6FF"/>
<path d="M564.8 661.9L556.5 595.3C560.3 594.8 564.2 594.4 568 594L574.2 660.8C571.1 661.2 567.9 661.5 564.8 661.9Z" fill="#E9E6FF"/>
<path d="M276.2 1132.7C248.6 1080.2 234 1020.9 234 961.2C234 890.3 254.2 821.4 292.4 762C329.6 704.2 381.9 658 443.8 628.4L472.8 689C368.4 738.8 301 845.6 301 961.2C301 1010 312.9 1058.5 335.5 1101.4L276.2 1132.7Z" fill="#E9E6FF"/>
<path d="M356.6 1235.8C340.5 1221.4 325.6 1205.4 312.3 1188.4L365.1 1147C376 1160.9 388.2 1174 401.4 1185.8L356.6 1235.8Z" fill="#E9E6FF"/>
<path d="M398.3 1268.1C392.8 1264.5 387.4 1260.6 382 1256.6L422.2 1202.8C426.6 1206.1 431.1 1209.2 435.5 1212.2L398.3 1268.1Z" fill="#E9E6FF"/>
<path d="M602.7 1165.4C715.477 1165.4 806.9 1073.98 806.9 961.2C806.9 848.423 715.477 757 602.7 757C489.923 757 398.5 848.423 398.5 961.2C398.5 1073.98 489.923 1165.4 602.7 1165.4Z" fill="#FFD259"/>
<path d="M681.2 863.5C678.1 861 674.8 858.6 671.4 856.3C650.9 842.8 627.2 835.7 602.7 835.7V828.3C628.7 828.3 653.8 835.8 675.5 850.1C679.1 852.4 682.6 855 685.9 857.7L681.2 863.5Z" fill="white"/>
<path d="M707.9 1042.1L702 1037.6C716.6 1018.7 725.4 996.2 727.5 972.5C727.8 968.9 728 965.1 728 961.2C728 929.5 716.1 899.2 694.4 875.9L699.8 870.9C722.7 895.6 735.3 927.6 735.3 961.2C735.3 965.3 735.1 969.4 734.8 973.2C732.7 998.2 723.4 1022 707.9 1042.1Z" fill="white"/>
<path d="M694.6 957.8C692.8 908.1 652.4 869.2 602.6 869.2V861.8C656.4 861.8 700 903.9 702 957.6L694.6 957.8Z" fill="white"/>
<path d="M681.5 1021.7L675.6 1017.2C685 1005.1 691.2 990.7 693.6 975.6L700.9 976.8C698.3 993.1 691.6 1008.6 681.5 1021.7Z" fill="white"/>
<path d="M594.6 1087.9C600.5 1094.1 607.5 1099 615.3 1102.3C632.9 1109.8 652.9 1108.8 669.6 1099.6L688.2 1089.4L649.2 1018.5L628.4 1025.9C619.9 1028.9 610.6 1028.6 602.3 1025C595.1 1021.9 589.2 1016.4 585.4 1009.6L553.3 951.1C549.5 944.2 548.1 936.3 549.3 928.6C550.7 919.7 555.4 911.7 562.5 906.1L579.9 892.5L540.9 821.6L522.3 831.8C505.6 841 494 857.4 490.9 876.2C489.5 884.6 489.9 893.2 491.9 901.4C509.7 971.5 545 1035.7 594.6 1087.9Z" fill="white"/>
<path d="M1383.21 594.781C1395.2 582.792 1395.2 563.354 1383.21 551.365C1371.22 539.376 1351.78 539.376 1339.79 551.365C1327.81 563.354 1327.81 582.792 1339.79 594.781C1351.78 606.77 1371.22 606.77 1383.21 594.781Z" fill="#B3A4F5"/>
<path d="M1502.72 580.18C1506.61 563.68 1496.39 547.145 1479.89 543.248C1463.39 539.352 1446.86 549.57 1442.96 566.071C1439.06 582.571 1449.28 599.107 1465.78 603.003C1482.28 606.899 1498.82 596.681 1502.72 580.18Z" fill="#B3A4F5"/>
<path d="M1605.73 594.829C1617.72 582.84 1617.72 563.402 1605.73 551.413C1593.74 539.424 1574.3 539.424 1562.31 551.413C1550.32 563.402 1550.32 582.84 1562.31 594.829C1574.3 606.818 1593.74 606.818 1605.73 594.829Z" fill="#B3A4F5"/>
<path d="M1843.3 736.6H1265.6C1175.4 736.6 1102.1 663.3 1102.1 573.1C1102.1 482.9 1175.4 409.6 1265.6 409.6H1679.8C1769.9 409.6 1843.3 482.9 1843.3 573.1V736.6ZM1265.7 417C1179.6 417 1109.6 487 1109.6 573.1C1109.6 659.2 1179.6 729.2 1265.7 729.2H1836V573.1C1836 487 1766 417 1679.9 417H1265.7Z" fill="#B3A4F5"/>
<path d="M2091.8 893.6C2066.3 892.5 2046.5 870.8 2047.6 845.3L2047.9 839.1H2025.6L2029.4 839.3L2029.2 844.5C2028.4 861.8 2034.4 878.3 2046.1 891.1C2057.8 903.9 2073.7 911.3 2091 912.1C2092 912.2 2093 912.2 2093.9 912.2C2128.6 912.2 2157.1 885 2158.6 850.3L2159.1 839.2H2140.6L2140.1 849.5C2139 874.9 2117.4 894.7 2091.8 893.6Z" fill="#8B77E8"/>
<path d="M1945.9 1260.7C1945.8 1262.7 1945.8 1264.7 1945.8 1266.7V1267.7C1945.8 1271.6 1946 1275.4 1946.4 1279.2L1946.8 1287.1H2214.9L2215.3 1277.6C2215.4 1276 2215.6 1274.4 2215.7 1272.8V1272.7L2234 1077.9H1945L1945.9 1260.7Z" fill="#8B77E8"/>
<path d="M2215.2 1340.3L2213.4 1316.4L2214 1304.4L2213.4 1316.4L2215.2 1340.3Z" fill="#8B77E8"/>
<path d="M1968.6 749C1967.2 751.5 1965.4 753.7 1963.4 755.6L1929.9 787.6L1927.3 795.1C1927 799.1 1929.5 802.8 1933.5 803.8L1973.8 813.6C1978.2 814.7 1982.7 812 1983.8 807.6L1988 790.6C1981.6 784.1 1978.5 774.6 1980.9 765L1987.5 738.6L1989.1 732L1996.9 700.7L2004.9 668.7L1968.7 659.9C1964.3 658.8 1959.8 661.5 1958.7 665.9L1949.1 705.1C1952.1 705.7 1955 706.8 1957.8 708.4C1971.9 716.7 1976.8 734.8 1968.6 749Z" fill="#40327A"/>
<path d="M2583.9 948.1L2607.8 925.1L2583.9 948.1Z" fill="#8B77E8"/>
<path d="M2573.7 892.8L2586.3 884.6L2573.7 892.8L2555 904.9L2379.4 1018.6L2253.7 866C2250.7 862.4 2247.3 858.9 2243.5 855.8C2230.4 845 2214.8 839.6 2199.1 839.1C2198.9 839.1 2198.6 839 2198.4 839H2197.3C2196.7 839 2196.1 839 2195.5 839H2163.2L2166.5 839.2L2166 850.5C2164.3 889.2 2132.6 919.5 2093.9 919.5C2092.8 919.5 2091.7 919.5 2090.6 919.4C2071.4 918.5 2053.6 910.2 2040.6 896C2027.6 881.7 2020.9 863.3 2021.7 844L2021.9 839H1999.1C1998 839 1996.9 839 1995.7 839C1994.7 839 1993.7 839 1992.7 839C1982.8 839.5 1972.8 841.9 1963.3 846.6C1958.9 848.8 1954.8 851.3 1951.1 854.2L1891 900.1L1919.3 817.7L1870 800.7L1745.3 1016.1C1745.2 1016.2 1745.2 1016.3 1745.1 1016.4C1731.1 1040.5 1739.4 1071.5 1763.5 1085.4C1778.7 1094.2 1796.5 1094.2 1811.2 1087L1944.7 1021.1L1944.6 996.4H2241.5L2237.2 1042.5L2336.4 1124.1L2336.9 1124.5C2356.5 1140.6 2385.4 1139.9 2404.1 1121.8C2404.2 1121.7 2404.2 1121.7 2404.3 1121.6L2583.4 948.6L2555 904.8L2573.7 892.8Z" fill="#8B77E8"/>
<path d="M2648.3 863.7C2645.4 863.8 2642.7 864.4 2640.1 865.3L2591.1 882.2C2589.4 882.8 2587.8 883.6 2586.3 884.5L2573.7 892.7L2555 904.8L2583.4 948.6L2583.9 948.1L2607.8 925L2651.2 922.9C2667.5 922.1 2680.1 908.2 2679.3 891.8C2678.5 875.5 2664.6 862.9 2648.3 863.7Z" fill="#FF95A9"/>
<path d="M1926.7 796.7L1927.3 795.1L1929.9 787.6L1963.4 755.6C1965.4 753.7 1967.2 751.5 1968.6 749C1976.8 734.8 1972 716.7 1957.8 708.5C1955 706.9 1952.1 705.8 1949.1 705.2C1936.9 702.6 1923.9 707.9 1917.3 719.3L1891.3 764.1L1881.5 781.1L1870.2 800.7L1919.5 817.7L1926.7 796.7Z" fill="#FF95A9"/>
<path d="M2158.6 850.2C2157.1 884.9 2128.6 912.1 2093.9 912.1C2093 912.1 2092 912.1 2091 912C2073.7 911.2 2057.7 903.8 2046.1 891C2034.4 878.2 2028.4 861.6 2029.2 844.4L2029.4 839.2L2025.6 839L2022 838.8V839L2021.8 844C2020.9 863.2 2027.6 881.7 2040.7 896C2053.7 910.2 2071.5 918.5 2090.7 919.4C2091.8 919.5 2092.9 919.5 2094 919.5C2132.7 919.5 2164.4 889.2 2166.1 850.5L2166.6 839.2L2163.3 839L2159.2 838.8V839L2158.6 850.2Z" fill="white"/>
<path d="M2137.3 769.5L2146.6 722.6C2157.5 724.8 2168.2 717.7 2170.4 706.7C2172.6 695.8 2165.5 685.1 2154.5 682.9C2143.6 680.7 2132.9 687.8 2130.7 698.8L2129.6 704.2L2117.3 766C2111.5 795.2 2083.1 814.1 2054 808.3L2049.2 807.3L2047.8 838.9L2047.5 845.1C2046.4 870.6 2066.2 892.3 2091.7 893.4C2117.2 894.5 2138.9 874.7 2140 849.2L2140.5 838.9L2143.5 770.5C2142.5 770.4 2141.5 770.3 2140.5 770.1L2137.3 769.5Z" fill="#FF95A9"/>
<path d="M2012.3 638.7C2014 631.8 2016.7 625.3 2020.1 619.4L2081.1 631.5C2097.3 634.7 2113.2 630.6 2125.6 621.6L2109.9 700.6C2107.4 712.6 2095.6 720.4 2083.6 718L1996.9 700.7L1989 732L1987.4 738.6L1980.8 765C1978.4 774.5 1981.5 784.1 1987.9 790.6C1991.5 794.3 1996.3 796.9 2001.7 798L2049.4 807.5L2054.2 808.5C2083.4 814.3 2111.7 795.4 2117.5 766.2L2129.8 704.4L2130.9 699C2133.1 688.1 2143.7 681 2154.7 683.1C2165.6 685.3 2172.7 695.9 2170.6 706.9C2168.4 717.8 2157.8 724.9 2146.8 722.8L2137.5 769.7L2140.8 770.4C2141.8 770.6 2142.8 770.7 2143.8 770.8C2160.9 772.7 2177 761.2 2180.4 743.9L2185.6 717.6L2197.2 659.3C2204.2 624.2 2182.5 590.2 2148.5 581.2C2148.2 568.9 2139.4 558 2126.9 555.4C2118.5 553.7 2110.2 556.2 2104.2 561.3C2100.4 555.8 2094.5 551.8 2087.5 550.4L2084.2 549.7L2052.2 543.3C2052.2 543.3 2052.2 543.3 2052.1 543.3L2050.1 542.9C2047 542.3 2043.9 542.3 2040.9 542.7C2024.3 544.1 2009.9 555.7 2005.3 572.3C1992.9 578.3 1983.3 589.8 1980.4 604.3C1976 626.2 1988.3 647.6 2008.4 655.4L2012.3 638.7ZM2014 723.1L2052 730.6C2051.2 740.6 2042.8 748.5 2032.5 748.5C2021.7 748.5 2013 739.7 2013 729C2013 726.9 2013.4 724.9 2014 723.1Z" fill="#40327A"/>
<path d="M2083.6 718C2095.7 720.4 2107.4 712.6 2109.9 700.6L2125.6 621.6C2113.2 630.6 2097.3 634.7 2081.1 631.5L2020.1 619.4C2016.7 625.3 2014 631.7 2012.3 638.7L2008.1 655.5L2004.8 668.7L1996.8 700.7L2083.6 718Z" fill="#FF95A9"/>
<path d="M1987.4 738.6L1989 732L1987.4 738.6Z" fill="#FF95A9"/>
<path d="M2032.6 748.5C2042.8 748.5 2051.3 740.6 2052.1 730.6L2014.1 723.1C2013.5 725 2013.2 727 2013.2 729C2013 739.8 2021.8 748.5 2032.6 748.5Z" fill="white"/>
<path d="M1946.8 1287L1948.3 1317.3L1948.4 1319.8C1948.4 1319.9 1948.4 1320 1948.4 1320.1V1320.3C2000 1340.4 2056 1351.4 2114.7 1351.4C2149.2 1351.4 2182.9 1347.6 2215.2 1340.3L2213.4 1316.4L2214 1304.4L2214.9 1287H1946.8V1287Z" fill="#7760DB"/>
<path d="M1944.7 996.4L1944.8 1021.1L1945 1077.8H2234L2237.3 1042.5L2241.6 996.4H1944.7Z" fill="#FFC7BD"/>
<path d="M1264.6 905.3C1277.1 908.2 1289.1 912.5 1300.5 918C1296.2 912.4 1291.4 907.2 1285.9 902.6C1265.2 884.7 1238.7 875.9 1211.4 877.9L1212.5 892.7C1231 891.3 1249.1 895.8 1264.6 905.3Z" fill="#B3A4F5"/>
<path d="M1479.2 1336.14L1472.89 1351.71L1479.75 1354.49L1486.06 1338.91L1479.2 1336.14Z" fill="#CCC2FF"/>
<path d="M1990.66 1556.74L1975.95 1563.29L1978.96 1570.05L1993.67 1563.5L1990.66 1556.74Z" fill="#CCC2FF"/>
<path d="M948.3 1585.7L921.5 1616.6L1063.2 1635.1L1054.9 1602.1L1051.4 1603L1036 1542.1L1039.6 1541.2L1028.9 1498.8L951.1 1588.2L948.3 1585.7Z" fill="#FFD259"/>
<path d="M829.7 1697.8C827.7 1697.8 825.7 1697.7 823.7 1697.5C798.3 1694.2 780.4 1670.9 783.7 1645.5C784.7 1637.6 787.7 1630.4 792 1624.4L811.3 1597.5L808.3 1595.3L815 1586L818 1588.2L837.2 1561.5L834.2 1559.3L976 1362.2C966.6 1364.5 957.4 1367.3 948.4 1370.3L949.6 1373.8C939.8 1377.1 929.9 1380.9 920.4 1385.1L918.9 1381.7C906.7 1387 895 1393 883.5 1399.6L885.3 1402.8C778.3 1464.5 711 1574.7 705.3 1697.7H855.5L829.7 1697.8Z" fill="#FFD259"/>
<path d="M1415.4 1638.1L1346.1 1554.1L1335.1 1540.7C1331.9 1542.7 1328.5 1544.4 1324.9 1545.9L1318.7 1652L1314.8 1651.8L1312.7 1698H1427.9C1427.1 1679.7 1424.8 1661.7 1421.4 1644.2C1419.2 1642.2 1417.2 1640.2 1415.4 1638.1Z" fill="#FFD259"/>
<path d="M949.5 1373.9L948.3 1370.4L947.1 1366.9C937 1370.3 927 1374.2 917.2 1378.5L918.7 1381.9L920.2 1385.3C929.8 1381 939.6 1377.2 949.5 1373.9Z" fill="#FFAA45"/>
<path d="M885.2 1402.9L883.4 1399.7L881.5 1396.5C772.3 1459.5 703.6 1572 697.8 1697.7L705.2 1698C705.2 1697.9 705.2 1697.9 705.2 1697.8C711 1574.8 778.2 1464.6 885.2 1402.9Z" fill="#FFAA45"/>
<path d="M1049.3 1223.2C1039.9 1210.7 1034.5 1195.8 1033.8 1180C1032.9 1160 1039.7 1140.7 1053 1125.6L1047.4 1120.7C1032.9 1137.2 1025.4 1158.4 1026.4 1180.3C1027.2 1197.5 1033 1213.9 1043.3 1227.6L1049.3 1223.2Z" fill="white"/>
<path d="M1310.9 1310.7C1312.3 1312.1 1313.6 1313.6 1314.8 1315.2C1313.6 1313.7 1312.3 1312.2 1310.9 1310.7Z" fill="#AB9AF7"/>
<path d="M1306.5 1306.5C1308 1307.8 1309.4 1309.1 1310.7 1310.5C1309.4 1309.1 1308 1307.8 1306.5 1306.5Z" fill="#AB9AF7"/>
<path d="M1302 1303C1303.4 1304 1304.8 1305.1 1306.1 1306.2C1304.7 1305 1303.4 1304 1302 1303Z" fill="#AB9AF7"/>
<path d="M1264.9 1290.8C1266.9 1290.8 1269 1290.9 1271 1291.1C1269 1291 1266.9 1290.9 1264.9 1290.8Z" fill="#AB9AF7"/>
<path d="M1318 1319.7C1317.1 1318.3 1316.1 1316.9 1315 1315.6C1316.1 1317 1317.1 1318.4 1318 1319.7Z" fill="#AB9AF7"/>
<path d="M1294 1298C1293.2 1297.6 1292.4 1297.3 1291.6 1296.9C1292.8 1297.5 1294 1298 1295.1 1298.7C1294.8 1298.5 1294.4 1298.2 1294 1298Z" fill="#AB9AF7"/>
<path d="M1272.1 1291.3C1273.9 1291.5 1275.6 1291.8 1277.3 1292.1C1275.6 1291.8 1273.8 1291.5 1272.1 1291.3Z" fill="#AB9AF7"/>
<path d="M1297.1 1299.8C1298.4 1300.6 1299.6 1301.3 1300.8 1302.1C1299.6 1301.3 1298.4 1300.5 1297.1 1299.8Z" fill="#AB9AF7"/>
<path d="M1285.5 1294.4C1286.8 1294.8 1288.1 1295.3 1289.3 1295.8C1288.1 1295.3 1286.8 1294.9 1285.5 1294.4Z" fill="#AB9AF7"/>
<path d="M1279 1292.5C1280.5 1292.8 1282 1293.2 1283.4 1293.7C1281.9 1293.2 1280.5 1292.9 1279 1292.5Z" fill="#AB9AF7"/>
<path d="M1311.3 1651.5L1317.3 1548.4C1313.2 1549.6 1308.9 1550.5 1304.4 1550.5L1285.6 1546.8L1289.4 1546.1C1273.6 1543.4 1259.2 1534.7 1249.5 1521.7L1248.6 1522.4L1166 1415.5L1267.1 1337.4L1276.9 1350.1L1318 1319.9C1317.1 1318.5 1316.1 1317.1 1315.1 1315.8C1315 1315.7 1314.9 1315.5 1314.8 1315.4C1313.6 1313.8 1312.3 1312.3 1310.9 1310.9C1310.8 1310.8 1310.8 1310.8 1310.7 1310.7C1309.4 1309.3 1308 1308 1306.5 1306.7C1306.3 1306.6 1306.2 1306.4 1306 1306.3C1304.7 1305.2 1303.3 1304.1 1301.9 1303.1C1301.5 1302.8 1301.2 1302.5 1300.8 1302.3C1299.6 1301.5 1298.3 1300.7 1297.1 1300C1296.5 1299.6 1295.8 1299.2 1295.2 1298.9C1294 1298.3 1292.9 1297.7 1291.7 1297.1C1290.9 1296.7 1290.2 1296.4 1289.4 1296C1288.2 1295.5 1286.9 1295 1285.6 1294.6C1284.9 1294.4 1284.2 1294.1 1283.5 1293.9C1282 1293.5 1280.6 1293.1 1279.1 1292.7C1278.5 1292.6 1278 1292.4 1277.4 1292.3C1275.7 1292 1273.9 1291.7 1272.2 1291.5C1271.8 1291.5 1271.5 1291.4 1271.1 1291.4C1269.1 1291.2 1267.1 1291.1 1265 1291.1C1264.9 1291.1 1264.8 1291.1 1264.6 1291.1H1264.3H1263.1H1237.6L1235.7 1301.2C1230.1 1330.5 1201.8 1349.7 1172.5 1344.1C1146.6 1339.1 1128.6 1316.5 1128.6 1291H1072.2C1070.8 1291 1069.4 1291 1068 1291.1C1075.5 1291.5 1083 1293.1 1090.2 1296.3C1122.5 1310.4 1137.3 1348.1 1123.2 1380.4C1120.5 1386.5 1117 1392 1112.9 1396.8L1066.4 1450.3L1060.7 1456.8L1063.5 1459.2L1028.9 1498.9L1039.6 1541.3L1043.2 1540.4L1058.5 1601.4L1054.9 1602.3L1063.2 1635.2L1160.1 1647.8L1208.4 1631C1226.3 1624.8 1245.9 1634.3 1252.2 1652.2C1258.4 1670.1 1248.9 1689.7 1231 1696C1227.3 1697.3 1223.5 1697.9 1219.8 1697.9L1167.7 1698.1H1162.7H1160.9H1079V1698.3H1312.5V1698L1314.6 1651.8L1311.3 1651.5Z" fill="#FFC7BD"/>
<path d="M1395.9 1063.1C1396.9 1085.4 1389.1 1106.7 1374.1 1123.2L1379.6 1128.2C1396 1110.3 1404.4 1087.1 1403.4 1062.8C1401.2 1012.9 1378 966 1339.8 934.2L1335.1 939.9C1371.6 970.4 1393.8 1015.3 1395.9 1063.1Z" fill="white"/>
<path d="M1218.5 901C1198.5 901.9 1179.5 906.2 1162 913.4C1158.6 916.3 1155.4 919.4 1152.5 922.9C1137.2 940.6 1129.7 963.3 1131.4 986.7L1136 1048.8C1162.4 1050.2 1184.2 1071 1186.2 1098.1L1188.4 1128.6L1189 1137.4C1189.1 1139.1 1189.1 1140.8 1189.1 1142.4C1189.1 1142.9 1189.1 1143.3 1189 1143.8C1188.9 1145.1 1188.8 1146.3 1188.7 1147.5C1188.6 1147.9 1188.6 1148.4 1188.5 1148.8C1188.3 1150.2 1188.1 1151.6 1187.8 1152.9C1187.8 1153.1 1187.7 1153.3 1187.7 1153.5C1186.2 1159.9 1183.6 1165.8 1179.9 1171.2L1185.2 1176.6C1193.2 1165.4 1197.4 1151.4 1196.3 1136.8L1195 1119.4L1193.6 1100.7C1210.4 1094.9 1226.2 1086 1240.1 1074.5C1267.1 1052.1 1299.7 1037.7 1334.1 1032.5L1346 1143C1376.5 1129.6 1397.2 1098.4 1395.6 1063.1C1392.7 998.8 1354.5 944.4 1300.4 918C1289.1 912.5 1277.1 908.2 1264.5 905.3C1249.8 901.9 1234.4 900.3 1218.5 901Z" fill="#40327A"/>
<path d="M1146.2 1193.3C1144.1 1193.7 1141.9 1194.1 1139.7 1194.2C1110.3 1196.4 1084.8 1174.3 1082.7 1145L1079.8 1105.8C1077.8 1079.2 1095.9 1055.7 1121.2 1050L1116.6 987.8C1115.2 968.1 1119.3 948.8 1128.5 931.8C1082.7 964 1053.7 1018.2 1056.4 1078.3C1057 1091.7 1059.2 1104.6 1062.7 1117C1044.4 1131.8 1033 1154.8 1034.1 1180.2C1036 1222.7 1071.9 1255.6 1114.4 1253.7C1121.8 1253.4 1128.8 1252 1135.5 1249.7L1146.2 1193.3Z" fill="#40327A"/>
<path d="M1188.7 1147.3C1188.8 1146.1 1188.9 1144.8 1189 1143.6C1189 1144.8 1188.9 1146.1 1188.7 1147.3Z" fill="#FF95A9"/>
<path d="M1187.8 1152.7C1188.1 1151.3 1188.4 1150 1188.5 1148.6C1188.4 1150 1188.1 1151.4 1187.8 1152.7Z" fill="#FF95A9"/>
<path d="M1189 1137.2L1188.4 1128.4L1189 1137.2C1189.1 1138.9 1189.1 1140.6 1189.1 1142.2C1189.1 1140.6 1189.1 1138.9 1189 1137.2Z" fill="#FF95A9"/>
<path d="M1187.7 1153.3C1186.2 1159.7 1183.5 1165.6 1179.9 1170.9C1183.5 1165.7 1186.2 1159.7 1187.7 1153.3Z" fill="#FF95A9"/>
<path d="M1165.2 1185.5C1166.3 1184.8 1167.3 1184 1168.4 1183.2C1167.4 1184 1166.3 1184.8 1165.2 1185.5Z" fill="#FF95A9"/>
<path d="M1156.7 1190.1C1157.7 1189.7 1158.7 1189.2 1159.7 1188.8C1158.7 1189.2 1157.7 1189.7 1156.7 1190.1Z" fill="#FF95A9"/>
<path d="M1161.2 1187.9C1162.1 1187.4 1163.1 1186.9 1164 1186.3C1163.1 1186.9 1162.2 1187.4 1161.2 1187.9Z" fill="#FF95A9"/>
<path d="M1172.7 1179.5C1171.5 1180.7 1170.2 1181.7 1168.9 1182.8C1170.3 1181.8 1171.5 1180.7 1172.7 1179.5Z" fill="#FF95A9"/>
<path d="M1172.5 1343.9C1201.8 1349.5 1230.1 1330.3 1235.7 1301L1237.6 1290.9L1245.5 1249.6L1272.2 1248.4C1318.1 1246.4 1352.7 1206.1 1347.9 1160.4L1346 1143L1334.2 1032.4C1299.8 1037.6 1267.2 1052 1240.2 1074.4C1226.3 1085.9 1210.5 1094.7 1193.7 1100.6L1195.1 1119.3L1196.4 1136.7C1197.5 1151.3 1193.3 1165.2 1185.3 1176.5L1194.9 1186.3C1205.4 1197 1220 1203.2 1235 1203.2H1264.6V1214.3H1235C1217 1214.3 1199.5 1206.9 1187 1194.1L1178.1 1185C1172.5 1190.4 1165.8 1194.7 1158.2 1197.7L1155.5 1190.8C1152.6 1191.9 1149.5 1192.8 1146.4 1193.4L1135.6 1249.6L1129.7 1280.7C1129 1284.1 1128.8 1287.5 1128.8 1290.9C1128.6 1316.3 1146.6 1338.9 1172.5 1343.9ZM1257.9 1173.5L1314.9 1171C1311.8 1183.5 1300.8 1193 1287.3 1193.5C1273.9 1194.1 1262.1 1185.6 1257.9 1173.5Z" fill="#FF95A9"/>
<path d="M1287.3 1193.6C1300.8 1193 1311.8 1183.5 1314.9 1171.1L1257.9 1173.6C1262.1 1185.6 1273.9 1194.1 1287.3 1193.6Z" fill="white"/>
<path d="M1427.3 1487.1L1346.1 1554.1L1415.4 1638.2C1417.2 1640.4 1419.1 1642.4 1421.3 1644.2C1426.8 1648.8 1433.4 1652.3 1440.9 1654L1637.1 1698.3H1779.6L1784.6 1681.5L1481.6 1570.5L1427.3 1487.1Z" fill="#FF95A9"/>
<path d="M1276.9 1350L1267.1 1337.3L1166 1415.4L1248.6 1522.3L1249.5 1521.6C1259.2 1534.6 1273.6 1543.3 1289.4 1546L1304.4 1543C1308.7 1543 1313.1 1541.8 1317.3 1540.6C1332.5 1536 1345 1525.7 1352.5 1511.7C1360 1497.7 1361.5 1481.6 1356.9 1466.4C1354.7 1459.2 1351.2 1452.6 1346.5 1446.7L1343.9 1443.5L1344.3 1443.3L1297 1382.1L1302.9 1377.6L1355.2 1445.2L1354.8 1445.4C1358.8 1451.1 1361.9 1457.5 1364 1464.2C1369.2 1481.3 1367.5 1499.4 1359.1 1515.1C1353.4 1525.7 1345.2 1534.4 1335.1 1540.6L1346.1 1554L1427.3 1487L1367.8 1396L1318 1319.7L1276.9 1350Z" fill="#FFC7BD"/>
<path d="M1359.1 1515.2C1367.5 1499.4 1369.2 1481.3 1364 1464.3C1361.9 1457.5 1358.8 1451.2 1354.8 1445.5L1355.2 1445.3L1302.9 1377.7L1297 1382.2L1344.3 1443.4L1343.9 1443.6L1346.5 1446.8C1351.2 1452.6 1354.7 1459.2 1356.9 1466.5C1361.5 1481.7 1360 1497.8 1352.5 1511.8C1345 1525.8 1332.6 1536.1 1317.3 1540.7C1313.1 1542 1308.7 1543.1 1304.4 1543.1L1289.4 1546.1L1285.6 1546.8L1304.4 1550.5C1308.9 1550.5 1313.2 1549.5 1317.3 1548.4L1311.3 1651.5L1314.7 1651.7L1318.6 1651.9L1324.8 1545.8C1328.4 1544.4 1331.8 1542.6 1335 1540.6C1345.1 1534.5 1353.4 1525.8 1359.1 1515.2Z" fill="white"/>
<path d="M1051.4 1603L1054.9 1602.1L1058.6 1601.2L1043.2 1540.2L1039.6 1541.2L1036 1542.1L1051.4 1603Z" fill="#8B77E8"/>
<path d="M912.5 1463.1L990.8 1531.2L1057.9 1454.1L1060.7 1456.5L1066.4 1450L1112.9 1396.5C1117.1 1391.7 1120.6 1386.2 1123.2 1380.1C1137.3 1347.8 1122.5 1310.1 1090.2 1296C1083 1292.8 1075.4 1291.2 1068 1290.8C1046.6 1289.7 1025.6 1299.5 1012.9 1317.2L997.7 1338.4L1000.7 1340.6L912.5 1463.1Z" fill="#FFC7BD"/>
<path d="M990.9 1531.2L945.5 1583.3L948.3 1585.7L951.1 1588.2L1028.9 1498.8L1063.5 1459L1060.7 1456.6L1057.9 1454.2L990.9 1531.2Z" fill="white"/>
<path d="M1160.9 1698H1162.7H1167.7L1219.8 1697.8C1223.5 1697.8 1227.3 1697.2 1231 1695.9C1248.9 1689.7 1258.4 1670.1 1252.2 1652.1C1246 1634.2 1226.4 1624.7 1208.4 1630.9L1160.1 1647.7L1063.2 1635.1L921.5 1616.6L948.3 1585.8L945.5 1583.4L990.8 1531.3L912.5 1463.2L840.1 1563.8L837.1 1561.6L817.9 1588.3L820.9 1590.5L814.2 1599.8L811.2 1597.6L791.9 1624.5C787.6 1630.5 784.6 1637.7 783.6 1645.6C780.3 1671 798.2 1694.3 823.6 1697.6C825.6 1697.9 827.6 1697.9 829.6 1697.9H855.3L1079 1698H1160.9Z" fill="#FF95A9"/>
<path d="M808.3 1595.3L811.3 1597.5L814.3 1599.6L820.9 1590.4L817.9 1588.2L814.9 1586L808.3 1595.3Z" fill="#8B77E8"/>
<path d="M837.1 1561.6L840.1 1563.7L912.5 1463.1L1000.6 1340.6L997.6 1338.5L994.6 1336.3L975.9 1362.3L834.1 1559.4L837.1 1561.6Z" fill="#8B77E8"/>
<path d="M1169 1182.8C1168.8 1183 1168.6 1183.1 1168.4 1183.2C1167.4 1184 1166.3 1184.7 1165.2 1185.5C1164.8 1185.8 1164.4 1186 1164 1186.3C1163.1 1186.9 1162.2 1187.4 1161.2 1187.9C1160.7 1188.2 1160.1 1188.5 1159.6 1188.8C1158.6 1189.3 1157.6 1189.7 1156.6 1190.1C1156.1 1190.3 1155.7 1190.5 1155.3 1190.7L1158 1197.6C1165.6 1194.6 1172.3 1190.2 1177.9 1184.9L1172.7 1179.6C1171.5 1180.7 1170.3 1181.8 1169 1182.8Z" fill="#40327A"/>
<path d="M1179.9 1171L1159.9 1150.5C1164 1144.2 1166.2 1136.6 1165.6 1128.5L1163.7 1102.4C1162.3 1082.9 1145.3 1068.2 1125.8 1069.7C1106.3 1071.1 1091.6 1088.1 1093.1 1107.6L1095 1133.7C1096.4 1153.2 1113.4 1167.9 1132.9 1166.4C1140.3 1165.9 1147 1163.1 1152.4 1158.7L1172.7 1179.5L1177.9 1184.8L1186.8 1193.9C1199.4 1206.8 1216.9 1214.1 1234.8 1214.1H1264.4V1203H1234.8C1219.8 1203 1205.2 1196.8 1194.7 1186.1L1185.1 1176.3L1179.9 1171Z" fill="white"/>
<path d="M1116.6 987.7L1121.2 1049.9C1095.9 1055.6 1077.9 1079.1 1079.8 1105.7L1082.7 1144.9C1084.9 1174.3 1110.4 1196.3 1139.7 1194.1C1141.9 1193.9 1144.1 1193.6 1146.2 1193.2C1149.3 1192.6 1152.4 1191.7 1155.3 1190.6C1155.8 1190.4 1156.2 1190.2 1156.6 1190C1157.6 1189.6 1158.6 1189.1 1159.6 1188.7C1160.1 1188.4 1160.7 1188.1 1161.2 1187.8C1162.1 1187.3 1163.1 1186.8 1164 1186.2C1164.4 1185.9 1164.8 1185.7 1165.2 1185.4C1166.3 1184.7 1167.3 1183.9 1168.4 1183.1C1168.6 1183 1168.8 1182.8 1169 1182.7C1170.3 1181.7 1171.6 1180.6 1172.8 1179.4L1152.5 1158.6C1147.1 1162.9 1140.4 1165.7 1133 1166.3C1113.5 1167.7 1096.5 1153.1 1095.1 1133.6L1093.2 1107.5C1091.8 1088 1106.4 1071 1125.9 1069.6C1145.4 1068.2 1162.4 1082.8 1163.8 1102.3L1165.7 1128.4C1166.3 1136.5 1164.1 1144.1 1160 1150.4L1180 1170.9C1183.6 1165.6 1186.3 1159.6 1187.8 1153.3C1187.8 1153.1 1187.9 1152.9 1187.9 1152.7C1188.2 1151.3 1188.4 1150 1188.6 1148.6C1188.7 1148.2 1188.7 1147.7 1188.8 1147.3C1188.9 1146.1 1189 1144.8 1189.1 1143.6C1189.1 1143.1 1189.2 1142.7 1189.2 1142.2C1189.2 1140.5 1189.2 1138.9 1189.1 1137.2L1188.5 1128.4L1186.3 1097.9C1184.3 1070.9 1162.5 1050.1 1136.1 1048.6L1131.5 986.5C1129.8 963.1 1137.3 940.5 1152.6 922.7C1155.6 919.3 1158.8 916.1 1162.1 913.2C1176.2 901.1 1193.7 893.9 1212.6 892.5L1211.5 877.7C1184.2 879.7 1159.3 892.2 1141.4 913C1136.4 918.8 1132.2 925 1128.7 931.5C1119.3 948.7 1115.1 968 1116.6 987.7Z" fill="#B3A4F5"/>
<path d="M1439.03 1346.31L1497.16 1358.06L1506.55 1311.59L1448.42 1299.85L1439.03 1346.31Z" fill="#8B77E8"/>
<path d="M1443.1 1426.86H1502.4V1379.46H1443.1V1426.86Z" fill="#FF809F"/>
<path d="M1441.59 1498L1500.22 1489.12L1493.12 1442.25L1434.49 1451.14L1441.59 1498Z" fill="#FFC359"/>
<path d="M1470.5 1607.8H2068L2084.7 1190.1L1487.2 1190L1470.5 1607.8Z" fill="#CCC2FF"/>
<path d="M2075.6 1418L2072 1509.1H1489.6L1510.2 1505.9L2075.6 1418Z" fill="#B3A4F5"/>
<path d="M2068 1607.8H1485.7L1489.6 1509.1H2072L2068 1607.8Z" fill="#B3A4F5"/>
<path d="M2071.6 1611.6L1750.6 1611.5V1604.1H2064.5L2066.8 1546.5L2074.2 1546.8L2071.6 1611.6Z" fill="#8B77E8"/>
<path d="M1498.7 1281.2L1502.4 1190L2084.7 1190.1L2064.1 1193.3L1498.7 1281.2Z" fill="#B3A4F5"/>
<path d="M2081.35 1258.09L1574.9 1336.66L1576.03 1343.97L2082.48 1265.4L2081.35 1258.09Z" fill="white"/>
<path d="M2082.53 1227.82L1758.2 1278.13L1759.34 1285.44L2083.67 1235.13L2082.53 1227.82Z" fill="white"/>
<path d="M1705.88 1286.36L1641.15 1296.4L1642.28 1303.71L1707.01 1293.67L1705.88 1286.36Z" fill="white"/>
<path d="M2083.1 1321.9L2075.7 1321.6L2080.8 1193.8H1718.8V1186.4H2088.6L2083.1 1321.9Z" fill="white"/>
<path d="M1555.8 1186.3H1487.2V1193.7H1555.8V1186.3Z" fill="#B3A4F5"/>
<path d="M2067.78 1522.02L2067.29 1534.11L2074.69 1534.41L2075.17 1522.32L2067.78 1522.02Z" fill="#8B77E8"/>
<path d="M2074.87 1344.71L2073.6 1376.39L2081 1376.68L2082.27 1345.01L2074.87 1344.71Z" fill="#B3A4F5"/>
<path d="M1844.7 1412.2L1920.9 1607.3H1852.3L1844.7 1412.2Z" fill="#8B77E8"/>
<path d="M1726.2 1698.7H1891.9L1841 1412.2H1726.2V1698.7Z" fill="#DDD6FF"/>
<path d="M1726.2 1684.6H1587V1698.7H1726.2V1684.6Z" fill="#DDD6FF"/>
<path d="M1729.9 1568.2H1722.5V1576.5H1729.9V1568.2Z" fill="white"/>
<path d="M1729.9 1546.3H1722.5V1408.5H1816.4V1415.9H1729.9V1546.3Z" fill="white"/>
<path d="M1844.65 1411.59L1837.36 1412.89L1888.24 1699.31L1895.53 1698.01L1844.65 1411.59Z" fill="#8B77E8"/>
<path d="M1803.11 1506.66C1818.21 1500.4 1825.38 1483.09 1819.13 1467.98C1812.87 1452.88 1795.55 1445.71 1780.45 1451.96C1765.35 1458.22 1758.18 1475.54 1764.43 1490.64C1770.69 1505.74 1788 1512.91 1803.11 1506.66Z" fill="#7760DB"/>
<path d="M1814.8 1467.6C1813.5 1465.1 1811.8 1462.8 1809.8 1460.8L1815 1455.5C1817.6 1458 1819.7 1461 1821.4 1464.2L1814.8 1467.6Z" fill="white"/>
<path d="M1768.7 1503.3C1762.1 1497 1758.4 1488.4 1758.4 1479.2C1758.4 1460.9 1773.3 1445.9 1791.7 1445.9C1796.2 1445.9 1800.6 1446.8 1804.7 1448.5L1801.8 1455.3C1798.6 1454 1795.2 1453.3 1791.7 1453.3C1777.4 1453.3 1765.8 1464.9 1765.8 1479.2C1765.8 1486.3 1768.6 1493 1773.8 1497.9L1768.7 1503.3Z" fill="white"/>
</svg>
