<svg width="3000" height="2000" viewBox="0 0 3000 2000" fill="none" xmlns="http://www.w3.org/2000/svg">
<g clip-path="url(#clip0_2_356)">
<rect width="3000" height="2000" fill="white"/>
<path d="M3000.08 0H157.083V2000H3000.08V0Z" fill="white"/>
<path d="M648.07 1761.61H2393.1C2546.81 1652.51 2451.2 1581.99 2422.1 1569.38C2285.45 1510.24 2033.56 1705.78 2004.75 1618.58C1979.45 1542.09 2099.99 1525.78 2099.99 1403.13C2099.99 1287.01 1755.8 1268.82 1536.03 1453.93C1338.07 1620.66 957.767 1586.73 854.092 1524.27C680.29 1419.43 348.607 1503.98 648.07 1761.61Z" fill="#F8F7FF"/>
<path d="M2602.44 1065.02L2597.8 1061.8C2604.62 1052.04 2610.5 1042.56 2615.33 1033.46L2620.26 1036.11C2615.43 1045.4 2609.36 1055.17 2602.44 1065.02Z" fill="#B3A4F5"/>
<path d="M1799.67 1424.74C1799.58 1424.74 1799.48 1424.74 1799.48 1424.74C1788.78 1424.74 1777.97 1424.64 1767.55 1424.46L1767.64 1418.86C1778.07 1419.05 1788.87 1419.15 1799.48 1419.15C1799.58 1419.15 1799.67 1419.15 1799.67 1419.15C1811.99 1419.15 1824.5 1418.96 1836.92 1418.48L1837.11 1424.08C1824.6 1424.55 1811.99 1424.74 1799.67 1424.74ZM1732.67 1423.51C1708.6 1422.56 1685.29 1421.14 1663.21 1419.15L1663.68 1413.55C1685.67 1415.55 1708.89 1416.97 1732.86 1417.91L1732.67 1423.51ZM1871.79 1422.27L1871.41 1416.68C1894.35 1415.17 1917.47 1412.8 1940.31 1409.76L1941.07 1415.36C1918.13 1418.39 1894.82 1420.76 1871.79 1422.27ZM1628.62 1415.55C1604.74 1412.7 1581.52 1409.1 1559.82 1404.83L1560.86 1399.34C1582.47 1403.6 1605.5 1407.11 1629.28 1409.95L1628.62 1415.55ZM1975.47 1410.24L1974.52 1404.74C1997.17 1401.04 2020.01 1396.49 2042.47 1391.28L2043.7 1396.78C2021.24 1401.9 1998.21 1406.45 1975.47 1410.24ZM1525.8 1397.44C1502.58 1391.85 1480.69 1385.4 1458.99 1377.73L1460.88 1372.42C1482.4 1380 1504.1 1386.35 1527.22 1391.94L1525.8 1397.44ZM2077.62 1388.34L2076.2 1382.94C2098.38 1377.06 2120.74 1370.43 2142.63 1363.22L2144.44 1368.53C2122.35 1375.83 2099.89 1382.46 2077.62 1388.34ZM2177.22 1357.16L2175.33 1351.85C2196.94 1343.98 2218.54 1335.36 2239.68 1326.16L2241.95 1331.28C2220.72 1340.57 2198.93 1349.19 2177.22 1357.16ZM2273.6 1316.97L2271.23 1311.85C2292.08 1301.99 2312.93 1291.37 2332.93 1280.38L2335.67 1285.31C2315.49 1296.4 2294.55 1307.01 2273.6 1316.97ZM2365.9 1268.06L2363.06 1263.22C2383.15 1251.37 2402.77 1238.86 2421.53 1226.07L2424.66 1230.71C2405.8 1243.6 2386.09 1256.11 2365.9 1268.06ZM2453.09 1210.52L2449.77 1205.97C2468.82 1191.94 2487.02 1177.44 2503.88 1162.75L2507.58 1167.01C2490.52 1181.8 2472.23 1196.4 2453.09 1210.52ZM2533.36 1143.6L2529.47 1139.53C2547.19 1122.65 2563.11 1105.78 2576.86 1089.19L2581.21 1092.8C2567.38 1109.48 2551.27 1126.54 2533.36 1143.6Z" fill="#B3A4F5"/>
<path d="M1426.29 1365.31C1416.34 1361.23 1406.2 1356.78 1395.3 1351.85L1397.67 1346.73C1408.48 1351.66 1418.52 1356.11 1428.47 1360.09L1426.29 1365.31Z" fill="#B3A4F5"/>
<path d="M1093 383.886H1063.81V586.445H1093V383.886Z" fill="#F0EDFF"/>
<path d="M1134.6 442.938H1105.41V586.351H1134.6V442.938Z" fill="#F0EDFF"/>
<path d="M1176.2 519.526H1147.02V665.593H1176.2V519.526Z" fill="#F0EDFF"/>
<path d="M1217.71 543.981H1188.52V741.232H1217.71V543.981Z" fill="#F0EDFF"/>
<path d="M1342.52 430.521H1313.33V519.526H1342.52V430.521Z" fill="#F0EDFF"/>
<path d="M1384.12 454.882H1354.93V553.175H1384.12V454.882Z" fill="#F0EDFF"/>
<path d="M1425.72 485.118H1396.54V629.763H1425.72V485.118Z" fill="#F0EDFF"/>
<path d="M1550.44 508.246H1521.25V586.351H1550.44V508.246Z" fill="#F0EDFF"/>
<path d="M1300.92 349.858H1271.73V586.446H1300.92V349.858Z" fill="#F8F7FF"/>
<path d="M1051.4 316.967H1022.21V615.735H1051.4V316.967Z" fill="#F8F7FF"/>
<path d="M1009.79 407.962H980.606V468.152H1009.79V407.962Z" fill="#F8F7FF"/>
<path d="M968.191 449.384H939.003V525.308H968.191V449.384Z" fill="#F8F7FF"/>
<path d="M926.683 474.976H897.495V543.981H926.683V474.976Z" fill="#F8F7FF"/>
<path d="M843.478 481.896H814.29V514.787H843.478V481.896Z" fill="#F8F7FF"/>
<path d="M1259.31 492.796H1230.13V638.104H1259.31V492.796Z" fill="#F8F7FF"/>
<path d="M1467.33 407.962H1438.14V586.446H1467.33V407.962Z" fill="#F8F7FF"/>
<path d="M1508.84 363.886H1479.65V534.787H1508.84V363.886Z" fill="#F8F7FF"/>
<path d="M885.081 432.607H855.893V493.46H885.081V432.607Z" fill="#F8F7FF"/>
<path d="M1592.04 417.346H1562.85V468.152H1592.04V417.346Z" fill="#F8F7FF"/>
<path d="M989.988 649.479H686.26V953.27H989.988V649.479Z" fill="#F2F0FF"/>
<path d="M700.949 894.218H671.572V882.37C666.454 880.569 661.621 877.82 657.451 874.218L647.217 880.095L632.528 854.692L642.763 848.815C642.289 846.161 642.004 843.412 642.004 840.664C642.004 837.915 642.289 835.261 642.763 832.512L632.528 826.635L647.217 801.232L657.451 807.109C661.621 803.602 666.36 800.758 671.572 798.957V787.204H700.949V798.957C706.067 800.758 710.9 803.507 715.07 807.109L725.304 801.232L739.993 826.635L729.758 832.512C730.232 835.166 730.517 837.915 730.517 840.664C730.517 843.412 730.232 846.066 729.758 848.815L739.993 854.692L725.304 880.095L715.07 874.218C710.9 877.82 706.162 880.569 700.949 882.37V894.218ZM677.163 888.531H695.358V878.199L697.348 877.63C703.034 875.924 708.341 872.891 712.7 868.72L714.217 867.299L723.125 872.512L732.222 856.777L723.314 851.659L723.788 849.668C724.451 846.73 724.831 843.697 724.831 840.758C724.831 837.82 724.451 834.787 723.788 831.848L723.314 829.858L732.222 824.739L723.125 809.005L714.217 814.123L712.7 812.702C708.341 808.626 703.034 805.498 697.348 803.792L695.358 803.223V792.891H677.258V803.223L675.268 803.792C669.582 805.498 664.18 808.626 659.821 812.702L658.304 814.123L649.396 809.005L640.299 824.739L649.207 829.858L648.733 831.848C648.07 834.787 647.69 837.82 647.69 840.758C647.69 843.697 648.07 846.73 648.733 849.668L649.207 851.659L640.299 856.777L649.396 872.512L658.304 867.299L659.821 868.72C664.18 872.796 669.487 875.924 675.173 877.63L677.163 878.199V888.531V888.531ZM686.261 861.611C674.794 861.611 665.412 852.228 665.412 840.758C665.412 829.289 674.794 819.905 686.261 819.905C697.727 819.905 707.109 829.289 707.109 840.758C707.109 852.228 697.822 861.611 686.261 861.611ZM686.261 825.403C677.826 825.403 671.003 832.228 671.003 840.664C671.003 849.1 677.826 855.924 686.261 855.924C694.695 855.924 701.518 849.1 701.518 840.664C701.518 832.228 694.695 825.403 686.261 825.403Z" fill="#DDD6FF"/>
<path d="M714.975 1390.33H677.447V1374.69C670.15 1372.23 663.422 1368.34 657.641 1363.22L644.089 1371L625.325 1338.48L638.877 1330.71C638.119 1326.92 637.74 1323.03 637.74 1319.24C637.74 1315.45 638.119 1311.56 638.877 1307.77L625.325 1300L644.089 1267.49L657.641 1275.26C663.422 1270.14 670.245 1266.26 677.447 1263.79V1248.15H714.975V1263.79C722.272 1266.26 729 1270.14 734.781 1275.26L748.333 1267.49L767.096 1300L753.545 1307.77C754.303 1311.56 754.682 1315.36 754.682 1319.24C754.682 1323.13 754.303 1326.92 753.545 1330.71L767.096 1338.48L748.333 1371L734.781 1363.22C729 1368.34 722.177 1372.23 714.975 1374.69V1390.33ZM683.038 1384.64H709.383V1370.52L711.374 1369.95C719.239 1367.58 726.536 1363.41 732.507 1357.73L734.023 1356.3L746.248 1363.41L759.42 1340.57L747.195 1333.46L747.669 1331.47C748.617 1327.49 749.091 1323.32 749.091 1319.24C749.091 1315.17 748.617 1311.09 747.669 1307.01L747.195 1305.02L759.42 1297.91L746.248 1275.07L734.023 1282.18L732.507 1280.76C726.536 1275.07 719.239 1270.9 711.374 1268.53L709.383 1267.96V1253.84H683.038V1267.96L681.048 1268.53C673.183 1270.9 665.886 1275.07 659.915 1280.76L658.399 1282.18L646.174 1275.07L633.002 1297.91L645.226 1305.02L644.753 1307.01C643.805 1311.09 643.331 1315.17 643.331 1319.24C643.331 1323.32 643.805 1327.39 644.753 1331.47L645.226 1333.46L633.002 1340.57L646.174 1363.41L658.399 1356.3L659.915 1357.73C665.886 1363.41 673.183 1367.58 681.048 1369.95L683.038 1370.52V1384.64ZM696.211 1346.35C681.238 1346.35 669.108 1334.22 669.108 1319.24C669.108 1304.27 681.333 1292.13 696.211 1292.13C711.184 1292.13 723.314 1304.36 723.314 1319.24C723.314 1334.22 711.184 1346.35 696.211 1346.35ZM696.211 1297.73C684.365 1297.73 674.699 1307.39 674.699 1319.24C674.699 1331.09 684.365 1340.76 696.211 1340.76C708.057 1340.76 717.723 1331.09 717.723 1319.24C717.723 1307.39 708.057 1297.73 696.211 1297.73Z" fill="#DDD6FF"/>
<path d="M989.988 478.01C895.316 478.01 818.555 554.787 818.555 649.479C818.555 744.171 895.316 820.948 989.988 820.948C1084.66 820.948 1161.42 744.171 1161.42 649.479C1161.42 554.787 1084.66 478.01 989.988 478.01ZM989.988 730.711C945.163 730.711 908.773 694.408 908.773 649.479C908.773 604.55 945.163 568.247 989.988 568.247C1034.81 568.247 1071.2 604.55 1071.2 649.479C1071.2 694.408 1034.81 730.711 989.988 730.711Z" fill="white"/>
<path d="M909.815 606.445L848.027 573.175C876.173 520.758 930.569 488.246 990.082 488.246V558.483C956.44 558.483 925.736 576.872 909.815 606.445Z" fill="#CCC2FF"/>
<path d="M907.541 611.09L843.952 581.422C845.279 578.673 846.606 575.924 848.027 573.27L909.815 606.54C908.962 607.962 908.204 609.479 907.541 611.09Z" fill="white"/>
<path d="M836.181 697.63C831.348 682.085 828.884 665.877 828.884 649.478C828.884 625.687 833.907 602.843 843.952 581.422L907.541 611.09C901.949 623.128 899.106 636.019 899.106 649.478C899.106 658.768 900.528 667.962 903.276 676.682L836.181 697.63Z" fill="#DDD6FF"/>
<path d="M856.651 740C847.743 726.919 840.825 712.701 836.181 697.63L903.181 676.682C905.835 685.118 909.72 693.175 914.743 700.569L856.651 740Z" fill="white"/>
<path d="M951.512 806.066C912.847 796.588 879.205 773.175 856.746 740.095L914.838 700.569C927.536 719.242 946.584 732.512 968.381 737.82L951.512 806.066Z" fill="#CCC2FF"/>
<path d="M989.988 810.711C977.004 810.711 964.021 809.194 951.417 806.066L968.191 737.915C975.299 739.621 982.596 740.569 989.988 740.569C1019.55 740.569 1047.42 726.066 1064.47 701.801L1121.9 742.18C1091.77 785.024 1042.39 810.711 989.988 810.711Z" fill="#B3A4F5"/>
<path d="M1121.9 742.085L1064.47 701.706C1065.33 700.474 1066.18 699.147 1067.03 697.915L1126.36 735.355C1124.94 737.63 1123.42 739.905 1121.9 742.085Z" fill="white"/>
<path d="M1126.36 735.355L1066.94 697.915C1068.36 695.64 1069.69 693.27 1070.92 690.9L1133.37 722.938C1131.28 727.109 1128.92 731.374 1126.36 735.355Z" fill="white"/>
<path d="M1133.46 722.938L1071.01 690.9C1077.65 678.009 1080.96 664.076 1080.96 649.479H1151.19C1151.19 674.976 1145.03 700.379 1133.46 722.938Z" fill="#CCC2FF"/>
<path d="M1151.19 649.479H1080.96C1080.96 610.616 1056.32 576.019 1019.65 563.412L1042.49 497.062C1107.5 519.431 1151.19 580.663 1151.19 649.479Z" fill="#FFD4CC"/>
<path d="M1019.65 563.412C1010.17 560.19 1000.22 558.483 989.988 558.483V488.246C1007.99 488.246 1025.62 491.185 1042.49 496.967L1019.65 563.412Z" fill="white"/>
<path d="M825.188 874.408L797.706 912.891H852.576L825.188 874.408Z" fill="#CCC2FF"/>
<path d="M917.586 1034.79L944.973 996.398H890.198L917.586 1034.79Z" fill="#FFCCD6"/>
<path d="M1107.4 763.507L1103.33 759.621C1124.56 737.725 1138.96 710.521 1144.93 680.758L1150.43 681.896C1144.27 712.607 1129.39 740.853 1107.4 763.507Z" fill="#A292ED"/>
<path d="M1143.79 612.702C1142.85 608.72 1141.71 604.739 1140.48 600.853L1145.78 599.147C1147.11 603.128 1148.25 607.299 1149.2 611.469L1143.79 612.702Z" fill="#A292ED"/>
<path d="M1131.47 578.863C1104.47 524.834 1050.26 491.374 989.988 491.374C961.368 491.374 933.412 499.052 908.962 513.649L906.119 508.815C931.422 493.649 960.42 485.687 989.988 485.687C1052.44 485.687 1108.54 520.379 1136.5 576.303L1131.47 578.863Z" fill="#A292ED"/>
<path d="M989.988 813.175C899.77 813.175 826.326 739.716 826.326 649.479C826.326 612.133 838.551 576.967 861.768 547.772L866.128 551.28C843.763 579.431 831.917 613.46 831.917 649.479C831.917 736.682 902.802 807.583 989.988 807.583C1033.11 807.583 1073.38 790.521 1103.42 759.621L1107.5 763.507C1076.32 795.545 1034.62 813.175 989.988 813.175Z" fill="#A292ED"/>
<path d="M866.507 621.706L760.558 576.777H661.147V571.09H761.695L762.263 571.374L868.686 616.588L866.507 621.706Z" fill="#CCC2FF"/>
<path d="M647.785 571.09H629.495V576.683H647.785V571.09Z" fill="#CCC2FF"/>
<path d="M736.108 552.512H661.147V558.104H736.108V552.512Z" fill="#CCC2FF"/>
<path d="M708.815 533.934H600.023V539.526H708.815V533.934Z" fill="#CCC2FF"/>
<path d="M708.91 515.261H661.147V520.853H708.91V515.261Z" fill="#CCC2FF"/>
<path d="M2605.66 1761.61H454.746V1767.2H2605.66V1761.61Z" fill="#C4B8FF"/>
<path d="M938.245 1846.54H778.279V1852.13H938.245V1846.54Z" fill="#C4B8FF"/>
<path d="M1337.4 1846.54H1281.21V1852.13H1337.4V1846.54Z" fill="#C4B8FF"/>
<path d="M1979.16 1846.54H1402.22V1852.13H1979.16V1846.54Z" fill="#C4B8FF"/>
<path d="M2120.18 1846.54H2027.49V1852.13H2120.18V1846.54Z" fill="#C4B8FF"/>
<path d="M2476.97 1803.79H1097.64V1809.38H2476.97V1803.79Z" fill="#C4B8FF"/>
<path d="M690.999 1134.79V1090.05H665.222C662.569 1077.91 657.83 1066.73 651.386 1056.59L669.581 1038.39L637.929 1006.73L619.734 1024.93C609.594 1018.48 598.317 1013.74 586.187 1011V985.213H541.457V1011C529.327 1013.65 518.05 1018.39 508.004 1024.93L489.809 1006.73L458.157 1038.39L476.352 1056.59C469.908 1066.73 465.075 1078.01 462.422 1090.05H436.645V1134.79H462.422C465.075 1146.92 469.813 1158.1 476.352 1168.25L458.157 1186.45L489.809 1218.1L508.004 1199.91C518.05 1206.35 529.422 1211.18 541.457 1213.84V1239.62H586.187V1213.84C598.317 1211.18 609.594 1206.45 619.734 1199.91L637.929 1218.1L669.581 1186.45L651.386 1168.25C657.83 1158.1 662.569 1146.82 665.222 1134.79H690.999ZM563.917 1157.73C538.898 1157.73 518.618 1137.44 518.618 1112.42C518.618 1087.39 538.898 1067.11 563.917 1067.11C588.935 1067.11 609.215 1087.39 609.215 1112.42C609.215 1137.44 588.935 1157.73 563.917 1157.73Z" fill="#F0EDFF"/>
<path d="M589.03 1242.37H538.709V1216.02C527.337 1213.27 516.533 1208.63 506.488 1202.27L509.521 1197.54C519.566 1203.98 530.559 1208.53 542.12 1211.09L544.3 1211.56V1236.78H583.439V1211.56L585.618 1211.09C597.18 1208.53 608.173 1203.98 618.218 1197.54L620.113 1196.3L637.93 1214.12L667.592 1184.45L671.572 1188.44L637.93 1222.09L619.261 1203.41C609.784 1209.19 599.644 1213.36 588.935 1216.02V1242.37H589.03ZM563.917 1160.57C537.382 1160.57 515.775 1138.96 515.775 1112.42C515.775 1103.98 517.955 1095.64 522.219 1088.44L527.053 1091.28C523.357 1097.73 521.367 1105.02 521.367 1112.51C521.367 1135.92 540.415 1155.07 563.917 1155.07C578.7 1155.07 592.157 1147.58 600.023 1134.98L604.761 1137.91C595.948 1152.04 580.596 1160.57 563.917 1160.57ZM439.583 1134.79H433.992V1087.2H460.337C462.896 1076.59 467.16 1066.45 472.941 1056.97L454.272 1038.29L489.904 1002.65L508.573 1021.33C517.955 1015.55 528.19 1011.37 538.804 1008.82V982.464H589.125V1008.82C600.497 1011.56 611.3 1016.21 621.345 1022.56L618.313 1027.3C608.268 1020.85 597.275 1016.3 585.713 1013.74L583.533 1013.27V988.057H544.395V1013.27L542.215 1013.74C530.654 1016.3 519.661 1020.85 509.615 1027.3L507.72 1028.53L489.904 1010.71L462.232 1038.39L480.048 1056.21L478.816 1058.1C472.372 1068.25 467.823 1079.15 465.265 1090.71L464.791 1092.89H439.583V1134.79Z" fill="#CCC2FF"/>
<path d="M1872.36 261.422H1662.64V471.185H1872.36V261.422Z" fill="#E9E6FF"/>
<path d="M1831.28 430.154V302.571H1703.72V430.154H1831.28Z" fill="white"/>
<path d="M1767.07 414.029H1737.32L1705.29 343.412L1736.56 329.289L1755.23 370.427C1774.66 344.645 1817.77 294.597 1888.75 247.204L1907.8 275.735C1814.74 337.82 1772.57 405.213 1772.19 405.877L1767.07 414.029Z" fill="#FFB0BF"/>
<path d="M1875.2 474.029H1760.44V468.436H1869.52V444.36H1875.2V474.029Z" fill="#CCC2FF"/>
<path d="M1848.19 1206.26H1661.98V1223.98H1848.19V1206.26Z" fill="#40327A"/>
<path d="M2136.47 1021.14L2104.06 1178.2L2103.88 1179.34L2094.68 1223.98H1810.48L1852.27 1021.14H2136.47Z" fill="white"/>
<path d="M2146.52 1021.14L2114.2 1178.2L2113.92 1179.34L2104.73 1223.98H1820.52L1862.32 1021.14H2146.52Z" fill="#C4B8FF"/>
<path d="M2114.2 1178.2L2113.92 1179.34L2104.73 1223.98H1820.52L2114.2 1178.2Z" fill="#DDD6FF"/>
<path d="M1995.93 1136.39C2005.34 1127.91 2007.36 1114.82 2000.45 1107.16C1993.55 1099.51 1980.33 1100.18 1970.92 1108.67C1961.52 1117.16 1959.5 1130.24 1966.4 1137.9C1973.31 1145.55 1986.53 1144.88 1995.93 1136.39Z" fill="white"/>
<path d="M2143.82 1020.42L2118.62 1142.59L2124.09 1143.72L2149.3 1021.55L2143.82 1020.42Z" fill="#7760DB"/>
<path d="M2166.33 1617.25C2143.68 1617.25 2125.29 1598.86 2125.29 1576.21C2125.29 1553.55 2143.68 1535.17 2166.33 1535.17C2188.98 1535.17 2207.36 1553.55 2207.36 1576.21C2207.36 1598.86 2188.98 1617.25 2166.33 1617.25ZM2166.33 1540.85C2146.8 1540.85 2130.98 1556.78 2130.98 1576.21C2130.98 1595.64 2146.9 1611.56 2166.33 1611.56C2185.75 1611.56 2201.67 1595.64 2201.67 1576.21C2201.67 1556.78 2185.85 1540.85 2166.33 1540.85Z" fill="#40327A"/>
<path d="M2301.18 1576.21H2031.57V1761.61H2301.18V1576.21Z" fill="#FFB0BF"/>
<path d="M2301.08 1576.21H2273.03V1761.61H2301.08V1576.21Z" fill="#40327A"/>
<path d="M2273.03 1666.16H2031.57V1671.75H2273.03V1666.16Z" fill="#40327A"/>
<path d="M2172.01 1666.16H2132.68V1691.47H2172.01V1666.16Z" fill="white"/>
<path d="M991.978 1706.63V1689.76L1207 1672.89V1706.63H991.978Z" fill="#DDD6FF"/>
<path d="M1237.9 1445.59H1204.16V1706.63H1237.9V1445.59Z" fill="#C4B8FF"/>
<path d="M1450.08 1706.63V1689.76L1235.05 1672.89V1706.63H1450.08Z" fill="#C4B8FF"/>
<path d="M1237.9 1453.93V1509.29L1204.16 1505.4V1453.93H1237.9Z" fill="#A796F2"/>
<path d="M1470.55 1403.22H1331.62C1314 1403.22 1299.31 1389.57 1297.98 1371.94L1274.48 1043.41C1273.53 1030.14 1262.44 1020 1249.27 1020H993.968C993.399 1020 992.736 1020 992.167 1020C978.237 1021.04 967.812 1033.08 968.76 1047.01L992.262 1375.54C995.389 1419.62 1032.06 1453.74 1076.32 1453.74H1125.31H1331.62H1470.55C1484.48 1453.74 1495.85 1442.46 1495.85 1428.44C1495.85 1414.5 1484.48 1403.22 1470.55 1403.22Z" fill="#E5659B"/>
<path d="M1042.68 1371.85L1019.18 1043.32C1018.13 1029.38 1006.1 1018.86 992.167 1019.91C978.237 1020.95 967.718 1032.99 968.76 1046.92L992.262 1375.45C995.389 1419.53 1032.06 1453.65 1076.32 1453.65H1243.3C1257.23 1453.65 1268.6 1442.37 1268.6 1428.34C1268.6 1414.41 1257.32 1403.03 1243.3 1403.03H1076.32C1058.6 1403.22 1043.91 1389.48 1042.68 1371.85Z" fill="#FF95A9"/>
<path d="M1025.66 1745.47C1028.33 1734.16 1021.33 1722.82 1010.02 1720.15C998.716 1717.48 987.384 1724.49 984.714 1735.8C982.044 1747.11 989.046 1758.44 1000.35 1761.11C1011.66 1763.78 1022.99 1756.78 1025.66 1745.47Z" fill="#40327A"/>
<path d="M1229.14 1760.02C1239.87 1755.58 1244.97 1743.27 1240.52 1732.53C1236.08 1721.79 1223.77 1716.69 1213.04 1721.14C1202.3 1725.59 1197.2 1737.9 1201.65 1748.64C1206.1 1759.37 1218.4 1764.47 1229.14 1760.02Z" fill="#40327A"/>
<path d="M1456.92 1747.03C1460.47 1735.97 1454.37 1724.12 1443.31 1720.57C1432.25 1717.03 1420.4 1723.12 1416.85 1734.19C1413.31 1745.26 1419.4 1757.1 1430.47 1760.65C1441.53 1764.2 1453.38 1758.1 1456.92 1747.03Z" fill="#40327A"/>
<path d="M1242.54 1067.01H1054.81V1072.61H1242.54V1067.01Z" fill="#FF95A9"/>
<path d="M1246.05 1114.22H1058.22V1119.81H1246.05V1114.22Z" fill="#FF95A9"/>
<path d="M1249.36 1161.42H1061.63V1167.01H1249.36V1161.42Z" fill="#FF95A9"/>
<path d="M1252.78 1208.72H1064.95V1214.31H1252.78V1208.72Z" fill="#FF95A9"/>
<path d="M1256.19 1255.92H1068.36V1261.52H1256.19V1255.92Z" fill="#FF95A9"/>
<path d="M1259.6 1303.13H1071.77V1308.72H1259.6V1303.13Z" fill="#FF95A9"/>
<path d="M1262.92 1350.33H1075.09V1355.92H1262.92V1350.33Z" fill="#FF95A9"/>
<path d="M1276.56 1405.97H1076.32C1057.27 1405.97 1041.26 1391.09 1039.93 1372.04L1017.94 1065.4L1023.54 1065.02L1045.52 1371.66C1046.66 1387.77 1060.21 1400.38 1076.32 1400.38H1276.56V1405.97Z" fill="white"/>
<path d="M1301.39 1400.38H1289.64V1405.97H1301.39V1400.38Z" fill="white"/>
<path d="M1240.65 1453.93H1235.05V1618.58H1240.65V1453.93Z" fill="#7760DB"/>
<path d="M1240.65 1627.49H1235.05V1638.29H1240.65V1627.49Z" fill="#7760DB"/>
<path d="M1099.44 1703.79H991.978V1709.38H1099.44V1703.79Z" fill="#7760DB"/>
<path d="M1136.59 1703.79H1116.98V1709.38H1136.59V1703.79Z" fill="#7760DB"/>
<path d="M1450.08 1703.79H1181.61V1709.38H1450.08V1703.79Z" fill="#7760DB"/>
<path d="M1418.05 1450.9H1402.22V1456.49H1418.05V1450.9Z" fill="#7760DB"/>
<path d="M1344.7 1456.49H1076.23C1030.74 1456.49 992.641 1420.95 989.419 1375.64L976.152 1190.33L981.743 1189.95L995.01 1375.26C998.043 1417.63 1033.77 1450.9 1076.23 1450.9H1344.6V1456.49H1344.7Z" fill="#7760DB"/>
<path d="M973.309 1150.43L965.917 1047.11C964.875 1032.04 975.962 1018.77 990.841 1017.16V1017.06H993.968H1093.66V1022.65H993.968C993.305 1022.65 992.831 1022.65 992.357 1022.65C980.037 1023.51 970.655 1034.31 971.508 1046.63L978.9 1149.95L973.309 1150.43Z" fill="#7760DB"/>
<path d="M1274.67 1085.21L1271.63 1043.51C1271.16 1036.68 1267.65 1030.52 1261.97 1026.63L1265.19 1021.99C1272.3 1026.82 1276.66 1034.6 1277.32 1043.13L1280.35 1084.83L1274.67 1085.21Z" fill="#7760DB"/>
<path d="M1280.26 1084.84L1274.69 1085.24L1278.36 1136.57L1283.94 1136.18L1280.26 1084.84Z" fill="#7760DB"/>
<path d="M1284.91 1150.01L1279.33 1150.41L1286.22 1246.66L1291.8 1246.26L1284.91 1150.01Z" fill="#7760DB"/>
<path d="M1293.33 1267.25L1287.75 1267.65L1288.6 1279.57L1294.18 1279.17L1293.33 1267.25Z" fill="#7760DB"/>
<path d="M1470.55 1456.49H1431.22V1450.9H1470.55C1482.96 1450.9 1493.01 1440.85 1493.01 1428.44C1493.01 1416.02 1482.96 1405.97 1470.55 1405.97H1331.62C1312.57 1405.97 1296.56 1391.09 1295.23 1372.04L1291.44 1318.96L1297.03 1318.58L1300.82 1371.66C1301.96 1387.77 1315.51 1400.38 1331.62 1400.38H1470.55C1486 1400.38 1498.6 1412.99 1498.6 1428.44C1498.6 1443.89 1486 1456.49 1470.55 1456.49Z" fill="#7760DB"/>
<path d="M2166.33 1761.61H1921.64V1767.2H2166.33V1761.61Z" fill="#40327A"/>
<path d="M2383.06 1761.61H2214.66V1767.2H2383.06V1761.61Z" fill="#40327A"/>
<path d="M2177.98 1223.98L2180.92 1252.13L2236.74 1761.61H2250.95L2209.07 1223.98H2177.98Z" fill="#DDD6FF"/>
<path d="M867.739 1223.98L864.801 1252.13L808.983 1761.61H794.768L836.75 1223.98H867.739Z" fill="#DDD6FF"/>
<path d="M844.704 1410.29L809.756 1727.9L815.313 1728.51L850.262 1410.91L844.704 1410.29Z" fill="#B3A4F5"/>
<path d="M855.484 1311.46L846.9 1389.47L852.458 1390.08L861.042 1312.07L855.484 1311.46Z" fill="#B3A4F5"/>
<path d="M820.623 1393.87L803.403 1613.66L808.977 1614.1L826.197 1394.31L820.623 1393.87Z" fill="white"/>
<path d="M2267.35 1223.98H783.396V1252.04H2267.35V1223.98Z" fill="#8B77E8"/>
<path d="M1763.85 1252.13H1436.15L1430.18 1223.98H1753.52L1763.85 1252.13Z" fill="#624AC9"/>
<path d="M2267.35 1249.29H1863.17V1254.88H2267.35V1249.29Z" fill="#40327A"/>
<path d="M1681.12 1249.29H1058.12V1254.88H1681.12V1249.29Z" fill="#40327A"/>
<path d="M972.93 1249.29H783.302V1254.88H972.93V1249.29Z" fill="#40327A"/>
<path d="M1027.23 1249.29H1001.36V1254.88H1027.23V1249.29Z" fill="#40327A"/>
<path d="M2222.19 1603.63L2216.63 1604.24L2228.7 1714.38L2234.26 1713.77L2222.19 1603.63Z" fill="white"/>
<path d="M2213.73 1527.15L2208.17 1527.76L2215.3 1592.77L2220.86 1592.16L2213.73 1527.15Z" fill="white"/>
<path d="M1759.11 1761.61H1368.11V1767.2H1759.11V1761.61Z" fill="#40327A"/>
<path d="M741.13 1761.61H689.198V1767.2H741.13V1761.61Z" fill="#40327A"/>
<path d="M1267.18 1761.61H1051.49V1767.2H1267.18V1761.61Z" fill="#40327A"/>
<path d="M1031.21 1803.79H628.832V1809.38H1031.21V1803.79Z" fill="#C4B8FF"/>
<path d="M2725.83 798.957L2733.69 978.862L2665.37 967.204L2724.03 801.611C2724.12 801.422 2723.84 801.327 2723.74 801.516L2610.97 958.009L2557.62 948.91L2724.79 798.673C2725.26 798.199 2725.83 798.389 2725.83 798.957Z" fill="#DDD6FF"/>
<path d="M2724.12 801.517L2665.46 967.109L2649.26 1012.8C2647.93 1016.49 2642.91 1016.87 2641.11 1013.46L2611.16 957.82L2723.93 801.327C2723.93 801.232 2724.12 801.422 2724.12 801.517Z" fill="#CCC2FF"/>
<path d="M2683.74 852.084L2676.09 862.695L2680.63 865.965L2688.28 855.354L2683.74 852.084Z" fill="white"/>
<path d="M2668.28 873.601L2608.72 956.259L2613.25 959.529L2672.82 876.871L2668.28 873.601Z" fill="white"/>
<path d="M2736.73 982.18L2664.99 969.953L2665.94 964.36L2730.85 975.45L2723.08 799.052L2728.67 798.768L2736.73 982.18Z" fill="#CCC2FF"/>
<path d="M693.842 1137.63H665.222V1131.94H688.25V1090.05H693.842V1137.63Z" fill="#CCC2FF"/>
<path d="M2497.92 1279.53H2492.32V1295.26H2497.92V1279.53Z" fill="#DDD6FF"/>
<path d="M2497.92 1374.03H2492.32V1389.76H2497.92V1374.03Z" fill="#DDD6FF"/>
<path d="M2470.06 1285.44L2465.22 1288.24L2473.08 1301.87L2477.92 1299.07L2470.06 1285.44Z" fill="#DDD6FF"/>
<path d="M2517.14 1367.19L2512.3 1369.99L2520.16 1383.62L2525.01 1380.82L2517.14 1367.19Z" fill="#DDD6FF"/>
<path d="M2448.84 1304.62L2446.04 1309.47L2459.66 1317.33L2462.46 1312.49L2448.84 1304.62Z" fill="#DDD6FF"/>
<path d="M2530.73 1351.88L2527.94 1356.72L2541.56 1364.59L2544.36 1359.75L2530.73 1351.88Z" fill="#DDD6FF"/>
<path d="M2455.74 1331.85H2440.01V1337.44H2455.74V1331.85Z" fill="#DDD6FF"/>
<path d="M2550.23 1331.85H2534.5V1337.44H2550.23V1331.85Z" fill="#DDD6FF"/>
<path d="M2459.67 1351.96L2446.04 1359.82L2448.84 1364.66L2462.46 1356.8L2459.67 1351.96Z" fill="#DDD6FF"/>
<path d="M2541.45 1304.7L2527.82 1312.56L2530.62 1317.41L2544.24 1309.54L2541.45 1304.7Z" fill="#DDD6FF"/>
<path d="M2473.02 1367.32L2465.16 1380.94L2470 1383.74L2477.87 1370.11L2473.02 1367.32Z" fill="#DDD6FF"/>
<path d="M2520.25 1285.37L2512.39 1299L2517.23 1301.8L2525.09 1288.17L2520.25 1285.37Z" fill="#DDD6FF"/>
<path d="M2332.83 1194.41H2327.24C2327.24 1171.56 2308.67 1153.08 2285.92 1153.08V1147.49C2308.76 1147.49 2327.24 1128.91 2327.24 1106.16H2332.83C2332.83 1129 2351.41 1147.49 2374.15 1147.49V1153.08C2351.41 1153.08 2332.83 1171.66 2332.83 1194.41ZM2301.84 1150.24C2314.92 1154.98 2325.25 1165.31 2329.99 1178.39C2334.73 1165.31 2345.06 1154.98 2358.13 1150.24C2345.06 1145.5 2334.73 1135.17 2329.99 1122.09C2325.25 1135.17 2314.92 1145.5 2301.84 1150.24Z" fill="#DDD6FF"/>
<path d="M1921.64 831.469C1911.78 831.469 1903.82 823.412 1903.82 813.555C1903.82 803.697 1911.88 795.735 1921.64 795.735C1931.49 795.735 1939.46 803.791 1939.46 813.555C1939.55 823.507 1931.49 831.469 1921.64 831.469ZM1921.64 801.327C1914.91 801.327 1909.41 806.825 1909.41 813.555C1909.41 820.284 1914.91 825.782 1921.64 825.782C1928.37 825.782 1933.86 820.284 1933.86 813.555C1933.86 806.825 1928.37 801.327 1921.64 801.327Z" fill="#DDD6FF"/>
<path d="M1109.11 923.602C1099.25 923.602 1091.2 915.545 1091.2 905.782C1091.2 895.924 1099.25 887.962 1109.11 887.962C1118.97 887.962 1126.93 896.019 1126.93 905.782C1127.02 915.545 1118.97 923.602 1109.11 923.602ZM1109.11 893.46C1102.38 893.46 1096.88 898.957 1096.88 905.687C1096.88 912.417 1102.38 917.915 1109.11 917.915C1115.84 917.915 1121.33 912.417 1121.33 905.687C1121.33 898.957 1115.93 893.46 1109.11 893.46Z" fill="#DDD6FF"/>
<path d="M1558.21 156.019H1552.62V171.754H1558.21V156.019Z" fill="#DDD6FF"/>
<path d="M1558.21 250.521H1552.62V266.256H1558.21V250.521Z" fill="#DDD6FF"/>
<path d="M1530.29 162.067L1525.45 164.863L1533.31 178.489L1538.15 175.693L1530.29 162.067Z" fill="#DDD6FF"/>
<path d="M1577.57 243.854L1572.73 246.652L1580.6 260.276L1585.44 257.479L1577.57 243.854Z" fill="#DDD6FF"/>
<path d="M1509.15 181.207L1506.35 186.051L1519.97 193.918L1522.77 189.075L1509.15 181.207Z" fill="#DDD6FF"/>
<path d="M1590.99 228.555L1588.2 233.398L1601.82 241.265L1604.62 236.423L1590.99 228.555Z" fill="#DDD6FF"/>
<path d="M1516.04 208.341H1500.31V213.934H1516.04V208.341Z" fill="#DDD6FF"/>
<path d="M1610.61 208.341H1594.88V213.934H1610.61V208.341Z" fill="#DDD6FF"/>
<path d="M1520 228.541L1506.37 236.407L1509.17 241.251L1522.79 233.385L1520 228.541Z" fill="#DDD6FF"/>
<path d="M1601.86 181.235L1588.24 189.1L1591.03 193.944L1604.66 186.078L1601.86 181.235Z" fill="#DDD6FF"/>
<path d="M1533.32 243.814L1525.46 257.441L1530.3 260.237L1538.16 246.609L1533.32 243.814Z" fill="#DDD6FF"/>
<path d="M1580.52 161.987L1572.66 175.615L1577.5 178.41L1585.36 164.783L1580.52 161.987Z" fill="#DDD6FF"/>
<path d="M1399.28 336.398H1393.69C1393.69 313.554 1375.12 295.071 1352.38 295.071V289.479C1375.21 289.479 1393.69 270.9 1393.69 248.152H1399.28C1399.28 270.995 1417.86 289.479 1440.6 289.479V295.071C1417.86 295.071 1399.28 313.554 1399.28 336.398ZM1368.39 292.227C1381.47 296.967 1391.8 307.299 1396.54 320.379C1401.28 307.299 1411.6 296.967 1424.68 292.227C1411.6 287.488 1401.28 277.156 1396.54 264.076C1391.8 277.156 1381.37 287.488 1368.39 292.227Z" fill="#DDD6FF"/>
<path d="M2640.92 1376.68C2625.38 1376.68 2612.68 1363.98 2612.68 1348.44C2612.68 1332.89 2625.38 1320.19 2640.92 1320.19C2656.46 1320.19 2669.16 1332.89 2669.16 1348.44C2669.16 1363.98 2656.46 1376.68 2640.92 1376.68ZM2640.92 1325.78C2628.41 1325.78 2618.27 1335.92 2618.27 1348.44C2618.27 1360.95 2628.41 1371.09 2640.92 1371.09C2653.43 1371.09 2663.57 1360.95 2663.57 1348.44C2663.57 1335.92 2653.33 1325.78 2640.92 1325.78Z" fill="#DDD6FF"/>
<path d="M2449.2 1478.77H2394.9V1484.36H2449.2V1478.77Z" fill="#DDD6FF"/>
<path d="M2424.85 1454.5H2419.26V1508.82H2424.85V1454.5Z" fill="#DDD6FF"/>
<path d="M2310.56 1395.55H2279.48V1401.14H2310.56V1395.55Z" fill="#DDD6FF"/>
<path d="M2297.86 1382.75H2292.27V1413.84H2297.86V1382.75Z" fill="#DDD6FF"/>
<path d="M532.738 1355.45H501.655V1361.04H532.738V1355.45Z" fill="#DDD6FF"/>
<path d="M520.04 1342.75H514.448V1373.84H520.04V1342.75Z" fill="#DDD6FF"/>
<path d="M1720.83 550.427H1689.74V556.019H1720.83V550.427Z" fill="#DDD6FF"/>
<path d="M1708.03 537.63H1702.44V568.72H1708.03V537.63Z" fill="#DDD6FF"/>
<path d="M2113.16 921.896C2084.35 907.393 2057.72 888.91 2033.94 866.919L2091.08 805.024C2109.09 821.706 2129.27 835.64 2151.07 846.73L2113.16 921.896Z" fill="#DDD6FF"/>
<path d="M2269.05 958.957C2220.06 958.957 2172.68 948.91 2128.23 929.005L2162.54 852.038C2196.18 867.014 2232 874.597 2269.05 874.597C2344.2 874.597 2415.85 842.18 2465.79 785.687L2528.9 841.516C2462.95 916.114 2368.27 958.957 2269.05 958.957Z" fill="#F2F0FF"/>
<path d="M2549.66 815.64L2481.52 766.066C2483.32 763.602 2485.03 761.232 2486.73 758.673L2556.48 805.877C2554.3 809.194 2551.93 812.512 2549.66 815.64Z" fill="#F2F0FF"/>
<path d="M2597.14 724.455L2517.44 697.061C2521.51 685.213 2524.73 672.891 2527.1 660.569L2609.93 676.114C2606.8 692.417 2602.54 708.72 2597.14 724.455Z" fill="#E9E6FF"/>
<path d="M2614.19 645.782L2530.33 637.63C2531.18 629.194 2531.56 620.569 2531.56 612.038C2531.56 467.204 2413.76 349.384 2268.96 349.384C2233.99 349.384 2199.97 356.208 2167.94 369.573L2135.43 291.848C2177.79 274.123 2222.71 265.118 2268.96 265.118C2460.2 265.118 2615.8 420.758 2615.8 612.038C2615.8 623.317 2615.24 634.597 2614.19 645.782Z" fill="#F2F0FF"/>
<path d="M2073.17 437.251L2010.34 381.137C2038.68 349.479 2072.03 323.507 2109.66 303.981L2148.51 378.768C2119.99 393.554 2094.68 413.175 2073.17 437.251Z" fill="#F2F0FF"/>
<path d="M1998.31 828.72C1949.22 767.488 1922.11 690.521 1922.11 612.038C1922.11 556.967 1934.72 504.265 1959.55 455.355L2034.6 493.555C2015.84 530.521 2006.27 570.332 2006.27 612.038C2006.27 672.322 2026.17 729.005 2063.88 776.019L1998.31 828.72Z" fill="#F2F0FF"/>
<path d="M2269.05 919.621V914.028C2435.56 914.028 2570.98 778.578 2570.98 612.038C2570.98 588.057 2568.14 564.076 2562.55 540.948L2568.04 539.621C2573.73 563.223 2576.67 587.583 2576.67 612.038C2576.48 781.611 2438.59 919.621 2269.05 919.621Z" fill="#B3A4F5"/>
<path d="M2554.68 514.313C2553.92 512.132 2553.16 509.858 2552.31 507.678L2557.62 505.687C2558.47 507.962 2559.23 510.142 2559.99 512.417L2554.68 514.313Z" fill="#B3A4F5"/>
<path d="M1978.12 531.185L1972.72 529.668C2009.58 397.061 2131.45 304.455 2269.05 304.455C2371.69 304.455 2467.12 355.545 2524.54 441.042L2519.9 444.17C2463.51 360.189 2369.79 310.047 2269.05 310.047C2133.92 310.047 2014.32 400.948 1978.12 531.185Z" fill="#B3A4F5"/>
<path d="M2186.8 908.436C2072.51 876.682 1985.8 780.663 1965.9 663.791L1971.39 662.844C1990.91 777.535 2076.01 871.848 2188.31 903.033L2186.8 908.436Z" fill="#B3A4F5"/>
<path d="M2269.05 852.986C2402.1 852.986 2509.95 745.11 2509.95 612.038C2509.95 478.966 2402.1 371.09 2269.05 371.09C2136.01 371.09 2028.16 478.966 2028.16 612.038C2028.16 745.11 2136.01 852.986 2269.05 852.986Z" fill="#F8F7FF"/>
<path d="M2159.41 653.365H2107.29V753.839H2159.41V653.365Z" fill="#CCC2FF"/>
<path d="M2222.9 555.64H2170.78V753.839H2222.9V555.64Z" fill="#CCC2FF"/>
<path d="M2222.9 638.388H2170.78V668.246H2222.9V638.388Z" fill="#FFB0BF"/>
<path d="M2222.9 555.64H2170.78V638.388H2222.9V555.64Z" fill="#FFD4CC"/>
<path d="M2286.4 582.749H2234.27V753.934H2286.4V582.749Z" fill="#CCC2FF"/>
<path d="M2349.89 441.137H2297.77V753.839H2349.89V441.137Z" fill="#CCC2FF"/>
<path d="M2413.38 494.313H2361.26V753.839H2413.38V494.313Z" fill="#CCC2FF"/>
<path d="M2286.4 653.365H2234.27V668.341H2286.4V653.365Z" fill="#FFB0BF"/>
<path d="M2159.41 683.223H2107.29V698.199H2159.41V683.223Z" fill="#FFB0BF"/>
<path d="M2159.41 653.365H2107.29V683.223H2159.41V653.365Z" fill="#FFD4CC"/>
<path d="M2286.4 638.388H2234.27V653.365H2286.4V638.388Z" fill="#FFD4CC"/>
<path d="M2349.89 608.531H2297.77V668.246H2349.89V608.531Z" fill="#FFB0BF"/>
<path d="M2349.89 555.64H2297.77V608.531H2349.89V555.64Z" fill="#FFD4CC"/>
<path d="M2413.38 494.313H2361.26V626.73H2413.38V494.313Z" fill="#FFD4CC"/>
<path d="M2222.9 668.341H2170.78V698.199H2222.9V668.341Z" fill="#B3A4F5"/>
<path d="M2159.41 698.199H2107.29V713.175H2159.41V698.199Z" fill="#B3A4F5"/>
<path d="M2349.89 668.341H2297.77V683.317H2349.89V668.341Z" fill="#B3A4F5"/>
<path d="M2286.4 668.341H2234.27V727.488H2286.4V668.341Z" fill="#B3A4F5"/>
<path d="M2413.38 641.042H2361.26V668.436H2413.38V641.042Z" fill="#B3A4F5"/>
<path d="M2413.38 626.161H2361.26V641.137H2413.38V626.161Z" fill="#FFB0BF"/>
<path d="M1438.23 839.052C1440.7 833.839 1444.39 829.1 1449.32 825.403C1461.45 816.303 1477.37 815.924 1489.69 823.223L1496.04 826.54L1523.9 823.223L1514.9 747.678L1512.82 729.953L1510.07 730.237C1502.39 731.185 1495.38 725.687 1494.43 717.915C1493.48 710.237 1498.98 703.223 1506.75 702.275L1509.5 701.991C1528.07 699.81 1545.32 691.564 1558.78 678.673C1573.28 664.739 1591.19 655.166 1610.61 650.806L1623.79 723.223C1628.53 749.005 1610.43 773.46 1584.36 776.588L1580.67 777.062L1585.31 815.924L1601.14 814.028C1602.37 813.839 1603.7 813.839 1604.93 813.744C1605.12 813.744 1605.4 813.744 1605.59 813.744C1606.63 813.744 1607.68 813.744 1608.62 813.839C1608.91 813.839 1609.19 813.934 1609.57 813.934C1610.33 814.028 1611.18 814.123 1611.94 814.218L1626.44 816.872C1624.36 809.194 1623.69 800.19 1625.97 788.436C1627.1 782.844 1628.72 778.199 1630.8 774.123C1635.44 769.289 1639.71 764.076 1643.4 758.483C1644.07 757.536 1644.73 756.493 1645.3 755.545C1651.55 745.498 1656.39 734.313 1659.23 722.18C1673.82 661.706 1636.58 600.853 1576.12 586.351C1515.66 571.754 1454.82 609.005 1440.32 669.479C1437.38 681.611 1436.53 693.744 1437.57 705.592C1437.67 706.73 1437.76 707.867 1437.95 709.005C1438.71 715.735 1440.13 722.37 1442.12 728.815C1442.12 733.365 1441.46 738.294 1439.94 743.697C1428 785.877 1396.82 776.588 1384.88 818.673C1372.94 860.853 1394.55 867.867 1381.28 909.573C1369.34 947.109 1333.33 946.445 1314.28 1015.83C1307.36 1041.04 1308.97 1067.77 1318.26 1092.7L1438.23 839.052Z" fill="#40327A"/>
<path d="M1599.15 1058.48L1622.56 1055.64L1526.84 1067.01L1599.15 1058.48Z" fill="#F04F4F"/>
<path d="M1866.86 639.716C1856.53 636.493 1845.45 642.18 1842.22 652.607C1841.56 654.692 1841.28 656.872 1841.37 659.052L1842.13 689.479L1832.56 710.237L1861.84 721.611L1869.71 696.682L1879.85 664.55C1882.97 654.028 1877.19 642.938 1866.86 639.716Z" fill="#FF95A9"/>
<path d="M1787.83 871.659L1811.52 880.853L1787.83 871.659Z" fill="#FF95A9"/>
<path d="M1643.88 1737.16C1643.88 1736.4 1643.88 1735.73 1643.78 1734.98V1734.88L1629.95 1737.16H1643.88V1737.16Z" fill="#A796F2"/>
<path d="M1656.58 1051.66L1622.56 1055.73L1599.24 1058.48L1526.94 1067.11L1520.59 1073.36C1499.26 1094.5 1488.74 1124.27 1492.35 1154.03L1494.24 1169.95L1495.95 1169.57L1518.88 1284.36L1516.13 1284.93L1580 1602.84L1618.39 1531.37L1577.83 1206.07C1582.28 1206.64 1586.92 1206.92 1591.66 1206.92C1602.84 1206.92 1613.46 1205.31 1622.93 1202.46L1633.45 1222.75L1635.92 1221.42L1695.05 1334.88L1692.59 1336.21L1709.55 1368.82L1666.15 1447.96L1668.61 1449.29L1549.87 1670.71L1545.32 1668.25L1524.95 1705.5L1561.53 1725.59L1594.03 1673.27L1607.2 1739.05V1737.25H1629.76L1643.59 1734.98L1628.9 1617.16L1772.57 1385.97C1775.6 1381.14 1777.4 1375.36 1777.4 1369.19C1777.4 1364.64 1776.46 1360.38 1774.75 1356.4L1685.48 1153.37L1681.59 1121.04C1678.75 1096.3 1670.13 1072.51 1656.58 1051.66Z" fill="#7760DB"/>
<path d="M1832.46 710.047L1826.49 722.844L1829.05 723.981L1784.23 820.758L1781.67 819.526L1770.77 843.033L1626.44 817.062L1611.94 814.408C1611.18 814.313 1610.33 814.218 1609.57 814.123C1609.29 814.123 1609 814.028 1608.62 814.028C1607.58 813.934 1606.54 813.934 1605.59 813.934C1605.4 813.934 1605.12 813.934 1604.93 813.934C1603.7 813.934 1602.37 814.028 1601.14 814.218L1585.31 816.114L1594.41 815.071L1602.09 879.621L1496.04 826.54L1489.69 823.223C1477.37 816.019 1461.45 816.398 1449.32 825.403C1444.39 829.1 1440.7 833.839 1438.23 839.052L1318.45 1092.8L1280.83 1172.42L1316.36 1189.19L1346.31 1138.39L1472.44 924.455L1526.84 1067.01L1622.46 1055.64L1656.48 1051.56L1650.51 969.1C1650.04 969.194 1649.56 969.384 1649.09 969.479C1648.81 969.573 1648.52 969.668 1648.24 969.668C1646.82 969.953 1645.39 970.237 1643.88 970.427C1642.17 970.616 1640.56 970.711 1638.86 970.711V965.118C1638.95 965.118 1639.04 965.118 1639.14 965.118C1640.47 965.118 1641.89 965.024 1643.21 964.834C1657.05 963.223 1668.14 954.028 1672.88 941.896C1672.97 941.611 1673.07 941.327 1673.16 941.137C1673.44 940.284 1673.73 939.431 1674.01 938.578C1674.11 938.104 1674.2 937.63 1674.39 937.156C1674.58 936.493 1674.77 935.829 1674.87 935.166C1674.96 934.597 1675.06 934.028 1675.06 933.46C1675.15 932.796 1675.25 932.227 1675.34 931.564C1675.34 930.995 1675.34 930.427 1675.43 929.858C1675.43 929.194 1675.53 928.531 1675.53 927.867C1675.53 927.488 1675.43 927.014 1675.43 926.635C1675.43 925.877 1675.34 925.024 1675.25 924.265C1675.25 923.886 1675.15 923.507 1675.06 923.128C1674.96 922.37 1674.87 921.611 1674.68 920.758C1674.58 920.095 1674.39 919.526 1674.2 918.957C1674.11 918.483 1673.92 917.915 1673.82 917.441C1673.63 916.777 1673.35 916.114 1673.07 915.45C1672.88 915.071 1672.78 914.692 1672.59 914.313C1672.31 913.554 1671.93 912.891 1671.55 912.227C1671.45 912.038 1671.36 911.943 1671.36 911.754L1671.27 911.564L1650.42 871.469L1655.44 868.91L1665.48 888.246L1727.65 892.512L1727.46 895.355L1747.08 896.682L1747.27 893.839L1765.56 895.071L1765.37 897.915L1784.32 899.242C1796.26 900.095 1807.63 892.701 1811.43 880.758L1787.73 871.564L1811.43 880.758L1861.65 721.327L1832.46 710.047ZM1627.48 970.806H1597.25V965.213H1627.48V970.806Z" fill="#FFD4CC"/>
<path d="M1580.67 777.062L1584.36 776.588C1610.42 773.46 1628.43 749.1 1623.79 723.223L1610.61 650.806C1591.19 655.166 1573.28 664.834 1558.78 678.673C1545.32 691.564 1527.98 699.81 1509.5 701.99L1506.75 702.275C1499.07 703.223 1493.58 710.142 1494.43 717.915C1495.38 725.592 1502.3 731.09 1510.07 730.237L1512.82 729.953L1514.9 747.678L1523.9 823.223L1496.04 826.54L1602.09 879.336L1594.41 814.787L1585.31 815.829L1580.67 777.062ZM1602.28 730.521C1603.32 737.441 1598.48 743.791 1591.66 744.834C1584.74 745.877 1578.39 741.043 1577.35 734.218L1602.28 730.521Z" fill="#FF95A9"/>
<path d="M1271.82 1191.37L1249.08 1198.01C1241.78 1200.09 1237.61 1207.68 1239.79 1214.98C1241.5 1220.95 1246.99 1224.74 1252.87 1224.74V1224.83H1284.81C1286.51 1224.83 1288.22 1224.64 1289.92 1224.08C1294.57 1222.75 1298.26 1219.72 1300.54 1215.83L1316.27 1189.19L1280.73 1172.42L1271.82 1191.37Z" fill="#FF95A9"/>
<path d="M1607.39 1737.16V1738.96V1762.37H1658.57C1662.93 1762.37 1666.43 1758.86 1666.43 1754.5C1666.43 1751.66 1664.92 1749.1 1662.55 1747.68L1643.97 1736.97H1630.04H1607.39V1737.16Z" fill="#40327A"/>
<path d="M1510.07 1732.89C1508.55 1735.73 1507.6 1739.05 1507.6 1742.46C1507.6 1753.46 1516.51 1762.46 1527.6 1762.46C1534.8 1762.46 1541.06 1758.67 1544.56 1752.99L1561.62 1725.5L1525.04 1705.4L1510.07 1732.89Z" fill="#40327A"/>
<path d="M1591.66 744.834C1598.58 743.791 1603.32 737.441 1602.28 730.521L1577.26 734.218C1578.3 741.043 1584.74 745.782 1591.66 744.834Z" fill="white"/>
<path d="M1668.8 1449.29L1666.34 1447.96L1663.87 1446.64L1618.39 1531.37L1580.01 1602.84L1545.04 1668.06L1545.51 1668.25L1550.06 1670.71L1668.8 1449.29Z" fill="#40327A"/>
<path d="M1690.22 1337.54L1692.68 1336.21L1695.24 1334.88L1636.01 1221.42L1633.55 1222.75L1631.08 1224.08L1690.22 1337.54Z" fill="#40327A"/>
<path d="M1495.85 1169.57L1494.15 1169.95L1492.25 1154.03C1488.74 1124.17 1499.17 1094.41 1520.49 1073.36L1526.84 1067.11L1472.44 924.455L1346.22 1138.39C1366.59 1160.76 1395.02 1178.2 1430.56 1186.26C1452.73 1191.18 1473.87 1191.66 1493.67 1187.87L1513.29 1285.59L1516.04 1285.02L1518.79 1284.45L1495.85 1169.57Z" fill="#40327A"/>
<path d="M1627.48 965.213H1597.25V970.806H1627.48V965.213Z" fill="#FAB4A8"/>
<path d="M1665.48 888.246L1655.44 868.91L1650.42 871.469L1671.27 911.564L1673.73 910.237L1671.27 911.564L1671.36 911.754C1671.45 911.943 1671.45 912.038 1671.55 912.227C1671.93 912.891 1672.21 913.649 1672.59 914.313C1672.78 914.692 1672.88 915.071 1673.07 915.45C1673.35 916.114 1673.54 916.777 1673.82 917.441C1674.01 917.915 1674.11 918.483 1674.2 918.957C1674.39 919.526 1674.58 920.19 1674.68 920.758C1674.87 921.517 1674.96 922.275 1675.06 923.128C1675.15 923.507 1675.25 923.886 1675.25 924.265C1675.34 925.118 1675.34 925.877 1675.43 926.635C1675.43 927.014 1675.53 927.488 1675.53 927.867C1675.53 928.531 1675.53 929.194 1675.43 929.858C1675.43 930.426 1675.43 930.995 1675.34 931.564C1675.25 932.227 1675.15 932.796 1675.06 933.46C1674.96 934.028 1674.96 934.597 1674.87 935.166C1674.77 935.829 1674.58 936.493 1674.39 937.156C1674.3 937.63 1674.2 938.104 1674.01 938.578C1673.73 939.431 1673.44 940.284 1673.16 941.137C1673.07 941.422 1672.97 941.706 1672.88 941.896C1668.14 954.028 1657.05 963.223 1643.21 964.834C1641.89 965.024 1640.47 965.024 1639.14 965.118C1639.04 965.118 1638.95 965.118 1638.85 965.118V970.711C1640.56 970.711 1642.17 970.616 1643.88 970.426C1645.3 970.237 1646.82 969.953 1648.24 969.668C1648.52 969.573 1648.81 969.479 1649.09 969.479C1649.56 969.384 1650.04 969.194 1650.51 969.099C1651.17 968.91 1651.84 968.72 1652.5 968.531C1652.79 968.436 1653.07 968.341 1653.26 968.246C1654.4 967.867 1655.44 967.393 1656.58 966.919C1656.86 966.825 1657.14 966.635 1657.33 966.54C1658.38 966.066 1659.42 965.498 1660.37 964.929C1660.65 964.739 1660.94 964.55 1661.31 964.36C1662.17 963.791 1663.12 963.223 1663.97 962.559C1664.35 962.275 1664.73 961.99 1665.11 961.706C1665.86 961.137 1666.53 960.569 1667.19 959.905C1667.66 959.526 1668.04 959.052 1668.52 958.673C1669.09 958.104 1669.65 957.535 1670.13 956.967C1670.6 956.493 1671.08 955.924 1671.55 955.355C1671.74 955.166 1671.93 954.976 1672.12 954.692C1672.4 954.313 1672.69 953.934 1672.88 953.554C1673.16 953.175 1673.44 952.796 1673.73 952.417C1679.51 943.981 1682.07 933.839 1680.93 923.602C1680.27 918.389 1678.75 913.46 1676.38 908.91L1668.71 894.028L1727.46 898.104L1727.65 895.261L1727.84 892.417L1665.48 888.246Z" fill="#FAB4A8"/>
<path d="M1784.23 820.758L1829.05 724.076L1826.49 722.844L1823.93 721.706L1779.11 818.389L1781.67 819.621L1784.23 820.758Z" fill="#FAB4A8"/>
<path d="M1747.36 893.934L1747.17 896.777L1746.98 899.526L1765.18 900.853L1765.37 898.009L1765.56 895.166L1747.36 893.934Z" fill="#FAB4A8"/>
</g>
<defs>
<clipPath id="clip0_2_356">
<rect width="3000" height="2000" fill="white"/>
</clipPath>
</defs>
</svg>
