<svg width="3000" height="2000" viewBox="0 0 3000 2000" fill="none" xmlns="http://www.w3.org/2000/svg">
<path d="M3000 0H0V2000H3000V0Z" fill="white"/>
<path d="M2651.5 1668.3H451.9V1705.3H2651.5V1668.3Z" fill="#8B77E8"/>
<path d="M1673.8 1701.6H852.1V1709H1673.8V1701.6Z" fill="#40327A"/>
<path d="M739.7 1701.6H526.7V1709H739.7V1701.6Z" fill="#40327A"/>
<path d="M811.4 1701.6H777.2V1709H811.4V1701.6Z" fill="#40327A"/>
<path d="M2410.1 1701.6H1914V1709H2410.1V1701.6Z" fill="#40327A"/>
<path d="M2757.1 1745.1H2156.7V1782.1H2757.1V1745.1Z" fill="#F2F0FF"/>
<path d="M2116.6 1745.1H2002.8V1782.1H2116.6V1745.1Z" fill="#E9E6FF"/>
<path d="M751.7 1819.2H586.8V1837.7H751.7V1819.2Z" fill="#F2F0FF"/>
<path d="M811.4 1819.2H787.5V1837.7H811.4V1819.2Z" fill="#F2F0FF"/>
<path d="M1407.2 1819.2H858.3V1837.7H1407.2V1819.2Z" fill="#F2F0FF"/>
<path d="M1703.9 1819.2H1468.4V1837.7H1703.9V1819.2Z" fill="#F2F0FF"/>
<path d="M2227.1 1819.2H1734.5V1837.7H2227.1V1819.2Z" fill="#F2F0FF"/>
<path d="M2311 1819.2H2284.3V1837.7H2311V1819.2Z" fill="#F2F0FF"/>
<path d="M1986.3 1745.1H1238.8V1782.1H1986.3V1745.1Z" fill="#F2F0FF"/>
<path d="M1199.3 1745.1H1057.6V1782.1H1199.3V1745.1Z" fill="#E9E6FF"/>
<path d="M1043.7 1745.1H1014.7V1782.1H1043.7V1745.1Z" fill="#DDD6FF"/>
<path d="M999.9 1745.1H672.9V1782.1H999.9V1745.1Z" fill="#F2F0FF"/>
<path d="M627.2 1745.1H350V1782.1H627.2V1745.1Z" fill="#F2F0FF"/>
<path d="M770.8 1162.2L767.2 1155.8C771.6 1153.3 776 1150.6 780.3 1147.9L784.3 1154.1C779.9 1156.9 775.3 1159.6 770.8 1162.2Z" fill="#B3A4F5"/>
<path d="M808.3 1136.5L803.6 1130.8C863.8 1081.5 898.3 1008.7 898.3 931C898.3 788.7 782.6 673 640.3 673C499.8 673 384.1 787.3 382.3 927.7L374.9 927.6C375.8 857.4 403.8 791.6 453.7 742.2C503.7 692.8 570 665.6 640.3 665.6C786.7 665.6 905.7 784.7 905.7 931C905.8 1010.9 870.3 1085.8 808.3 1136.5Z" fill="#B3A4F5"/>
<path d="M640.4 1196.4C537.9 1196.4 443.5 1136.4 400 1043.6L406.7 1040.5C449 1130.7 540.7 1189 640.4 1189C657.9 1189 675.3 1187.2 692.3 1183.8L693.8 1191.1C676.3 1194.6 658.3 1196.4 640.4 1196.4Z" fill="#B3A4F5"/>
<path d="M812.2 683.1C804.4 677.7 796.2 672.5 787.8 667.8L820.7 609.3C830.9 615 840.9 621.3 850.5 628L812.2 683.1Z" fill="#E9E6FF"/>
<path d="M768.9 658C729.3 639.3 686.9 629.7 642.9 629.3L643.4 562.2C697.3 562.6 749.1 574.4 797.5 597.3L768.9 658Z" fill="#E9E6FF"/>
<path d="M602.5 631.7L594.2 565.1C598 564.6 601.9 564.2 605.7 563.8L611.9 630.6C608.8 631 605.6 631.3 602.5 631.7Z" fill="#E9E6FF"/>
<path d="M313.8 1102.5C286.2 1050 271.6 990.7 271.6 931C271.6 860.1 291.8 791.2 330 731.8C367.2 674 419.5 627.8 481.4 598.2L510.4 658.8C406.1 708.6 338.7 815.5 338.7 931C338.7 979.8 350.6 1028.3 373.2 1071.2L313.8 1102.5Z" fill="#E9E6FF"/>
<path d="M394.3 1205.7C378.2 1191.3 363.3 1175.3 350 1158.3L402.8 1116.9C413.7 1130.8 425.9 1143.9 439.1 1155.7L394.3 1205.7Z" fill="#E9E6FF"/>
<path d="M436 1237.9C430.5 1234.3 425.1 1230.4 419.7 1226.4L459.9 1172.6C464.3 1175.9 468.8 1179 473.2 1182L436 1237.9Z" fill="#E9E6FF"/>
<path d="M640.4 1135.2C753.177 1135.2 844.6 1043.78 844.6 931C844.6 818.223 753.177 726.8 640.4 726.8C527.623 726.8 436.2 818.223 436.2 931C436.2 1043.78 527.623 1135.2 640.4 1135.2Z" fill="#FFB0BF"/>
<path d="M718.9 833.3C715.8 830.8 712.5 828.4 709.1 826.1C688.6 812.6 664.9 805.5 640.4 805.5V798.1C666.4 798.1 691.5 805.6 713.2 819.9C716.8 822.3 720.3 824.8 723.6 827.5L718.9 833.3Z" fill="white"/>
<path d="M745.6 1011.9L739.7 1007.4C754.3 988.5 763.1 966 765.2 942.3C765.5 938.7 765.7 934.9 765.7 931C765.7 899.3 753.8 869 732.1 845.7L737.5 840.7C760.4 865.4 773 897.4 773 931C773 935.1 772.8 939.2 772.4 943C770.4 968 761.1 991.8 745.6 1011.9Z" fill="white"/>
<path d="M732.3 927.6C730.5 877.9 690.1 839 640.3 839V831.6C694.1 831.6 737.7 873.7 739.7 927.4L732.3 927.6Z" fill="white"/>
<path d="M719.2 991.6L713.3 987.1C722.7 975 728.9 960.6 731.3 945.5L738.6 946.7C736 962.9 729.3 978.5 719.2 991.6Z" fill="white"/>
<path d="M632.3 1057.8C638.2 1064 645.2 1068.9 653 1072.2C670.6 1079.7 690.6 1078.7 707.3 1069.5L725.9 1059.3L686.9 988.4L666.1 995.8C657.6 998.8 648.3 998.5 640 994.9C632.8 991.8 626.9 986.3 623.1 979.5L591.1 921C587.3 914.1 585.9 906.2 587.1 898.5C588.5 889.6 593.2 881.6 600.3 876L617.7 862.4L578.7 791.5L560.1 801.7C543.4 810.9 531.8 827.3 528.7 846.1C527.3 854.5 527.7 863.1 529.7 871.3C547.4 941.3 582.7 1005.5 632.3 1057.8Z" fill="white"/>
<path d="M1839.6 1625.1L1833.4 1668.4C1845.6 1668.4 1855.5 1658.5 1855.5 1646.3C1855.5 1636.2 1848.8 1627.7 1839.6 1625.1Z" fill="#FF95A9"/>
<path d="M1839.6 1625L1584.6 1550.6L1463.9 1293.5C1455.6 1275.7 1441.6 1260.4 1422.9 1250.4C1411.5 1244.3 1399.4 1240.9 1387.3 1239.8C1386.9 1239.8 1386.5 1239.7 1386.1 1239.7C1384.5 1239.6 1382.8 1239.5 1381.2 1239.4C1380.8 1239.4 1380.4 1239.3 1380 1239.3H1318.6L1315.5 1252.7C1308.1 1284.4 1276.4 1304 1244.8 1296.6C1217.6 1290.2 1199.4 1266 1199.4 1239.3H1122.3C1121.7 1239.3 1121.2 1239.4 1120.6 1239.4C1119.3 1239.4 1118 1239.5 1116.7 1239.6C1116.1 1239.7 1115.5 1239.7 1114.8 1239.8C1099.3 1241.3 1083.9 1246.6 1070.1 1256.1C1061.6 1262 1054.4 1269 1048.5 1276.8L999.1 1342.3L990.9 1353.1L971.7 1378.5L974.7 1380.7L840.3 1558.8L837.3 1556.6L830.6 1565.4L830.7 1565.5C825 1573 820.9 1581.9 818.9 1591.8C812.1 1626.6 834.8 1660.4 869.6 1667.2C873.8 1668 877.9 1668.4 882 1668.4H1195.2V1600.1L1217.9 1604.5V1668.3V1604.5L1251.2 1611L1307.9 1594.4C1327.9 1588.6 1348.8 1600 1354.6 1620C1360.4 1640 1349 1660.9 1329 1666.7C1325.5 1667.7 1321.9 1668.2 1318.4 1668.2H1277.3H1428.1L1429.6 1638.6L1425.9 1638.4L1432.3 1508.6L1439.7 1509L1436.6 1573L1486.8 1641.9H1486.9C1492.4 1649.5 1499.7 1656.1 1508.6 1660.8C1510.5 1661.8 1512.5 1662.7 1514.5 1663.6C1522.4 1666.8 1530.6 1668.4 1538.7 1668.4H1833.4L1839.6 1625ZM1169.8 1239.5C1169.8 1282.3 1200.3 1318.9 1242.4 1326.6C1247.7 1327.6 1253.1 1328.1 1258.4 1328.1C1301.1 1328.1 1337.7 1297.6 1345.3 1255.5C1346.3 1250.3 1346.8 1244.9 1346.8 1239.5H1354.2C1354.2 1245.3 1353.7 1251.1 1352.6 1256.8C1344.3 1302.4 1304.7 1335.4 1258.4 1335.4C1252.7 1335.4 1246.8 1334.9 1241 1333.8C1195.4 1325.5 1162.4 1285.8 1162.4 1239.4H1169.8V1239.5ZM1155 1596.1L1008.8 1567.4L1073.2 1506.3L1078.3 1511.7L1067 1522.4L1069.4 1571.7L1156.4 1588.8L1155 1596.1ZM1433.6 1484.5L1434.2 1472.5L1441.6 1472.9L1441 1484.9L1433.6 1484.5ZM1775.3 1654.4H1636.1V1647H1775.3V1654.4Z" fill="#FFC359"/>
<path d="M1069.4 1571.7L1067 1522.4L1024.3 1562.9L1069.4 1571.7Z" fill="#FF809F"/>
<path d="M819 1591.9C820.9 1582 825.1 1573.2 830.8 1565.6L830.7 1565.5L837.4 1556.7L834.4 1554.5L968.8 1376.4L971.8 1378.6L991 1353.2C959.9 1364.9 930.2 1380.6 903.1 1399.9L901 1396.9C895.2 1401 889.5 1405.3 884 1409.8L886.3 1412.6C814.9 1469.4 765.8 1549.7 747.9 1638.6C747.2 1641.9 746.6 1645.2 746 1648.5L742.4 1647.9C741.2 1654.7 740.1 1661.5 739.3 1668.5H882C877.9 1668.5 873.8 1668.1 869.6 1667.3C834.9 1660.4 812.2 1626.7 819 1591.9Z" fill="#FF809F"/>
<path d="M1486.9 1642L1436.6 1573.1L1433.4 1638.9L1429.7 1638.7L1428.2 1668.3H1515C1514.8 1666.7 1514.6 1665.1 1514.4 1663.5C1512.4 1662.7 1510.4 1661.8 1508.5 1660.7C1499.7 1656.2 1492.5 1649.6 1486.9 1642Z" fill="#FF809F"/>
<path d="M991 1353.2L999.2 1342.4C963.5 1354.7 929.6 1372 898.8 1393.9L901 1397L903.1 1400C930.2 1380.6 959.9 1364.9 991 1353.2Z" fill="#7760DB"/>
<path d="M747.7 1638.6C765.6 1549.7 814.8 1469.5 886.1 1412.6L883.8 1409.8L881.4 1406.8C808.7 1464.7 758.6 1546.5 740.3 1637.1C739.6 1640.4 739 1643.8 738.4 1647.2L742.1 1647.8L745.7 1648.4C746.5 1645.2 747.1 1641.9 747.7 1638.6Z" fill="#7760DB"/>
<path d="M1241 1333.8C1246.8 1334.8 1252.6 1335.4 1258.4 1335.4C1304.7 1335.4 1344.3 1302.3 1352.6 1256.8C1353.6 1251.1 1354.2 1245.3 1354.2 1239.5H1346.8C1346.8 1244.9 1346.3 1250.2 1345.3 1255.5C1337.6 1297.5 1301.1 1328.1 1258.4 1328.1C1253.1 1328.1 1247.7 1327.6 1242.4 1326.6C1200.4 1318.9 1169.8 1282.3 1169.8 1239.5H1162.4C1162.4 1285.8 1195.4 1325.5 1241 1333.8Z" fill="white"/>
<path d="M1244.9 1296.8C1276.6 1304.2 1308.2 1284.6 1315.6 1252.9L1318.7 1239.5L1326.7 1205.3C1305.8 1206.9 1286.4 1198.9 1272.6 1185.1C1262 1174.4 1254.7 1160.1 1253 1143.9L1251.9 1133.7C1250.6 1132.7 1249.3 1131.7 1248.1 1130.6L1238.6 1122.1C1234.9 1126.2 1230.6 1129.7 1225.8 1132.7L1227.2 1145.8H1226.9L1228.8 1170L1213.7 1171L1200.8 1226C1199.7 1230.5 1199.3 1235 1199.3 1239.4C1199.4 1266.2 1217.7 1290.4 1244.9 1296.8Z" fill="#FF95A9"/>
<path d="M1436.7 1573.2L1439.8 1509.2L1432.4 1508.8L1426 1638.6L1429.7 1638.8L1433.4 1639L1436.7 1573.2Z" fill="white"/>
<path d="M834.4 1554.5L837.4 1556.7L840.3 1558.9L974.8 1380.8L971.8 1378.6L968.9 1376.4L834.4 1554.5Z" fill="white"/>
<path d="M1247 1085.7V1085.6C1246.9 1086.9 1246.8 1088.1 1246.6 1089.4C1246.7 1088.1 1246.9 1086.9 1247 1085.7Z" fill="#FF95A9"/>
<path d="M1229.2 1121.1C1228.2 1122 1227.2 1122.8 1226.2 1123.6C1227.2 1122.8 1228.2 1121.9 1229.2 1121.1Z" fill="#FF95A9"/>
<path d="M1229.7 1120.6C1230.9 1119.5 1232.1 1118.3 1233.3 1117.1C1232.1 1118.3 1230.9 1119.5 1229.7 1120.6Z" fill="#FF95A9"/>
<path d="M1239.8 1108.1C1243.1 1102.6 1245.3 1096.4 1246.4 1090C1245.3 1096.4 1243.1 1102.5 1239.8 1108.1Z" fill="#FF95A9"/>
<path d="M1249.1 1106.4C1248 1108.7 1246.8 1111 1245.4 1113.2L1250.2 1117.5L1249.1 1106.4Z" fill="#FF95A9"/>
<path d="M1394.2 968.2L1315.1 976.5C1294.1 978.7 1274.3 971.6 1259.6 958.7L1270.4 1061.3C1272.3 1076.8 1286.3 1088 1301.9 1086.4L1414.4 1074.5L1405.3 1015.5L1401.9 993.5C1400.5 984.7 1397.8 976.1 1394.2 968.2Z" fill="#FF95A9"/>
<path d="M1380.5 1128.1C1394.8 1126.5 1405.1 1113.6 1403.5 1099.3L1351.7 1105.2C1353.3 1119.4 1366.2 1129.7 1380.5 1128.1Z" fill="white"/>
<path d="M1434.12 1472.55L1433.53 1484.54L1440.92 1484.9L1441.51 1472.91L1434.12 1472.55Z" fill="white"/>
<path d="M1318.5 1668.4C1322 1668.4 1325.6 1667.9 1329.1 1666.9C1349.1 1661.1 1360.5 1640.1 1354.7 1620.2C1348.9 1600.2 1327.9 1588.8 1308 1594.6L1251.3 1611.2L1218 1604.7V1668.5H1252.7H1277.5L1318.5 1668.4Z" fill="#FF95A9"/>
<path d="M1069.4 1571.7L1024.3 1562.9L1067 1522.4L1078.3 1511.7L1073.2 1506.3L1008.8 1567.4L1155 1596.1L1156.4 1588.8L1069.4 1571.7Z" fill="white"/>
<path d="M1195.3 1600.2V1668.5H1218V1668.4V1604.6L1195.3 1600.2Z" fill="#FF95A9"/>
<path d="M1775.3 1647H1636.1V1654.4H1775.3V1647Z" fill="white"/>
<path d="M1233.2 1117.1C1235.8 1114.4 1238 1111.3 1239.8 1108.1C1237.9 1111.3 1235.7 1114.3 1233.2 1117.1Z" fill="white"/>
<path d="M1297.5 1147.6L1334.7 1145.1L1334 1134L1296.8 1136.5C1281.9 1137.5 1266.9 1132.3 1255.7 1122.3L1250.3 1117.5L1245.5 1113.2C1243.5 1116.4 1241.3 1119.3 1238.8 1122.1L1248.3 1130.6C1249.5 1131.7 1250.8 1132.7 1252.1 1133.7C1263.8 1142.8 1278.4 1147.8 1293.2 1147.8C1294.6 1147.7 1296 1147.7 1297.5 1147.6Z" fill="white"/>
<path d="M1173.2 991.2L1171 975.3C1168.9 960.4 1169.8 945.5 1173.5 931.3C1152.7 952.5 1141.3 982.3 1144 1012.9C1150.7 1002.7 1160.9 994.9 1173.2 991.2Z" fill="#40327A"/>
<path d="M1227 1145.8H1227.3L1225.9 1132.7C1230.7 1129.7 1235 1126.2 1238.7 1122.1C1241.2 1119.3 1243.5 1116.4 1245.4 1113.2C1246.8 1111 1248 1108.7 1249.1 1106.4L1250.3 1117.5L1255.7 1122.3C1266.9 1132.3 1281.9 1137.5 1296.8 1136.5L1334 1134L1334.7 1145.1L1297.5 1147.6C1296 1147.7 1294.6 1147.7 1293.1 1147.7C1278.3 1147.7 1263.7 1142.7 1252 1133.6L1253.1 1143.8C1254.8 1160 1262 1174.3 1272.7 1185C1286.5 1198.9 1305.9 1206.8 1326.8 1205.2C1327.5 1205.1 1328.2 1205.1 1328.9 1205L1397 1197.8C1416.6 1195.7 1430.5 1177.7 1427.5 1158.2L1414.5 1074.4L1302 1086.3C1286.4 1087.9 1272.4 1076.7 1270.5 1061.2L1259.7 958.6C1274.4 971.6 1294.2 978.6 1315.2 976.4L1394.3 968.1C1398 976 1400.6 984.5 1402 993.5L1405.4 1015.5C1432 1007.8 1450 982.1 1447 953.6C1445 934.7 1434.2 919 1419 909.9C1415.2 888.2 1398.1 871.7 1377.2 868C1373.5 867.1 1369.5 866.8 1365.5 867.2L1362.9 867.5C1362.9 867.5 1362.9 867.5 1362.8 867.5L1348.9 869L1324.4 871.6L1321.2 871.9L1316.9 872.4C1307.7 873.4 1299.8 877.9 1294.3 884.3C1287.2 877 1277 872.9 1266.1 874.1C1251 875.7 1239.2 886.9 1236.1 901C1221.5 902.6 1208.1 907.1 1196.2 913.8C1186.5 931.9 1182.8 952.4 1185.7 973.1L1187.9 988.9C1214.3 988.6 1237.4 1007.9 1241.2 1034.7L1246.7 1073.7C1247.3 1077.7 1247.3 1081.6 1247 1085.5V1085.6C1246.9 1086.8 1246.7 1088.1 1246.6 1089.3C1246.6 1089.5 1246.5 1089.7 1246.5 1089.9C1245.4 1096.3 1243.2 1102.5 1239.9 1108C1238 1111.2 1235.8 1114.2 1233.3 1117C1232.2 1118.2 1231 1119.4 1229.7 1120.5C1229.5 1120.7 1229.4 1120.8 1229.2 1121C1228.2 1121.9 1227.2 1122.7 1226.2 1123.5C1219.2 1128.9 1210.7 1132.6 1201.3 1133.9C1198.1 1134.3 1195 1134.4 1191.9 1134.3L1208.4 1171.3L1213.8 1170.9L1228.9 1169.9L1227 1145.8ZM1403.5 1099.2C1405.1 1113.5 1394.8 1126.4 1380.5 1128C1366.2 1129.6 1353.3 1119.3 1351.7 1105L1403.5 1099.2Z" fill="#40327A"/>
<path d="M1201.3 1133.9C1210.7 1132.6 1219.1 1128.9 1226.2 1123.5C1227.2 1122.7 1228.3 1121.9 1229.2 1121C1229.4 1120.8 1229.5 1120.7 1229.7 1120.5C1230.9 1119.4 1232.1 1118.2 1233.2 1117C1235.7 1114.2 1237.9 1111.2 1239.8 1108C1243 1102.5 1245.3 1096.4 1246.4 1089.9C1246.4 1089.7 1246.5 1089.5 1246.5 1089.3C1246.7 1088.1 1246.8 1086.8 1246.9 1085.5C1247.2 1081.6 1247.2 1077.7 1246.6 1073.7L1241.1 1034.7C1237.3 1007.9 1214.2 988.6 1187.8 988.9L1185.6 973.1C1182.7 952.4 1186.4 931.8 1196.1 913.8C1198.7 909 1201.7 904.3 1205.1 899.9C1221.4 878.9 1244.8 865.8 1271.2 862.8C1290.1 860.7 1308.3 864 1324.2 871.6L1348.7 869C1326.8 852.9 1298.9 844.7 1269.5 848C1239.1 851.4 1212.1 866.6 1193.3 890.7C1183.8 902.9 1177.1 916.6 1173.3 931.1C1169.6 945.2 1168.7 960.1 1170.8 975.1L1173 991C1160.7 994.7 1150.5 1002.5 1143.7 1012.7C1136.8 1023.1 1133.5 1036 1135.4 1049.4L1140.9 1088.4C1144.5 1114.4 1166.4 1133.3 1191.7 1134.2C1195 1134.5 1198.1 1134.4 1201.3 1133.9ZM1152.6 1076.4L1149 1050.5C1146.3 1031.1 1159.8 1013.2 1179.2 1010.5C1198.6 1007.8 1216.5 1021.3 1219.2 1040.7L1222.8 1066.6C1225.5 1086 1212 1103.9 1192.6 1106.6C1173.2 1109.3 1155.3 1095.8 1152.6 1076.4Z" fill="#B3A4F5"/>
<path d="M1222.8 1066.6L1219.2 1040.7C1216.5 1021.3 1198.6 1007.8 1179.2 1010.5C1159.8 1013.2 1146.3 1031.1 1149 1050.5L1152.6 1076.4C1155.3 1095.8 1173.2 1109.3 1192.6 1106.6C1212 1103.8 1225.5 1085.9 1222.8 1066.6Z" fill="white"/>
<path d="M2013 765C2012.8 763.7 2012.6 762.5 2012.4 761.2L2006.8 779.3C2005.6 783.1 2001.6 785.2 1997.9 784L1951.6 769.8L1918.4 908.8L1986.2 867.5C1986.5 824.3 2020 815.5 2013 765Z" fill="#FFE4E0"/>
<path d="M2001.3 1172.8C2001.3 1172.7 2001.3 1172.6 2001.3 1172.5V1168.9H2001.4L2001.2 1109.8H1997.9V1097.9H2001.2V1086H1997.5V1037.3C1973.1 1032.1 1955 1010.4 1954.8 984.8L1876.9 1019.4L1876.8 1019.1C1868.4 1022.7 1858.6 1023.2 1849.4 1019.7C1830.5 1012.5 1821 991.3 1828.2 972.4L1910.3 756.8L1923.1 723.1L1939.7 679.6C1944.7 666.4 1958.9 659.4 1972.2 663.1L1973.4 659C1970 587.8 2019.9 523.3 2092 510.4C2170.3 496.4 2245.2 548.5 2259.2 626.9C2262 642.6 2262.2 658.2 2260 673.2C2259.8 674.7 2259.6 676.2 2259.3 677.7C2257.8 686.2 2255.5 694.5 2252.5 702.5C2252.1 708.3 2252.6 714.7 2254.2 721.7C2266.3 776.4 2306.8 766.9 2318.9 821.7C2327.4 860.4 2317.9 875 2315 899.7L2401.7 984L2560.3 862.7L2589 840.8L2589.1 840.9C2590.6 839.7 2592.4 838.8 2594.2 838.1V838L2609.4 832.5C2593.6 594 2395.1 405.5 2152.6 405.5C1899.7 405.5 1694.8 610.5 1694.8 863.4C1694.8 1054.5 1811.9 1218.3 1978.3 1286.9V1272C1978.1 1237.6 1986 1203.6 2001.3 1172.8Z" fill="#FFE4E0"/>
<path d="M2588.5 895.5L2424.9 1058.1C2413.2 1069.8 2395.5 1071.8 2381.7 1064.3C2380.1 1122.5 2337.9 1173.6 2278.3 1184.2L2213 1195.9C2234.5 1220.8 2246.9 1253.1 2246.9 1286.4V1311.5C2248.9 1311.1 2250.9 1310.7 2252.9 1310.2C2453.6 1265.2 2604.5 1088.5 2610.1 875.6H2608.6L2588.5 895.5Z" fill="#FFE4E0"/>
<path d="M2262.9 1354.8C2226.9 1362.9 2189.7 1367 2152.4 1367C2146.6 1367 2140.8 1366.9 2135.1 1366.7L2134.9 1374.1C2140.7 1374.3 2146.6 1374.4 2152.4 1374.4C2190.3 1374.4 2228.1 1370.2 2264.6 1362C2347.5 1343.4 2425.2 1303.9 2489.3 1247.6C2553 1191.7 2602.1 1120.5 2631.5 1041.5L2624.6 1038.9C2564.9 1199.3 2429.7 1317.4 2262.9 1354.8Z" fill="#B3A4F5"/>
<path d="M2636.2 1003.5L2643.3 1005.6C2647 992.9 2650.2 980 2652.8 967L2645.5 965.5C2642.9 978.3 2639.8 991 2636.2 1003.5Z" fill="#B3A4F5"/>
<path d="M2658.9 796.1C2644.3 685 2594.7 584 2515.5 504L2510.2 509.2C2588.3 588 2637.1 687.6 2651.6 797.1L2658.9 796.1Z" fill="#B3A4F5"/>
<path d="M2461.4 465.9L2466 460.1C2375.6 389.8 2267.2 352.6 2152.4 352.6C2115.5 352.6 2078.6 356.6 2042.9 364.4L2044.5 371.6C2079.7 363.9 2116 360 2152.4 360C2265.5 359.9 2372.3 396.5 2461.4 465.9Z" fill="#B3A4F5"/>
<path d="M1994.9 377.2C1984.3 380.6 1973.8 384.4 1963.5 388.5L1966.2 395.4C1976.3 391.4 1986.8 387.6 1997.2 384.2L1994.9 377.2Z" fill="#B3A4F5"/>
<path d="M1654.1 790.5L1646.8 789.4C1646.1 794 1645.5 798.7 1645 803.4L1652.4 804.3C1652.9 799.7 1653.5 795.1 1654.1 790.5Z" fill="#B3A4F5"/>
<path d="M1641.5 863.4C1641.5 960.7 1669 1055.4 1721 1137.2L1727.2 1133.2C1676 1052.6 1648.9 959.4 1648.9 863.4C1648.9 860.6 1648.9 857.7 1649 854.9L1641.6 854.8C1641.5 857.7 1641.5 860.6 1641.5 863.4Z" fill="#B3A4F5"/>
<path d="M2304.2 1382.4L2335.4 1489.1C2342.2 1487.1 2349.2 1484.9 2356 1482.7L2321.3 1377.1C2315.6 1378.9 2309.8 1380.7 2304.2 1382.4Z" fill="#CCC2FF"/>
<path d="M2337.9 1371.3L2376 1475.7C2467 1442.4 2551.1 1388 2619.1 1318.3L2539.5 1240.7C2483.1 1298.6 2413.4 1343.8 2337.9 1371.3Z" fill="#DDD6FF"/>
<path d="M2788.7 722L2680.2 746C2688.7 784.3 2693 823.8 2693 863.4C2693 994.8 2645.3 1121.5 2558.6 1220.1L2642 1293.5C2746.5 1174.6 2804.1 1021.9 2804.1 863.5C2804.1 815.8 2798.9 768.2 2788.7 722Z" fill="#F2F0FF"/>
<path d="M2636.5 622.6L2735.9 573C2726.6 554.4 2716.3 536 2705.3 518.3L2611.1 577.2C2620.2 591.9 2628.8 607.1 2636.5 622.6Z" fill="#DDD6FF"/>
<path d="M1611.9 863.5C1611.9 565.4 1854.4 322.9 2152.4 322.9C2323.3 322.9 2486 405.1 2587.6 542.8L2677 476.8C2617.7 396.4 2539.5 329.8 2450.9 284C2359.3 236.7 2256.1 211.7 2152.4 211.7C1793.1 211.7 1500.8 504 1500.8 863.4C1500.8 905.1 1504.8 946.8 1512.6 987.5L1621.7 966.5C1615.1 932.8 1611.9 898.1 1611.9 863.5Z" fill="#F2F0FF"/>
<path d="M1627.1 991.5L1519.1 1017.7C1522.2 1030.5 1525.7 1043.3 1529.6 1055.8L1635.8 1023C1632.6 1012.7 1629.7 1002 1627.1 991.5Z" fill="#DDD6FF"/>
<path d="M2152.4 1404C2084.6 1404 2018.6 1391.6 1956.1 1367.2C1823.5 1315.5 1714.6 1211 1657.3 1080.6L1555.6 1125.3C1624.7 1282.5 1755.9 1408.4 1915.8 1470.7C1991.2 1500.1 2070.9 1515.1 2152.5 1515.1C2200.8 1515.1 2248.9 1509.8 2295.5 1499.3L2271.2 1390.9C2232.5 1399.6 2192.5 1404 2152.4 1404Z" fill="#F2F0FF"/>
<path d="M1986.8 639.6L2018.8 649.4L2022.7 612.5C2049.9 616.5 2075.6 627.9 2096.9 645.5C2116.8 661.9 2141.5 671.3 2167.2 672.4L2171.1 672.6C2181.8 673.1 2190.1 682.1 2189.6 692.8C2189.1 703.5 2180.1 711.8 2169.4 711.3L2165.5 711.1L2164.5 735.7L2162.7 778.2L2162.3 786.7L2160 840.7L2198.7 842.3L2232.4 843.7C2244.2 842.8 2256.4 845.9 2266.6 853.5C2268.4 854.8 2270 856.3 2271.6 857.8L2314.8 899.8C2317.7 875.1 2327.3 860.5 2318.7 821.8C2306.6 767.1 2266.1 776.6 2254 721.8C2252.4 714.7 2252 708.4 2252.3 702.6C2255.3 694.6 2257.6 686.3 2259.1 677.8C2259.4 676.3 2259.6 674.8 2259.8 673.3C2262 658.3 2261.8 642.7 2259 627C2245 548.7 2170.1 496.5 2091.8 510.5C2019.7 523.4 1969.8 587.8 1973.2 659.1L1977.8 644.3C1979.1 640.6 1983.1 638.4 1986.8 639.6Z" fill="#40327A"/>
<path d="M2074.8 837.1L2077.1 783.1L2071.9 782.9C2047.2 781.9 2026.5 766.7 2017.2 745.7L2012.4 761.3C2012.6 762.5 2012.9 763.8 2013 765.1C2020 815.6 1986.4 824.5 1986.1 867.5L2018.9 847.5C2025.9 841.8 2034.3 838 2043.6 836.7V836.1L2047.5 836.3C2049.2 836.2 2051 836.1 2052.7 836.2L2062 836.6L2074.8 837.1Z" fill="#40327A"/>
<path d="M2376.7 1061.7L2244.9 963.2L2183.6 1169.6L2193.6 1177.4C2200.7 1182.9 2207.2 1189.1 2213 1195.9L2278.3 1184.2C2337.9 1173.5 2380.1 1122.5 2381.7 1064.3C2380.1 1063.4 2378.5 1062.5 2377.1 1061.4L2376.7 1061.7Z" fill="#40327A"/>
<path d="M1974.6 664C1988.6 669.3 1995.6 685 1990.3 699C1989.2 701.9 1987.6 704.5 1985.8 706.7L1959 739L1951.7 769.7V769.8L1998 784C2001.8 785.2 2005.8 783 2006.9 779.3L2012.5 761.2L2017.3 745.6C2013 735.9 2011 724.9 2012.2 713.5L2018.9 649.4L1986.9 639.6C1983.1 638.4 1979.1 640.6 1978 644.3L1973.4 659.1L1972.2 663.2C1972.9 663.4 1973.8 663.7 1974.6 664Z" fill="#624AC9"/>
<path d="M1951.6 769.7L1958.9 739L1985.8 706.7C1987.7 704.5 1989.2 701.9 1990.3 699C1995.6 685 1988.6 669.3 1974.6 664C1973.8 663.7 1972.9 663.4 1972 663.2C1958.7 659.6 1944.5 666.6 1939.5 679.7L1922.9 723.2L1910.1 756.9L1951.6 769.7Z" fill="#FF95A9"/>
<path d="M2160.1 840.7L2162.4 786.7L2162.8 778.2L2164.6 735.7L2165.6 711.1L2169.5 711.3C2180.2 711.8 2189.2 703.4 2189.7 692.8C2190.2 682.1 2181.8 673.1 2171.2 672.6L2167.3 672.4C2141.6 671.3 2116.9 661.9 2097 645.5C2075.6 627.9 2050 616.6 2022.8 612.5L2018.9 649.4L2012.2 713.5C2011 724.9 2013 735.9 2017.3 745.6C2026.7 766.6 2047.3 781.8 2072 782.8L2077.2 783L2074.9 837L2062.2 836.5L2058.4 926.1L2198.8 842.3L2160.1 840.7ZM2052.2 744.6C2042.4 745.2 2033.9 737.7 2033.3 727.9C2033.2 726 2033.4 724.2 2033.8 722.4L2068.9 727.1C2068.7 736.4 2061.5 744.1 2052.2 744.6Z" fill="#FF95A9"/>
<path d="M2674 847.6C2673.8 832.6 2661.5 820.6 2646.5 820.8C2643.4 820.8 2640.5 821.4 2637.7 822.4L2609.2 832.6L2594 838.1V838.2C2592.1 838.9 2590.4 839.8 2588.9 841L2588.8 840.9L2560.1 862.8L2588.6 895.5L2608.6 875.6H2610.1L2647.3 875.1C2662.2 874.9 2674.2 862.6 2674 847.6Z" fill="#FF95A9"/>
<path d="M2401.5 984.1L2314.8 899.8L2271.6 857.8C2270 856.3 2268.4 854.8 2266.6 853.5C2256.4 845.9 2244.2 842.7 2232.4 843.7L2198.7 842.3L2058.3 926.1L2062.1 836.5L2052.8 836.1C2051 836 2049.3 836.1 2047.6 836.2L2051.1 836.4L2046.4 946.2L2204.1 852.1L2207.9 858.5L2038.4 959.7L2043.6 836.7C2034.3 838 2025.9 841.8 2018.9 847.5L1986.1 867.5L1918.3 908.8L1951.5 769.8V769.7L1910.1 757L1828 972.6C1820.8 991.5 1830.3 1012.7 1849.2 1019.9C1858.4 1023.4 1868.2 1022.9 1876.6 1019.3L1876.7 1019.6L1954.6 985C1954.6 984.1 1954.5 983.3 1954.6 982.4C1954.8 976.8 1956 971.3 1958 965.8L1957.9 965.7L1958.9 963.3L1966.9 944.6L1973.7 947.5L1965.7 966.2C1963.4 971.6 1962.2 977.1 1961.9 982.6C1960.8 1008.3 1980.8 1030.1 2006.6 1031.2C2007.3 1031.2 2007.9 1031.2 2008.6 1031.2H2070.5V1038.6H2006.5C2006.4 1038.6 2006.4 1038.6 2006.3 1038.6C2005.7 1038.6 2005.2 1038.5 2004.7 1038.4V1086H2001V1097.9H2005.1V1109.8H2001L2001.2 1168.9H2097.4V1172.9H2105.1V1169.2H2113.9V1169H2127.2V1169.2H2182.7L2183.4 1169.7L2244.7 963.3L2376.5 1061.8L2376.9 1061.3C2378.4 1062.4 2379.9 1063.4 2381.5 1064.2C2395.3 1071.7 2413 1069.7 2424.7 1058L2588.3 895.4L2559.8 862.7L2401.5 984.1ZM1972.6 931.5L1983.7 905.6L1990.5 908.5L1979.4 934.4L1972.6 931.5Z" fill="#E5659B"/>
<path d="M1983.57 905.706L1972.51 931.538L1979.32 934.45L1990.37 908.618L1983.57 905.706Z" fill="#624AC9"/>
<path d="M2004.7 1086V1038.4C2005.3 1038.4 2005.8 1038.5 2006.3 1038.6C2006.4 1038.6 2006.4 1038.6 2006.5 1038.6H2070.5V1031.2H2008.6C2008 1031.2 2007.3 1031.2 2006.6 1031.2C1980.9 1030.1 1960.8 1008.3 1961.9 982.6C1962.1 977.1 1963.4 971.6 1965.7 966.2L1973.7 947.5L1966.9 944.6L1958.9 963.3L1957.9 965.7L1958 965.8C1956 971.2 1954.9 976.8 1954.6 982.4C1954.6 983.3 1954.6 984.1 1954.6 985C1954.7 1010.6 1972.8 1032.3 1997.3 1037.5V1086.2H2001H2004.7V1086Z" fill="#624AC9"/>
<path d="M2239.5 1286.3C2239.5 1246.3 2220.6 1207.7 2189 1183.2L2180.3 1176.4H2105.2V1172.7H2097.5V1176.2H2001.2V1172.7C1985.9 1203.6 1978 1237.5 1978 1271.9V1286.8C1980.7 1287.9 1983.3 1288.9 1986 1290C2037.6 1310.1 2093.6 1321.1 2152.3 1321.1C2183.4 1321.1 2213.8 1318 2243.1 1312.1H2239.4V1286.3H2239.5Z" fill="#7760DB"/>
<path d="M2212.9 1195.9C2207.1 1189.2 2200.6 1183 2193.5 1177.4L2183.5 1169.6L2182.8 1169.1H2127.3V1176.3H2114V1169.1H2105.2V1172.8V1176.5H2180.3L2189 1183.3C2220.6 1207.8 2239.5 1246.4 2239.5 1286.4V1312.3H2243.2H2246.9V1311.5V1286.4C2246.9 1253 2234.5 1220.8 2212.9 1195.9Z" fill="#4F37B3"/>
<path d="M2005.2 1097.9H2001.1H1997.8V1109.8H2001.1H2005.2V1097.9Z" fill="#624AC9"/>
<path d="M2001.4 1168.8H2001.3V1172.5V1172.8V1176.2H2097.6V1172.8V1168.8H2001.4Z" fill="white"/>
<path d="M2114 1168.8V1169.1V1176.2H2127.4V1169.1V1168.8H2114Z" fill="white"/>
<path d="M2033.3 728C2033.9 737.8 2042.4 745.3 2052.2 744.7C2061.5 744.1 2068.7 736.4 2068.9 727.3L2033.8 722.6C2033.4 724.2 2033.2 726.1 2033.3 728Z" fill="white"/>
<path d="M2043.6 836.6L2038.4 959.6L2207.9 858.5L2204.1 852.1L2046.4 946.2L2051 836.4L2047.6 836.2L2043.6 836.1V836.6Z" fill="white"/>
<path d="M1488.19 1316.08L1546.32 1327.83L1555.71 1281.37L1497.58 1269.62L1488.19 1316.08Z" fill="#C4B8FF"/>
<path d="M1492.25 1396.63H1551.55V1349.23H1492.25V1396.63Z" fill="#FF809F"/>
<path d="M1490.73 1467.77L1549.36 1458.89L1542.26 1412.02L1483.63 1420.9L1490.73 1467.77Z" fill="white"/>
<path d="M1519.6 1577.6L2117.1 1577.7L2133.8 1159.9H1536.3L1519.6 1577.6Z" fill="#DDD6FF"/>
<path d="M2124.7 1387.8L2121.1 1479L1538.8 1478.9L1559.3 1475.7L2124.7 1387.8Z" fill="#B3A4F5"/>
<path d="M2117.1 1577.7L1534.8 1577.6L1538.8 1478.9L2121.1 1479L2117.1 1577.7Z" fill="#B3A4F5"/>
<path d="M2120.7 1581.4H1519.6V1574H2113.6L2115.9 1516.4L2123.3 1516.7L2120.7 1581.4Z" fill="#7760DB"/>
<path d="M1547.9 1251.1L1551.5 1159.9H2133.8L2113.2 1163.1L1547.9 1251.1Z" fill="#CCC2FF"/>
<path d="M2130.4 1227.69L1624 1306.51L1625.14 1313.82L2131.54 1235L2130.4 1227.69Z" fill="white"/>
<path d="M2131.59 1197.46L1807.29 1247.94L1808.43 1255.25L2132.73 1204.77L2131.59 1197.46Z" fill="white"/>
<path d="M1755.05 1256.05L1690.33 1266.13L1691.47 1273.44L1756.19 1263.36L1755.05 1256.05Z" fill="white"/>
<path d="M2132.3 1291.7L2124.9 1291.4L2130 1163.6H1768V1156.2H2137.7L2132.3 1291.7Z" fill="#B3A4F5"/>
<path d="M1604.9 1156.2H1536.3V1163.6H1604.9V1156.2Z" fill="#B3A4F5"/>
<path d="M2116.87 1491.88L2116.38 1503.97L2123.78 1504.26L2124.26 1492.17L2116.87 1491.88Z" fill="#7760DB"/>
<path d="M2123.96 1314.47L2122.69 1346.15L2130.09 1346.44L2131.36 1314.77L2123.96 1314.47Z" fill="#B3A4F5"/>
<path d="M1893.8 1382.1L1970 1577.1H1901.4L1893.8 1382.1Z" fill="#8B77E8"/>
<path d="M1775.3 1668.5H1941L1890.1 1382.1H1775.3V1668.5Z" fill="#CCC2FF"/>
<path d="M1775.3 1654.4H1636.1V1668.5H1775.3V1654.4Z" fill="#CCC2FF"/>
<path d="M1779 1538H1771.6V1546.3H1779V1538Z" fill="white"/>
<path d="M1779 1516.1H1771.6V1378.4H1865.5V1385.8H1779V1516.1Z" fill="white"/>
<path d="M1893.84 1381.38L1886.55 1382.68L1937.43 1669.1L1944.72 1667.8L1893.84 1381.38Z" fill="#B3A4F5"/>
<path d="M1870.14 1453.8C1872.76 1437.67 1861.8 1422.46 1845.66 1419.84C1829.53 1417.22 1814.32 1428.18 1811.7 1444.32C1809.08 1460.45 1820.04 1475.66 1836.18 1478.28C1852.32 1480.9 1867.52 1469.94 1870.14 1453.8Z" fill="#8B77E8"/>
<path d="M1863.9 1437.4C1862.6 1434.9 1860.9 1432.6 1858.9 1430.6L1864.1 1425.3C1866.7 1427.8 1868.9 1430.8 1870.5 1434L1863.9 1437.4Z" fill="white"/>
<path d="M1817.9 1473.1C1811.3 1466.8 1807.6 1458.2 1807.6 1449C1807.6 1430.7 1822.5 1415.7 1840.9 1415.7C1845.4 1415.7 1849.8 1416.6 1853.9 1418.3L1851 1425.1C1847.8 1423.8 1844.4 1423.1 1840.9 1423.1C1826.6 1423.1 1815 1434.7 1815 1449C1815 1456.1 1817.8 1462.8 1823 1467.7L1817.9 1473.1Z" fill="white"/>
<path d="M1881 706.4H1303.3C1213.2 706.4 1139.8 633.1 1139.8 542.9C1139.8 452.7 1213.1 379.4 1303.3 379.4H1717.5C1807.6 379.4 1881 452.7 1881 542.9V706.4ZM1303.4 386.8C1217.3 386.8 1147.3 456.8 1147.3 542.9C1147.3 629 1217.3 699 1303.4 699H1873.7V542.9C1873.7 456.8 1803.7 386.8 1717.6 386.8H1303.4V386.8Z" fill="#B3A4F5"/>
<path d="M1420.88 564.585C1432.87 552.596 1432.87 533.158 1420.88 521.169C1408.89 509.18 1389.46 509.18 1377.47 521.169C1365.48 533.158 1365.48 552.596 1377.47 564.585C1389.46 576.574 1408.89 576.574 1420.88 564.585Z" fill="#B3A4F5"/>
<path d="M1540.35 550.096C1544.25 533.595 1534.03 517.06 1517.53 513.164C1501.03 509.267 1484.5 519.485 1480.6 535.986C1476.7 552.487 1486.92 569.022 1503.42 572.918C1519.92 576.814 1536.46 566.596 1540.35 550.096Z" fill="#B3A4F5"/>
<path d="M1643.4 564.633C1655.39 552.644 1655.39 533.206 1643.4 521.217C1631.41 509.228 1611.97 509.228 1599.98 521.217C1588 533.206 1588 552.644 1599.98 564.633C1611.97 576.622 1631.41 576.622 1643.4 564.633Z" fill="#B3A4F5"/>
</svg>
