<svg width="147" height="147" viewBox="0 0 147 147" fill="none" xmlns="http://www.w3.org/2000/svg">
<path d="M125.2 21.9C111.5 8.19996 93.4 0.699951 74.1 0.699951C54.8 0.699951 36.6 8.19996 23 21.9C0.700001 44.2 -4.50002 78.9 10.1 106.7L0.900024 146.2L40.4 137C50.7 142.4 62.3 145.3 74.1 145.3C93.4 145.3 111.6 137.8 125.2 124.1C138.9 110.4 146.4 92.2999 146.4 72.9999C146.4 53.6999 138.8 35.6 125.2 21.9ZM121.5 120.4C108.8 133.1 92 140 74.1 140C62.9 140 51.8 137.2 42 131.9L41.1 131.4L7.79999 139.1L15.5 105.8L15 104.9C0.9 79 5.6 46.3 26.5 25.4C39.2 12.7 56 5.79993 73.9 5.79993C91.8 5.79993 108.7 12.8 121.3 25.4C134 38.1 140.9 54.8999 140.9 72.7999C141.2 90.8999 134.2 107.8 121.5 120.4Z" fill="#333333"/>
<path d="M74 53.6C68.6 53.6 63.3 56.4 59.2 61.6C56.8 64.6 56.7 67 57 68.6C57.4 70.5 58.8 71.8 60.8 72.3C61.7 72.5 62.6 73.1 63.1 73.9C63.6 74.7 63.7 75.7 63.5 76.7L54.1 110.1C53.1 113.5 53.7 116.8 55.5 119.3C57.6 122 61.1 123.6 65.1 123.6C70.6 123.6 76.1 120.7 80.2 115.7C82.6 112.7 82.7 110.3 82.4 108.7C82 106.8 80.6 105.5 78.6 105C77.7 104.8 76.8 104.2 76.3 103.4C75.8 102.6 75.7 101.6 75.9 100.6L85.3 67.2C86.2 63.9 85.7 60.7 83.8 58.2C81.6 55.2 78 53.6 74 53.6ZM64.9 118.2C62.6 118.2 60.5 117.4 59.5 116C58.6 114.8 58.4 113.2 58.9 111.4L68.3 78C69 75.7 68.6 73.2 67.4 71.1C66.2 69.1 64.3 67.7 62 67.1C62 66.6 62.4 65.8 63.2 64.8C67.5 59.6 71.8 58.8 74 58.8C76.4 58.8 78.4 59.7 79.6 61.2C80.5 62.4 80.8 64 80.3 65.7L70.9 99.1C70.2 101.4 70.6 103.9 71.8 106C73 108 74.9 109.4 77.2 110C77.2 110.5 76.8 111.3 76 112.3C72.9 116.1 68.9 118.2 64.9 118.2Z" fill="#333333"/>
<path d="M81.4 25.2C74 25.2 68.1 31.1999 68.1 38.4999C68.1 45.8999 74.1 51.7999 81.4 51.7999C88.8 51.7999 94.7 45.7999 94.7 38.4999C94.7 31.1999 88.7 25.2 81.4 25.2ZM73.3 38.4999C73.3 33.9999 76.9 30.4 81.4 30.4C85.9 30.4 89.5 33.9999 89.5 38.4999C89.5 42.9999 85.9 46.5999 81.4 46.5999C76.9 46.6999 73.3 42.9999 73.3 38.4999Z" fill="#333333"/>
</svg>
