<svg fill="none" height="149" viewBox="0 0 146 149" width="146" xmlns="http://www.w3.org/2000/svg"><g fill="#333"><path d="m109.4 27c18.5 8.3 30.8 26.8 30.8 47.8s-12.3 39.5-30.8 47.8v5.6c21.6-8.6 36-29.6 36-53.4s-14.4-44.8-36-53.4z"/><path d="m109.4 47.9c7.1 6.2 11.6 16 11.6 26.9s-4.5 20.7-11.6 26.9v6.5c10.2-6.8 16.8-19.4 16.8-33.4s-6.6-26.5-16.8-33.4z"/><path d="m78 103.9c-.1 0-.3 0-.4 0l-8 .9h-7.6c1.2 1.4 2.6 2.8 4.3 4.1l.9.7c.5.4 1.2.6 1.9.5l8.7-1c.1 0 .2.1.3.2 3.3 2.9 7.2 14.2 7.2 23.8 0 5-1.1 7.4-1.6 7.6l-8.8 2.1c-.5.1-1.1.2-1.6.2-8.9 0-20-17.9-25.4-41.1h12.5c1.8-.5 6.2-2.5 7.2-7.4.3-1.5.2-3-.3-4.4 1.1-1.3 1.8-2.9 2.2-4.7.4-2 .2-4.1-.5-5.9 1.5-1.5 2.5-3.4 2.9-5.5.4-1.9.2-4-.5-5.8 1.4-1.5 2.4-3.4 2.8-5.4.6-3-.1-6.1-2-8.4-1.9-2.5-4.8-3.9-7.8-3.9h-.8c1.4-2.4 3.3-4.6 5.7-6.5l.1-.1 8.1.9h.4c1.2 0 2.3-.5 3.5-1.6 5.3-4.7 9-18.4 9-27.7 0-7.29998-2-11.79998-5.5-12.69998l-8.8-2.099996c-.9-.2-1.9-.3-2.8-.3-12 0-22.9 17.799976-28.9 39.399976-3.8-.2-11.6 2.3-27.1 15h-16.399976v2.6 2.6h.499996 17.69998l.7-.6c12.9-10.4 19.5-13.2 22.5-14l-2.2 10.4h24.5c1.4 0 2.8.7 3.7 1.8.9 1.2 1.3 2.7 1 4.2s-1.2 2.8-2.4 3.6l-2.3 1.4 1.5 2.2c.8 1.1 1.1 2.6.8 4-.3 1.5-1.2 2.8-2.5 3.6l-2.3 1.4 1.6 2.2c.8 1.2 1.1 2.7.8 4.1-.2 1.2-.9 2.3-1.8 3.1l-1.8 1.5 1.2 1.9c.5.8.6 1.7.5 2.6-.4 1.8-1.9 3.2-3.7 3.2h-24.4c-6.1 0-10.6-1.9-15.7-4.2-.6-.3-1.2-.5-1.8-.8l-.5-.2h-9.09998v2.6 2.6h7.99998c.4.2.9.4 1.3.6 5.2 2.3 10.6 4.6 17.8 4.6h8.2c5.5 24.6 17.4 46.3 30.7 46.3.9 0 1.9-.1 2.8-.3l8.8-2.1c3.6-.9 5.5-5.4 5.5-12.7 0-9.3-3.7-23-9-27.7-1.2-.9-2.3-1.4-3.5-1.4zm-20.2-53.3h-10.6c4.9-24 16-44.79998 26.1-44.79998.5 0 1.1.1 1.6.2l8.7 2.1c.5.3 1.6 2.69998 1.6 7.69998 0 9.6-4 20.9-7.2 23.8-.1.1-.2.2-.3.2l-8.7-1c-.7-.1-1.3.1-1.9.5l-.8.7c-4 3.1-6.7 6.6-8.5 10.6z"/></g></svg>