<svg fill="none" height="148" viewBox="0 0 137 148" width="137" xmlns="http://www.w3.org/2000/svg"><g fill="#333"><path d="m105.3 81.2v-39l-42.6 50.8999h37.5v16.4001h5.1v-16.4001h7.1v-5.1999h-38.6l26.4-31.4001v24.7001z"/><path d="m53.6 83.7c.5-.6 1-1.2 1.5-1.7 4.1-4.6 8.4-9.4 8.4-16.8 0-10.6-8.6-19.2-19.2-19.2s-19.2 8.6-19.2 19.2v1.4h5.2v-1.4c0-7.7 6.3-14 14-14s14 6.3 14 14c0 5.4-3.1 8.9-7.1 13.3l-.2.2c-.5.5-.9 1-1.4 1.6l-25.6 29.2h37.4v-5.2h-25.9z"/><path d="m115.7 30.5-3.6 3.7c12.3 12 19 28 19 45.1 0 34.7-28.2 62.9-62.9 62.9s-62.90001-28.2-62.90001-62.9 28.20001-62.9 62.90001-62.9h14.5l-12 6.1 2.4 4.6 15.9-8.1 10.3-5.2-26.2-13.3-2.4 4.59998 12 6.10002h-14.5c-37.6 0-68.1000244 30.6-68.1000244 68.1 0 37.6 30.6000244 68.1 68.1000244 68.1 37.6 0 68.1-30.6 68.1-68.1 0-18.6-7.3-35.9-20.6-48.8z"/></g></svg>