<svg width="158" height="151" viewBox="0 0 158 151" fill="none" xmlns="http://www.w3.org/2000/svg">
<path d="M152.5 128.1C152.3 127.9 152.2 127.7 152 127.5C145.6 119 132.5 112.2 104.2 102.6V96.7C104.4 96.5 104.6 96.4 104.8 96.3C107.8 93.9 109.8 89.5 111.2 85C115.7 82.1 118.6 79.2 120 76.9C128.6 75.5 130 63.1 130.9 54.7L131 53.9C131 48.3 129.1 45.6 127.6 43.5C126.6 42.1 126.2 41.4 126.1 40.3C124.5 12.4 110.2 0 79.7 0C48.8 0 35 12 33.5 40.2C33.4 41.3 33 42 32 43.3C30.4 45.4 28.3 48.3 28.7 54.4C29.5 69.4 35.1 74.3 38.3 75.9C41 77.3 44 77.2 46.2 75.7L46.3 75.6C47.3 81.8 49.6 92 54.8 96.2V102.5C26.4 112 13.4 118.8 7.00003 127.4C6.80003 127.6 6.70003 127.8 6.50003 128C4.10003 131 2.50004 133.9 1.20004 147.4L0.900024 150.2H158L157.7 147.4C156.5 134 154.8 131.1 152.5 128.1ZM43.2 71.4C42.7 71.7 41.7 71.9 40.5 71.2C39.1 70.5 34.5 67.2 33.8 54.1C33.6 49.9 34.8 48.2 36.2 46.4C37.3 44.9 38.6 43.2 38.7 40.5C39.9 19.3 47.3 5.3 79.8 5.3C107.2 5.3 119.5 15.8 120.9 40.5C121 43.2 122.3 44.9 123.3 46.4C124.5 48.2 125.7 49.9 125.7 53.7V54C124.9 61 123.8 71.7 118.3 71.7H116.3L115.8 73.7C115.6 74.3 114.7 75.5 113.1 77C113.5 74.9 113.7 73.1 113.8 71.9C116.5 69.6 118.5 65.3 118.9 60.3C119.5 53.4 117.8 48.2 114.5 46.2C114 43.7 113 38.6 112.6 36.9C107.4 14.9 100.6 13.9 79.9 13.9C59.1 13.9 52.3 14.9 47.2 36.9C46.7 39 45.8 43.8 45.3 46.2C41.9 48.2 40.3 53.4 40.9 60.3C41.2 64.2 42.5 67.6 44.3 70.1C44 70.6 43.7 71.1 43.2 71.4ZM108.5 43.5L92.2 35.8L91.1 36.4C75.7 44 57.2 45.1 50.5 45.3C51 42.9 51.6 39.7 52 38.2C56.5 19.2 60.5 19.2 79.7 19.2C98.9 19.2 102.9 19.2 107.4 38.2C107.6 39 108.1 41.3 108.5 43.5ZM50.8 70.2L50.7 68.8L49.5 68.1C48 67.2 46.2 64.3 45.8 59.7C45.3 54.1 46.8 50.7 48 50.4L48.5 50.3C48.7 50.3 48.9 50.3 49.1 50.3C54.3 50.3 74.6 49.7 92.3 41.4C106.3 48.3 109.2 49.8 111.5 50.4C112.7 50.7 114.2 54.1 113.7 59.7C113.3 64.2 111.5 67.2 110 68.1L108.8 68.8L108.7 70.2C108.5 72.6 107.9 77.1 106.7 81.5C102.2 84.1 96.1 86.6 88.1 88L86.7 88.2L86.1 89.5C85.7 90.3 84.9 90.9 84 90.9C82.7 90.9 81.7 89.9 81.7 88.6C81.7 87.3 82.7 86.3 84 86.3C84.8 86.3 85.5 86.7 86 87.4L90.4 84.7C89 82.5 86.6 81.1 84 81.1C79.9 81.1 76.5 84.5 76.5 88.6C76.5 92.7 79.9 96.1 84 96.1C86.4 96.1 88.7 94.9 90.1 93C95.5 92 100.1 90.5 104.1 88.7C103.3 90.2 102.5 91.5 101.5 92.3C92.8 99.4 86.1 102.6 80 102.6H79.8H79.6C73.4 102.6 66.8 99.4 58.1 92.3C53.3 88.4 51.2 75 50.8 70.2ZM79.5 107.7H79.7H79.9C85.8 107.7 91.9 105.5 99 100.6C99 103.4 99.7 112.6 93.6 118.8C90.3 122.2 85.6 123.9 79.6 123.9C73.6 123.9 68.8 122.2 65.5 118.8C59.4 112.5 60.1 103.6 60.1 100.3C67.3 105.3 73.5 107.7 79.5 107.7ZM6.60004 145.1C7.80004 134.7 9.10003 133.1 10.5 131.3C10.7 131.1 10.9 130.8 11.1 130.6C16.7 123.2 29.1 116.8 55 108C56.2 117.1 62.2 129 79.4 129C86.9 129 92.9 126.8 97.2 122.4C101.8 117.7 103.3 111.7 103.8 108C129.8 116.8 142.2 123.2 147.7 130.6C147.9 130.9 148.1 131.1 148.3 131.3C149.7 133.1 151 134.7 152.2 145.1H6.60004Z" fill="#333333"/>
</svg>
