<svg width="132" height="151" viewBox="0 0 132 151" fill="none" xmlns="http://www.w3.org/2000/svg">
<path d="M66.1 150.8C102.2 150.8 131.6 121.4 131.6 85.3C131.6 71.7 127.5 58.8 119.9 47.9L128.5 39.2L112 22.6L103.4 31.3C95 25.4 85.3 21.7 75.1 20.2V15.4H81.5V0H50.5V15.6H56.9V20.4C42.8 22.3 29.9 28.8 19.7 39C7.30001 51.4 0.5 67.8 0.5 85.3C0.5 121.4 29.9 150.8 66.1 150.8ZM112 30L121.1 39.1L116.7 43.6C115.3 42 113.9 40.4 112.4 38.8C110.9 37.3 109.3 35.8 107.6 34.4L112 30ZM55.8 10.4V5.20001H76.4V10.4H70V19.8C68.7 19.7 67.4 19.7 66.1 19.7C64.8 19.7 63.5 19.8 62.2 19.8V10.4H55.8ZM23.4 42.6C34.8 31.2 49.9 24.9 66.1 24.9C82.2 24.9 97.4 31.2 108.8 42.6C120.2 54 126.5 69.1 126.5 85.3C126.5 118.6 99.4 145.6 66.2 145.6C32.9 145.6 5.90002 118.5 5.90002 85.3C5.70002 69.1 12 53.9 23.4 42.6Z" fill="#333333"/>
<path d="M23.4 86.7999C23.4 110.3 42.5 129.4 66 129.4C89.5 129.4 108.6 110.3 108.6 86.7999C108.6 63.2999 89.5 44.2 66 44.2H63.4V49.9999V51.7V53.3999V82.9999V85.5999C63.4 86.9999 64.6 88.2 66 88.2C67.4 88.2 68.6 86.9999 68.6 85.5999V82.9999V53.3999V49.9999V49.4999C88 50.7999 103.4 67.0999 103.4 86.7999C103.4 107.4 86.6 124.2 66 124.2C45.4 124.2 28.6 107.4 28.6 86.7999V79.4999L32 84.9999L36.4 82.2999L30.4 72.7L26 65.4999L15.6 82.2999L20 84.9999L23.4 79.4999V86.7999Z" fill="#333333"/>
</svg>
