<svg width="139" height="151" viewBox="0 0 139 151" fill="none" xmlns="http://www.w3.org/2000/svg">
<path d="M133.7 80.4001C134.9 75.5001 135.5 70.5001 135.5 65.4001C135.5 47.8001 128.6 31.6001 116 19.7001C103.1 7.50007 88.9 0.800049 69 0.800049C49.1 0.800049 34.9 7.50007 22 19.7001C9.4 31.6001 2.5 47.8001 2.5 65.4001C2.5 70.4001 3.09999 75.4001 4.29999 80.4001C1.69999 82.3001 0 85.3 0 88.8V106.6C0 112.3 4.59999 116.9 10.3 116.9H11.5L16.7 123.6H29.2V71.8H18.6V65.5001C18.6 40.6001 43.4 22.0001 69 22.0001C94.6 22.0001 119.4 40.6001 119.4 65.5001V71.8H108.8V123.6H113.3C112.1 131.4 105.4 137.3 97.3 137.3H81C78.4 137.3 76 139 75.2 141.5C74.5 143.5 72.7 145 70.3 145C67.5 145 65.2 142.7 65.2 139.9C65.2 137.1 67.5 134.8 70.3 134.8C71.7 134.8 72.9 133.6 72.9 132.2C72.9 130.8 71.7 129.6 70.3 129.6C64.6 129.6 60 134.2 60 139.9C60 145.6 64.6 150.2 70.3 150.2C75 150.2 79.1 147 80.3 142.5H97.3C108.3 142.5 117.3 134.2 118.6 123.6H121.4L126.6 116.9H127.8C133.5 116.9 138.1 112.3 138.1 106.6V88.8C138.1 85.3 136.3 82.3001 133.7 80.4001ZM19.3 77.0001H24.1V118.4H19.3L14.1 111.7H10.3C7.49999 111.7 5.20001 109.4 5.20001 106.6V88.8C5.20001 86 7.49999 83.7001 10.3 83.7001H14.1L19.3 77.0001ZM69 16.7001C40.9 16.7001 13.4 37.5001 13.4 65.4001V76.0001L11.5 78.5001H10.3C9.89999 78.5001 9.60001 78.5 9.20001 78.6C8.20001 74.3 7.70001 69.9001 7.70001 65.5001C7.70001 31.1001 31.2 6.10004 69 6.10004C106.8 6.10004 130.3 31.1001 130.3 65.5001C130.3 69.9001 129.8 74.3 128.8 78.6C128.4 78.6 128.1 78.5001 127.7 78.5001H126.5L124.6 76.0001V65.4001C124.6 37.6001 97.1 16.7001 69 16.7001ZM132.9 106.5C132.9 109.3 130.6 111.6 127.8 111.6H124L118.8 118.3H114V77.0001H118.8L124 83.7001H127.8C130.6 83.7001 132.9 86 132.9 88.8V106.5V106.5Z" fill="#333333"/>
<path d="M93.9 98.5001V74.8L66.1 107.9H88.7V117.3H93.9V107.9H97.9V102.7H77.2L88.7 89.0001V98.5001H93.9Z" fill="#333333"/>
<path d="M38.8 117.3H63.7V112.1H50.3L59 102.2L59.9 101.2C62.3 98.6 65 95.6 65 90.9C65 84.3 59.6 78.9 53 78.9C46.4 78.9 41 84.3 41 90.9V92.8H46.2V90.9C46.2 87.1 49.3 84.1 53 84.1C56.8 84.1 59.8 87.2 59.8 90.9C59.8 93.6 58.2 95.3 56 97.7L38.8 117.3Z" fill="#333333"/>
</svg>
