<svg width="146" height="146" viewBox="0 0 146 146" fill="none" xmlns="http://www.w3.org/2000/svg">
<path d="M87.5 121.5C90.4 121.5 93 120.8 95.2 119.4L101.8 115.2C104.6 113.4 105.1 109.4 103.1 104.5C100.6 98.3 94 90.8 88.2 89.5C86.8 89.2 85.6 89.3 84.7 89.8L78.4 93.1H78.3C72.2 92.2 66.2 86.3 62.8 78.1C59.4 69.8 59.7 61.6 63.4 56.6L70.3 54.4C71.3 54.1 72.2 53.3 73 52.1C75.9 47.6 76 37.9 73.2 30.9C71.4 26.5 68.7 24 65.8 24C65.5 24 65.1 24 64.8 24.1L57.1 25.7C52.7 26.6 48.9 29.8 46.2 34.9C39.7 47.1 39.8 68.5 46.4 84.7C54.3 104.3 73.5 121.5 87.5 121.5ZM50.7 37.3C52.7 33.6 55.2 31.4 58.1 30.8L65.7 29.2C65.9 29.2 67.1 30 68.3 32.8C70.6 38.5 70.4 46.4 68.6 49.2C68.5 49.3 68.5 49.4 68.4 49.4L61.1 51.7C60.6 51.9 60.1 52.2 59.8 52.6L59.2 53.3C54.4 59.7 53.9 69.9 57.9 79.9C62 89.9 69.4 96.8 77.4 98.1L78.3 98.2C78.8 98.3 79.4 98.2 79.9 97.9L86.7 94.4C86.8 94.4 86.8 94.4 87 94.4C90.2 95.1 95.9 100.6 98.3 106.3C99.5 109.1 99.1 110.5 99 110.7L92.4 114.9C91 115.8 89.4 116.2 87.5 116.2C75.8 116.2 58.1 99.9 51.1 82.6C45.1 68 44.9 48.1 50.7 37.3Z" fill="#333333"/>
<path d="M39.7 136.3C50 141.7 61.6 144.6 73.4 144.6C92.7 144.6 110.9 137.1 124.5 123.4C152.7 95.2 152.7 49.4 124.5 21.2C110.8 7.50001 92.7 0 73.4 0C54.1 0 35.9 7.50001 22.3 21.2C1.14441e-05 43.5 -5.19999 78.3 9.40001 106L0.200012 145.5L39.7 136.3ZM14.4 104.4C0.300012 78.5 5.00001 45.8 25.9 24.9C38.6 12.2 55.4 5.29999 73.3 5.29999C91.2 5.29999 108.1 12.3 120.7 24.9C146.9 51.1 146.9 93.6 120.7 119.8C108 132.5 91.2 139.4 73.3 139.4C62.1 139.4 51 136.6 41.2 131.3L40.3 130.8L7.00001 138.5L14.7 105.2L14.4 104.4Z" fill="#333333"/>
</svg>
