<svg width="152" height="149" viewBox="0 0 152 149" fill="none" xmlns="http://www.w3.org/2000/svg">
<path d="M60.6 67.3C61.1 65.4 61.4 63.4 61.4 61.2V35.2C61.4 24.9 55.3 19.5 49.4 19.5C43.4 19.5 37.4 24.9 37.4 35.2V61.2C37.4 71.5 43.5 76.9 49.4 76.9C52.6 76.9 55.7 75.4 57.9 72.7L58 72.6L60.4 75.9C60.9 76.6 61.7 77 62.5 77C63 77 63.6 76.8 64 76.5C65.2 75.6 65.4 74 64.6 72.9L60.6 67.3ZM53.8 69.4C52.6 70.9 51 71.7 49.3 71.7C46 71.7 42.5 68.4 42.5 61.2V35.2C42.5 28 46 24.7 49.3 24.7C52.6 24.7 56.1 28 56.1 35.2V61.2C56.1 61.3 56.1 61.3 56.1 61.4L53.8 58.3C52.9 57.1 51.3 56.9 50.2 57.7C49 58.6 48.8 60.2 49.6 61.3L54.6 68C54.4 68.6 54.1 69 53.8 69.4Z" fill="#333333"/>
<path d="M138.1 72.8999C129.9 64.6999 118.9 60.0999 107.3 60.0999C103.2 60.0999 99.2 60.7 95.4 61.7C96.7 57.3 97.3 52.7999 97.3 48.0999C97.3 35.2999 92.3 23.3 83.3 14.2C74.2 5.09995 62.2 0.199951 49.4 0.199951C36.6 0.199951 24.6 5.19995 15.5 14.2C0.79997 28.9 -2.70004 51.7999 6.79996 70.0999L0.599976 96.8999L27.4 90.7C34.2 94.2 41.8 96.0999 49.4 96.0999C54.8 96.0999 60 95.1999 64.9 93.4999C61.5 107.7 65.4 123.4 76.5 134.4C84.7 142.6 95.7 147.2 107.3 147.2C114.2 147.2 121.1 145.5 127.2 142.4L151.7 148.1L146 123.6C154.6 106.9 151.4 86.1999 138.1 72.8999ZM125.6 137.4C120 140.4 113.7 142.1 107.3 142.1C97 142.1 87.4 138.1 80.2 130.9C65.2 115.9 65.2 91.5999 80.2 76.5999C87.4 69.3999 97.1 65.3999 107.3 65.3999C117.6 65.3999 127.2 69.3999 134.4 76.5999C146.4 88.5999 149.1 107.3 141 122.1L140.5 123L144.8 141.3L126.5 137L125.6 137.4ZM49.4 90.8999C42.3 90.8999 35.2 89.1 29 85.7L28.1 85.2L7.49997 89.9999L12.3 69.3999L11.8 68.4999C2.79996 51.9999 5.79998 31.1999 19.1 17.7999C27.2 9.69993 37.9 5.29993 49.3 5.29993C60.7 5.29993 71.5 9.69993 79.5 17.7999C87.6 25.8999 92 36.5999 92 47.9999C92 53.4999 90.9 58.8999 89 63.8999C84.4 65.9999 80.1 69 76.4 72.7C72.2 76.9 69 81.7999 66.9 86.9999C61.5 89.5999 55.5 90.8999 49.4 90.8999Z" fill="#333333"/>
<path d="M107.2 78.3C104.3 78.3 101.5 79.7001 99.5 82.1001C97.4 84.6001 96.3 88.2 96.3 92.3V126.3C96.3 127.7 97.5 128.9 98.9 128.9C100.3 128.9 101.5 127.7 101.5 126.3V106.2H112.8V126.3C112.8 127.7 114 128.9 115.4 128.9C116.8 128.9 118 127.7 118 126.3V92.3C118.1 83.2 112.6 78.3 107.2 78.3ZM101.6 101.1V92.3C101.6 88.6 102.7 86.5001 103.6 85.4001C104.6 84.2001 105.9 83.5001 107.2 83.5001C109.9 83.5001 112.9 86.3 112.9 92.3V101.1H101.6V101.1Z" fill="#333333"/>
</svg>
