<svg fill="none" height="118" viewBox="0 0 165 118" width="165" xmlns="http://www.w3.org/2000/svg"><g fill="#333"><path d="m105.3 95.7h-1.7l-1.4 1-2.2 1.5999h-35.3l-2.2-1.5999-1.4-1h-1.7-54.2-5.2v5.2 7.3c0 5.2 4.2 9.4 9.4 9.4h146c5.2 0 9.4-4.2 9.4-9.4v-7.3-5.2h-5.2zm54.2 12.5c0 2.3-1.9 4.2-4.2 4.2h-145.9c-2.3 0-4.2-1.9-4.2-4.2v-7.3h54.2l3.6 2.6h38.6l3.6-2.6h54.2v7.3z"/><path d="m85.2 8.80005h-5.8v5.20005h5.8z"/><path d="m151.9 88.2v-78.60002c0-4.8-3.9-8.699956-8.7-8.699956h-121.7c-4.8 0-8.7 3.899956-8.7 8.699956v78.60002h5.2v-66.5h128.6v66.5zm-133.9-71.7v-7c0-1.9 1.6-3.5 3.5-3.5h121.7c1.9 0 3.5 1.6 3.5 3.5v7z"/><path d="m65.9 31.2v52.5999l11.6-11.3-2.3-5.0999-4.1 4v-27.4001l18.9 19.5h-12l9.9 23.1 4.8-2.1-6.8-15.7999h16.4z"/></g></svg>