<svg width="147" height="142" viewBox="0 0 147 142" fill="none" xmlns="http://www.w3.org/2000/svg">
<path d="M107.6 70.2L98.2 65.5L105.2 58.5C107.7 59.2 110.2 59.5 112.8 59.5C120.7 59.5 128.1 56.4 133.7 50.9C142.3 42.3 144.7 29.6 140 18.4L138.5 14.9L119.9 33.5L113.1 29.8L109.4 23L128 4.39999L124.5 2.89999C120.8 1.29999 116.9 0.5 112.9 0.5C105 0.5 97.6 3.60001 92 9.10001C84.5 16.6 81.6 27.4 84.4 37.6L69.5 52.5L28 11.4L23.7 4.20001L5.29996 1.70001L8.4 19.5L15.5 23.8L56.8 65L37.7 84C35.2 83.3 32.6999 83 30.0999 83C22.1999 83 14.8 86.1 9.19998 91.6C0.599984 100.2 -1.8 112.9 2.9 124.1L4.4 127.6L23 109L29.8 112.7L33.5 119.5L14.9 138.1L18.4 139.6C22.1 141.2 26 142 30 142C37.9 142 45.3 138.9 50.9 133.4C58.4 125.9 61.3 115.1 58.5 104.9L69.5999 93.8L74.3 103.2L110.9 139.8C112.4 141.3 114.4 142 116.8 142C129.5 142 153.8 116.4 144 106.6L107.6 70.2ZM19 20L18.8 19.8L13.0999 16.4L11.5999 7.89999L20.5 9.10001L23.9 14.7L65.5999 56.3L60.5 61.4L19 20ZM52.8 103.6L53.3 105.1C56.2 113.9 53.9 123.4 47.4 129.9C42.8 134.5 36.7 137 30.2 137C28.2 137 26.3 136.8 24.4 136.3L40.0999 120.6L33.8 109L22.3 102.7L6.59995 118.4C4.59995 110.2 6.89997 101.5 13 95.4C17.6 90.8 23.7 88.3 30.2 88.3C32.8 88.3 35.3 88.7 37.8 89.5L39.3 90L90.2 39.1L89.7 37.6C86.8 28.8 89.0999 19.3 95.5999 12.8C100.2 8.19999 106.3 5.70001 112.8 5.70001C114.8 5.70001 116.7 5.89999 118.6 6.39999L102.9 22.1L109.2 33.7L120.8 40L136.5 24.3C138.5 32.5 136.2 41.2 130.1 47.3C125.5 51.9 119.4 54.4 112.9 54.4C110.3 54.4 107.8 54 105.3 53.2L103.8 52.7L52.8 103.6ZM117 137C116 137 115.2 136.8 114.7 136.3L78.7 100.3L73.5999 90.1L94.2 69.5L104.4 74.6L140.4 110.6C145.5 115.4 126.7 137 117 137Z" fill="#333333"/>
<path d="M94.3327 86.1108L90.6558 89.7877L125.657 124.789L129.334 121.112L94.3327 86.1108Z" fill="#333333"/>
</svg>
