<svg width="144" height="151" viewBox="0 0 144 151" fill="none" xmlns="http://www.w3.org/2000/svg">
<path d="M143.5 147.5C142.1 132.9 139.1 127.2 136.4 123.6C133.9 120.2 125.7 113 113.2 106.1C115.1 96.2 115.8 86.2 115.4 76.7C121 72.9 122.1 63.2 122.9 55.9L123 55.1C123 49.5 121.1 46.8 119.6 44.7C118.6 43.3 118.2 42.6 118.1 41.5C117.1 21.5 99.1 0 71.9 0C43.3 0 26.8 21.4 25.7 41.5C25.6 42.6 25.2 43.3 24.2 44.6C22.6 46.7 20.5 49.6 20.9 55.7C21.6 68 25.5 73.5 28.5 75.9C28 85.7 28.8 96 30.7 106.1C18.3 112.9 10.1 120.2 7.5 123.6C4.8 127.2 1.80002 132.9 0.400024 147.5L0.0999756 150.3H143.8L143.5 147.5ZM49 103.3C50.4 113.1 56.3 125.1 71.9 125.1C78.3 125.1 83.6 123 87.6 119C92.3 114.2 94.1 107.7 94.7 103.3C115.7 111.2 129.4 123 132.2 126.7C133.5 128.4 136.4 132.3 138 145.2H5.79999C7.39999 132.3 10.3 128.5 11.6 126.7C14.4 123 28 111.2 49 103.3ZM45.9 34.3C52.8 24.4 61.8 19.1 71.9 19.1C82 19.1 91 24.3 97.8 34.2C105 44.5 109.1 58.6 110.1 74C108.6 75.1 105.3 77.2 100 79.4V79C100 62.8 88.6 41.1 88.1 40.2L86.4 37L83.9 39.7C79.7 44.2 73.5 47.2 67.5 50.1C56.3 55.5 43.7 61.5 43.7 79.1V79.5L43.8 79.9C44.9 83 46.5 85.9 48.5 88.6V97.9C43.7 99.6 39.3 101.6 35.2 103.6C30.7 77.5 34.3 51 45.9 34.3ZM108.4 103.6C104.3 101.6 99.9 99.7 95.2 97.9V88.8C95.8 88 96.4 87.1 97 86.2C103.1 84 107.5 81.8 110.4 80C110.5 87.7 109.8 95.7 108.4 103.6ZM93.4 81.9C89.6 83.1 85.2 84.4 80.1 85.4L78.8 85.7L78.3 86.9C77.9 87.7 77.1 88.3 76.2 88.3C74.9 88.3 73.9 87.3 73.9 86C73.9 84.7 74.9 83.7 76.2 83.7C77 83.7 77.7 84.1 78.2 84.8L82.6 82.1C81.2 79.9 78.8 78.5 76.2 78.5C72.1 78.5 68.7 81.9 68.7 86C68.7 90.1 72.1 93.5 76.2 93.5C78.7 93.5 80.9 92.3 82.3 90.3C84.4 89.8 86.4 89.4 88.3 88.9C82 95.4 73.8 99 71.9 99.1C68.8 99.1 53.4 91 49 78.7C49.2 64.7 58.8 60.1 69.9 54.8C75.2 52.3 80.7 49.6 85.2 45.8C88.2 52.2 94.8 67.2 94.9 78.7C94.4 79.8 94 80.9 93.4 81.9ZM53.8 94.4C60.5 100.6 68.4 104.2 71.9 104.2C74.3 104.2 82.7 100.9 90 94.4C90 96.8 90.7 108.5 83.9 115.4C80.9 118.4 76.9 119.9 71.9 119.9C66.9 119.9 62.9 118.4 59.9 115.3C54.1 109.4 53.8 100.6 53.8 94.4ZM26 55.4C25.8 51.2 27 49.5 28.3 47.7C29.4 46.2 30.7 44.5 30.8 41.8C31.8 24.1 46.5 5.3 71.9 5.3C96 5.3 112 24.3 113 41.8C113.1 44.5 114.4 46.2 115.4 47.7C116.6 49.5 117.8 51.2 117.8 55V55.3C117.4 59.4 116.7 65.4 114.9 69.2C113.3 54.6 109 41.3 102.1 31.2C94.2 19.8 83.8 13.8 71.9 13.8C60 13.8 49.5 19.9 41.6 31.3C34.8 41.1 30.5 54.1 28.9 68.3C27.6 65.8 26.3 61.8 26 55.4Z" fill="#333333"/>
</svg>
