<svg width="129" height="149" viewBox="0 0 129 149" fill="none" xmlns="http://www.w3.org/2000/svg">
<path d="M34.6 148.3C35.5 148.3 36.5 148.2 37.4 148L46.2 145.9C49.8 145 51.7 140.5 51.7 133.2C51.7 123.9 48 110.2 42.7 105.5C41.5 104.5 40.4 103.9 39.2 103.9C39.1 103.9 38.9 103.9 38.8 103.9L30.8 104.8L30.7 104.7C21.4 97.6 20.7 86.8 20.7 74.4C20.7 62 21.5 51.2 30.7 44.1L30.8 44L38.9 44.9C39 44.9 39.2 44.9 39.3 44.9C40.5 44.9 41.6 44.4 42.8 43.3C48.1 38.6 51.8 24.9 51.8 15.6C51.8 8.3 49.8 3.8 46.3 2.9L37.5 0.8C36.6 0.6 35.6 0.5 34.7 0.5C16.5 0.5 0.900014 41.1 0.900014 74.3C0.800014 107.7 16.4 148.3 34.6 148.3ZM34.6 5.8C35.1 5.8 35.7 5.9 36.2 6L44.9 8.1C45.4 8.4 46.5 10.8 46.5 15.8C46.5 25.4 42.5 36.7 39.3 39.6C39.2 39.7 39.1 39.8 39 39.8L30.3 38.8C29.6 38.7 29 38.9 28.4 39.3L27.5 40C16.4 48.6 15.5 61.2 15.5 74.5C15.5 87.8 16.4 100.4 27.5 108.9L28.4 109.6C28.9 110 29.6 110.2 30.3 110.1L39 109.1C39.1 109.1 39.2 109.2 39.3 109.3C42.6 112.2 46.5 123.5 46.5 133.1C46.5 138.1 45.4 140.5 44.9 140.7L36.1 142.8C35.6 142.9 35 143 34.5 143C22.3 143 5.90001 109.1 5.90001 74.3C6.00001 42.4 21.2 5.8 34.6 5.8Z" fill="#333333"/>
<path d="M123 74.4001C123 99.8001 102.3 120.5 76.9 120.5H72.1L79.6 115.9L76.9 111.5L65.6 118.5L58.1 123.2L76.9 134.9L79.6 130.5L72.1 125.9H76.9C105.2 125.9 128.2 102.9 128.2 74.6C128.2 46.3 105.2 23.3 76.9 23.3H61.9V25.9V28.5H62H77C102.4 28.4 123 49.0001 123 74.4001Z" fill="#333333"/>
<path d="M73.6 53H79.1C90.9 53 100.5 62.6001 100.5 74.4001C100.5 86.2001 90.9 95.8001 79.1 95.8001H73.6V101H79.1C93.8 101 105.7 89.0001 105.7 74.4001C105.7 59.7001 93.7 47.8 79.1 47.8H73.6V53Z" fill="#333333"/>
</svg>
