<svg xmlns="http://www.w3.org/2000/svg" viewBox="0 0 788 123.01"><g id="Слой_2" data-name="Слой 2"><g id="Слой_1-2" data-name="Слой 1"><path d="M318,19.71c11.6,0,18.2,2.2,27.6,9.2l6.3,4.9,6.1-6.6c3.3-3.6,6-6.9,6-7.4s-2.4-2.8-5.2-5.4a70.93,70.93,0,0,0-24.8-13c-3.4-.9-10-1.5-17-1.4-19.6,0-32.1,5-45.2,18-13.5,13.4-18.4,26.7-17.5,46.9.9,18,5.4,28.7,17.2,40.6s25.8,17.4,44,17.5c16.7.1,30.1-4.8,41.9-15.3l5.8-5.1-6.7-6.7-6.7-6.8L343.7,94a42.48,42.48,0,0,1-35.2,8.9C288.4,98.71,275,82,275,61.21c0-11.7,2.9-19.9,9.7-27.4C293.6,24,303.7,19.71,318,19.71Z"/><path d="M20,102.91V1.91H10.7c-5.2,0-9.7.3-10,.7s-.7,27.3-.7,60v59.3H75v-19H20Z"/><polygon points="151 102.91 150.8 52.61 150.5 2.41 140.8 2.11 131 1.81 131 61.91 131 121.91 168 121.91 205 121.91 205 112.41 205 102.91 178 102.91 151 102.91"/><path d="M507,64.91c-7.9-17.9-17.3-39.3-20.9-47.5l-6.7-15-9.9-.3c-5.5-.1-10.5.1-11.1.5-1,.8-6.6,13.2-39.4,87.8-7.3,16.5-13.4,30.3-13.7,30.7s4.5.8,10.5.8h10.9l5.9-13.5,5.9-13.5h60.2l5.9,13.5,5.9,13.5h10.7c6,0,10.8-.2,10.8-.4s-2.4-5.7-5.4-12.2S514.9,82.81,507,64.91Zm-38.8,10.8-21-.3,10.6-24.2c5.9-13.2,10.8-24,10.9-23.9.8.7,21.3,48,21,48.3S479.8,75.81,468.2,75.71Z"/><polygon points="602 102.91 602 52.41 602 1.91 592 1.91 582 1.91 582 61.91 582 121.91 619.5 121.91 657 121.91 657 112.41 657 102.91 629.5 102.91 602 102.91"/><polygon points="760.5 102.91 733 102.91 732.8 52.61 732.5 2.41 722.8 2.11 713 1.81 713 61.91 713 121.91 750.5 121.91 788 121.91 788 112.41 788 102.91 760.5 102.91"/></g></g></svg>