<?xml version="1.0" standalone="no"?>
<!DOCTYPE svg PUBLIC "-//W3C//DTD SVG 20010904//EN"
 "http://www.w3.org/TR/2001/REC-SVG-20010904/DTD/svg10.dtd">
<svg version="1.0" xmlns="http://www.w3.org/2000/svg"
 width="1280.000000pt" height="707.000000pt" viewBox="0 0 1280.000000 707.000000"
 preserveAspectRatio="xMidYMid meet">

<g transform="translate(0.000000,707.000000) scale(0.100000,-0.100000)"
fill="#000000" stroke="none">
<path d="M0 3535 l0 -3535 6400 0 6400 0 0 3535 0 3535 -6400 0 -6400 0 0
-3535z m5850 670 c81 -21 188 -78 248 -130 28 -26 52 -50 52 -54 0 -5 -27 -38
-60 -74 l-61 -66 -63 49 c-94 70 -160 92 -276 92 -143 0 -244 -43 -333 -141
-68 -75 -97 -157 -97 -274 0 -208 134 -375 335 -417 122 -25 250 7 352 89 l61
49 67 -68 67 -67 -58 -51 c-118 -105 -252 -154 -419 -153 -182 1 -322 57 -440
175 -118 119 -163 226 -172 406 -9 202 40 335 175 469 131 130 256 180 452
180 70 1 136 -5 170 -14z m-3140 -510 l0 -505 275 0 275 0 0 -95 0 -95 -375 0
-375 0 0 593 c0 327 3 597 7 600 3 4 48 7 100 7 l93 0 0 -505z m1308 -2 l2
-503 270 0 270 0 0 -95 0 -95 -370 0 -370 0 0 600 0 601 98 -3 97 -3 3 -502z
m3353 352 c36 -82 130 -296 209 -475 79 -179 167 -379 196 -444 30 -65 54
-121 54 -122 0 -2 -48 -4 -108 -4 l-107 0 -59 135 -59 135 -301 0 -301 0 -59
-135 -59 -135 -109 0 c-60 0 -107 3 -105 8 3 4 64 142 137 307 328 746 384
870 394 878 6 4 56 6 111 5 l99 -3 67 -150z m1159 -350 l0 -505 275 0 275 0 0
-95 0 -95 -375 0 -375 0 0 600 0 600 100 0 100 0 0 -505z m1308 -2 l2 -503
275 0 275 0 0 -95 0 -95 -375 0 -375 0 0 600 0 601 98 -3 97 -3 3 -502z"/>
<path d="M7088 3707 l-106 -242 210 -3 c116 -1 213 -1 215 1 3 3 -202 476
-210 483 -1 1 -50 -107 -109 -239z"/>
</g>
</svg>
